MonaSansMono.glyphspackage
{
glyphname = exclam;
kernLeft = exclam;
layers = (
{
layerId = m019;
shapes = (
{
closed = 1;
nodes = (
(319,186,l),
(329,493,l),
(329,729,l),
(290,729,l),
(290,493,l),
(299,186,l)
);
},
{
closed = 1;
nodes = (
(335,-7,o),
(354,12,o),
(354,38,cs),
(354,64,o),
(335,83,o),
(309,83,cs),
(284,83,o),
(264,64,o),
(264,38,cs),
(264,12,o),
(284,-7,o),
(309,-7,cs)
);
}
);
width = 618;
},
{
layerId = m020;
shapes = (
{
closed = 1;
nodes = (
(359,275,l),
(406,487,l),
(406,729,l),
(212,729,l),
(212,487,l),
(260,275,l)
);
},
{
closed = 1;
nodes = (
(378,-8,o),
(424,38,o),
(424,107,cs),
(424,176,o),
(378,222,o),
(309,222,cs),
(240,222,o),
(194,176,o),
(194,107,cs),
(194,38,o),
(240,-8,o),
(309,-8,cs)
);
}
);
width = 618;
}
);
unicode = 33;
userData = {
KernOnName = exclam;
KernOnSpecialSpacing = {
L = "spaced-off";
};
};
}
{
glyphname = numbersign;
layers = (
{
layerId = m019;
shapes = (
{
closed = 1;
nodes = (
(220,0,l),
(220,245,l),
(405,245,l),
(405,0,l),
(437,0,l),
(437,245,l),
(594,245,l),
(594,273,l),
(437,273,l),
(437,480,l),
(594,480,l),
(594,507,l),
(437,507,l),
(437,729,l),
(405,729,l),
(405,507,l),
(220,507,l),
(220,729,l),
(188,729,l),
(188,507,l),
(25,507,l),
(25,480,l),
(188,480,l),
(188,273,l),
(25,273,l),
(25,245,l),
(188,245,l),
(188,0,l)
);
},
{
closed = 1;
nodes = (
(220,480,l),
(405,480,l),
(405,273,l),
(220,273,l)
);
}
);
userData = {
com.schriftgestaltung.hints = (
{
horizontal = 1;
options = 0;
origin = (
0,
27
);
stem = -2;
target = (
u,
p
);
type = BottomGhost;
},
{
horizontal = 1;
options = 0;
origin = (
0,
24
);
stem = -2;
target = (
0,
25
);
type = Stem;
},
{
horizontal = 1;
options = 0;
origin = (
0,
20
);
stem = -2;
target = (
0,
21
);
type = Stem;
},
{
horizontal = 1;
options = 0;
origin = (
0,
18
);
stem = -2;
target = (
d,
o,
w,
n
);
type = TopGhost;
},
{
horizontal = 0;
options = 0;
origin = (
0,
27
);
stem = -2;
target = (
0,
0
);
type = Stem;
},
{
horizontal = 0;
options = 0;
origin = (
0,
3
);
stem = -2;
target = (
0,
4
);
type = Stem;
}
);
};
width = 618;
},
{
layerId = m020;
shapes = (
{
closed = 1;
nodes = (
(261,0,l),
(261,182,l),
(359,182,l),
(359,0,l),
(499,0,l),
(499,182,l),
(609,182,l),
(609,309,l),
(499,309,l),
(499,423,l),
(609,423,l),
(609,551,l),
(499,551,l),
(499,729,l),
(359,729,l),
(359,551,l),
(261,551,l),
(261,729,l),
(119,729,l),
(119,551,l),
(9,551,l),
(9,423,l),
(119,423,l),
(119,309,l),
(9,309,l),
(9,182,l),
(119,182,l),
(119,0,l)
);
},
{
closed = 1;
nodes = (
(261,423,l),
(359,423,l),
(359,309,l),
(261,309,l)
);
}
);
width = 619;
}
);
unicode = 35;
}
{
glyphname = dollar;
layers = (
{
layerId = m019;
shapes = (
{
closed = 1;
nodes = (
(464,10,o),
(551,84,o),
(551,194,cs),
(551,339,o),
(455,372,o),
(328,396,cs),
(189,422,o),
(134,447,o),
(134,545,cs),
(134,627,o),
(204,685,o),
(304,685,cs),
(422,685,o),
(484,625,o),
(488,521,c),
(528,521,l),
(525,640,o),
(452,719,o),
(308,719,cs),
(182,719,o),
(93,645,o),
(93,540,cs),
(93,421,o),
(172,386,o),
(313,359,cs),
(457,332,o),
(511,293,o),
(511,192,cs),
(511,92,o),
(430,44,o),
(311,44,cs),
(172,44,o),
(109,116,o),
(105,232,c),
(64,232,l),
(67,100,o),
(145,10,o),
(313,10,cs)
);
},
{
closed = 1;
nodes = (
(326,-85,l),
(326,23,l),
(293,23,l),
(293,-85,l)
);
},
{
closed = 1;
nodes = (
(327,699,l),
(327,814,l),
(294,814,l),
(294,699,l)
);
}
);
userData = {
com.schriftgestaltung.Glyphs.glyph.leftMetricsKey = S;
com.schriftgestaltung.Glyphs.glyph.rightMetricsKey = S;
com.schriftgestaltung.hints = (
{
horizontal = 1;
options = 0;
place = (
0,
0
);
stem = -2;
type = Stem;
},
{
horizontal = 1;
options = 0;
place = (
0,
0
);
stem = -2;
type = Stem;
},
{
horizontal = 0;
options = 0;
place = (
0,
0
);
stem = -2;
type = Stem;
},
{
horizontal = 0;
options = 0;
place = (
246,
48
);
stem = -2;
type = Stem;
},
{
horizontal = 0;
options = 0;
place = (
0,
0
);
stem = -2;
type = Stem;
},
{
horizontal = 0;
options = 0;
place = (
0,
0
);
stem = -2;
type = Stem;
}
);
};
width = 618;
},
{
layerId = m020;
shapes = (
{
closed = 1;
nodes = (
(506,8,o),
(603,101,o),
(603,232,cs),
(603,409,o),
(480,441,o),
(373,456,cs),
(255,474,o),
(238,481,o),
(238,521,cs),
(238,553,o),
(265,573,o),
(307,573,cs),
(340,573,o),
(378,561,o),
(381,511,c),
(583,511,l),
(583,638,o),
(473,722,o),
(311,722,cs),
(138,722,o),
(30,637,o),
(30,495,cs),
(30,362,o),
(124,303,o),
(267,282,cs),
(387,265,o),
(394,253,o),
(394,212,cs),
(394,177,o),
(363,160,o),
(318,160,cs),
(247,160,o),
(220,192,o),
(220,239,c),
(16,239,l),
(16,100,o),
(120,8,o),
(308,8,cs)
);
},
{
closed = 1;
nodes = (
(376,-85,l),
(376,82,l),
(244,82,l),
(244,-85,l)
);
},
{
closed = 1;
nodes = (
(376,632,l),
(376,814,l),
(244,814,l),
(244,632,l)
);
}
);
userData = {
com.schriftgestaltung.Glyphs.glyph.leftMetricsKey = S;
com.schriftgestaltung.Glyphs.glyph.rightMetricsKey = S;
};
width = 618;
}
);
unicode = 36;
userData = {
KernOnSpecialSpacing = {
L = symbols;
R = symbols;
};
};
}
{
glyphname = percent;
kernLeft = percent;
kernRight = percent;
layers = (
{
background = {
shapes = (
{
closed = 1;
nodes = (
(99,0,l),
(561,729,l),
(519,729,l),
(58,0,l)
);
},
{
closed = 1;
nodes = (
(156,320,o),
(212,391,o),
(212,523,cs),
(212,654,o),
(157,725,o),
(75,725,cs),
(-8,725,o),
(-64,655,o),
(-64,523,cs),
(-64,392,o),
(-9,320,o),
(75,320,cs)
);
},
{
closed = 1;
nodes = (
(10,352,o),
(-27,411,o),
(-27,523,cs),
(-27,634,o),
(10,693,o),
(75,693,cs),
(138,693,o),
(175,635,o),
(175,523,cs),
(175,411,o),
(138,352,o),
(75,352,cs)
);
},
{
closed = 1;
nodes = (
(627,-5,o),
(683,66,o),
(683,197,cs),
(683,329,o),
(628,400,o),
(546,400,cs),
(462,400,o),
(407,329,o),
(407,198,cs),
(407,66,o),
(462,-5,o),
(546,-5,cs)
);
},
{
closed = 1;
nodes = (
(481,27,o),
(444,85,o),
(444,197,cs),
(444,310,o),
(481,368,o),
(546,368,cs),
(608,368,o),
(645,310,o),
(645,197,cs),
(645,84,o),
(608,27,o),
(546,27,cs)
);
}
);
};
layerId = m019;
shapes = (
{
closed = 1;
nodes = (
(99,0,l),
(561,729,l),
(519,729,l),
(58,0,l)
);
},
{
closed = 1;
nodes = (
(226,414,o),
(282,471,o),
(282,577,cs),
(282,682,o),
(227,739,o),
(145,739,cs),
(62,739,o),
(6,682,o),
(6,577,cs),
(6,471,o),
(61,414,o),
(145,414,cs)
);
},
{
closed = 1;
nodes = (
(80,446,o),
(43,492,o),
(43,577,cs),
(43,662,o),
(80,707,o),
(145,707,cs),
(208,707,o),
(245,662,o),
(245,577,cs),
(245,492,o),
(208,446,o),
(145,446,cs)
);
},
{
closed = 1;
nodes = (
(556,-5,o),
(612,52,o),
(612,157,cs),
(612,263,o),
(557,320,o),
(475,320,cs),
(391,320,o),
(336,263,o),
(336,158,cs),
(336,52,o),
(391,-5,o),
(475,-5,cs)
);
},
{
closed = 1;
nodes = (
(410,27,o),
(373,72,o),
(373,157,cs),
(373,243,o),
(410,288,o),
(475,288,cs),
(537,288,o),
(574,243,o),
(574,157,cs),
(574,71,o),
(537,27,o),
(475,27,cs)
);
}
);
userData = {
com.schriftgestaltung.hints = (
{
horizontal = 1;
options = 0;
origin = (
4,
11
);
stem = -2;
target = (
3,
11
);
type = Stem;
},
{
horizontal = 1;
options = 0;
origin = (
3,
5
);
stem = -2;
target = (
4,
5
);
type = Stem;
},
{
horizontal = 1;
options = 0;
origin = (
1,
5
);
stem = -2;
target = (
2,
5
);
type = Stem;
},
{
horizontal = 1;
options = 0;
origin = (
2,
11
);
stem = -2;
target = (
1,
11
);
type = Stem;
},
{
horizontal = 1;
options = 0;
origin = (
0,
3
);
stem = -2;
target = (
u,
p
);
type = BottomGhost;
},
{
horizontal = 1;
options = 0;
origin = (
0,
2
);
stem = -2;
target = (
d,
o,
w,
n
);
type = TopGhost;
},
{
horizontal = 0;
options = 0;
origin = (
1,
8
);
stem = -2;
target = (
2,
2
);
type = Stem;
},
{
horizontal = 0;
options = 0;
origin = (
2,
8
);
stem = -2;
target = (
1,
2
);
type = Stem;
},
{
horizontal = 0;
options = 0;
origin = (
3,
8
);
stem = -2;
target = (
4,
2
);
type = Stem;
},
{
horizontal = 0;
options = 0;
origin = (
4,
8
);
stem = -2;
target = (
3,
2
);
type = Stem;
}
);
};
width = 618;
},
{
background = {
shapes = (
{
closed = 1;
nodes = (
(138,0,l),
(603,729,l),
(479,729,l),
(14,0,l)
);
},
{
closed = 1;
nodes = (
(162,348,o),
(227,416,o),
(227,536,cs),
(227,646,o),
(171,726,o),
(70,726,cs),
(-28,726,o),
(-92,655,o),
(-92,539,cs),
(-92,427,o),
(-36,348,o),
(66,348,cs)
);
},
{
closed = 1;
nodes = (
(50,450,o),
(30,449,o),
(30,537,cs),
(30,626,o),
(51,623,o),
(67,623,cs),
(85,623,o),
(105,625,o),
(105,537,cs),
(105,448,o),
(85,450,o),
(67,450,cs)
);
},
{
closed = 1;
nodes = (
(645,-3,o),
(709,66,o),
(709,186,cs),
(709,296,o),
(653,376,o),
(552,376,cs),
(455,376,o),
(390,306,o),
(390,188,cs),
(390,78,o),
(446,-3,o),
(548,-3,cs)
);
},
{
closed = 1;
nodes = (
(533,100,o),
(512,98,o),
(512,187,cs),
(512,276,o),
(533,273,o),
(550,273,cs),
(567,273,o),
(587,275,o),
(587,187,cs),
(587,98,o),
(567,100,o),
(550,100,cs)
);
}
);
};
layerId = m020;
shapes = (
{
closed = 1;
nodes = (
(141,0,l),
(606,729,l),
(482,729,l),
(17,0,l)
);
},
{
closed = 1;
nodes = (
(238,436,o),
(294,494,o),
(294,586,cs),
(294,678,o),
(238,736,o),
(148,736,cs),
(58,736,o),
(2,678,o),
(2,586,cs),
(2,494,o),
(58,436,o),
(148,436,cs)
);
},
{
closed = 1;
nodes = (
(125,536,o),
(113,553,o),
(113,586,cs),
(113,619,o),
(125,636,o),
(148,636,cs),
(171,636,o),
(183,619,o),
(183,586,cs),
(183,553,o),
(171,536,o),
(148,536,cs)
);
},
{
closed = 1;
nodes = (
(560,-10,o),
(616,48,o),
(616,140,cs),
(616,232,o),
(560,290,o),
(470,290,cs),
(380,290,o),
(324,232,o),
(324,140,cs),
(324,48,o),
(380,-10,o),
(470,-10,cs)
);
},
{
closed = 1;
nodes = (
(447,90,o),
(435,107,o),
(435,140,cs),
(435,173,o),
(447,190,o),
(470,190,cs),
(493,190,o),
(505,173,o),
(505,140,cs),
(505,107,o),
(493,90,o),
(470,90,cs)
);
}
);
width = 618;
}
);
unicode = 37;
userData = {
KernOnName = percent;
KernOnSpecialSpacing = {
L = "spaced-off";
};
};
}
{
glyphname = ampersand;
kernRight = ampersand;
layers = (
{
background = {
shapes = (
{
closed = 1;
nodes = (
(638,-5,o),
(654,-1,o),
(664,3,c),
(664,44,l),
(654,39,o),
(640,35,o),
(623,35,cs),
(575,35,o),
(542,41,o),
(457,134,cs),
(229,382,ls),
(149,470,o),
(122,521,o),
(122,586,cs),
(122,656,o),
(173,705,o),
(250,705,cs),
(319,705,o),
(365,663,o),
(365,590,cs),
(365,517,o),
(316,463,o),
(193,405,c),
(216,383,l),
(340,442,o),
(402,507,o),
(402,592,cs),
(402,680,o),
(342,739,o),
(251,739,cs),
(155,739,o),
(84,677,o),
(84,582,cs),
(84,528,o),
(99,469,o),
(195,364,cs),
(427,110,ls),
(501,28,o),
(547,-5,o),
(618,-5,cs)
);
},
{
closed = 1;
nodes = (
(274,-10,o),
(365,38,o),
(424,139,c),
(394,157,l),
(347,73,o),
(272,23,o),
(164,23,cs),
(75,23,o),
(12,82,o),
(12,173,cs),
(12,261,o),
(72,323,o),
(198,376,c),
(177,402,l),
(50,347,o),
(-26,274,o),
(-26,172,cs),
(-26,65,o),
(51,-10,o),
(162,-10,cs)
);
},
{
closed = 1;
nodes = (
(456,201,o),
(476,259,o),
(483,319,c),
(596,318,l),
(591,355,l),
(444,355,l),
(444,326,l),
(437,270,o),
(423,218,o),
(402,175,c),
(433,155,l)
);
}
);
};
layerId = m019;
shapes = (
{
closed = 1;
nodes = (
(591,-5,o),
(600,-4,o),
(608,-3,c),
(608,36,l),
(601,34,o),
(595,33,o),
(585,33,cs),
(531,33,o),
(493,64,o),
(416,155,cs),
(252,355,ls),
(163,461,o),
(135,519,o),
(135,586,cs),
(135,656,o),
(183,705,o),
(254,705,cs),
(318,705,o),
(361,663,o),
(361,590,cs),
(361,517,o),
(315,463,o),
(201,405,c),
(224,383,l),
(340,442,o),
(398,507,o),
(398,592,cs),
(398,680,o),
(340,739,o),
(255,739,cs),
(165,739,o),
(97,677,o),
(97,582,cs),
(97,528,o),
(112,464,o),
(216,340,cs),
(387,133,ls),
(446,63,o),
(501,-5,o),
(580,-5,cs)
);
},
{
closed = 1;
nodes = (
(290,-10,o),
(371,31,o),
(425,125,c),
(395,143,l),
(354,66,o),
(290,23,o),
(203,23,cs),
(106,23,o),
(42,82,o),
(42,173,cs),
(42,261,o),
(95,323,o),
(205,376,c),
(184,402,l),
(71,347,o),
(4,274,o),
(4,172,cs),
(4,65,o),
(82,-10,o),
(200,-10,cs)
);
},
{
closed = 1;
nodes = (
(452,181,o),
(471,255,o),
(474,309,c),
(579,308,l),
(579,345,l),
(438,345,l),
(437,316,l),
(433,254,o),
(420,196,o),
(400,154,c),
(431,133,l)
);
}
);
userData = {
com.schriftgestaltung.hints = (
{
horizontal = 1;
options = 0;
origin = (
0,
4
);
stem = -2;
target = (
0,
4
);
type = Stem;
},
{
horizontal = 1;
options = 0;
place = (
0,
0
);
stem = -2;
type = Stem;
},
{
horizontal = 1;
options = 0;
origin = (
0,
22
);
stem = -2;
target = (
2,
5
);
type = Stem;
},
{
horizontal = 1;
options = 0;
origin = (
0,
4
);
stem = -2;
target = (
u,
p
);
type = BottomGhost;
},
{
horizontal = 0;
options = 0;
place = (
0,
0
);
stem = -2;
type = Stem;
},
{
horizontal = 0;
options = 0;
origin = (
2,
8
);
stem = -2;
target = (
0,
19
);
type = Stem;
},
{
horizontal = 0;
options = 0;
origin = (
0,
11
);
stem = -2;
target = (
0,
9
);
type = Stem;
},
{
horizontal = 0;
options = 0;
origin = (
0,
25
);
stem = -2;
target = (
2,
2
);
type = Stem;
}
);
};
width = 619;
},
{
background = {
shapes = (
{
closed = 1;
nodes = (
(-553,-10,o),
(-471,9,o),
(-412,64,c),
(-403,64,l),
(-343,10,o),
(-286,-8,o),
(-220,-8,cs),
(-198,-8,o),
(-175,-6,o),
(-151,-1,c),
(-145,147,l),
(-157,143,o),
(-169,141,o),
(-183,141,cs),
(-217,141,o),
(-252,157,o),
(-293,192,c),
(-275,216,o),
(-262,236,o),
(-250,256,c),
(-171,253,l),
(-152,396,l),
(-353,396,l),
(-356,365,l),
(-362,344,o),
(-376,318,o),
(-394,291,c),
(-464,368,l),
(-374,410,o),
(-324,478,o),
(-324,557,cs),
(-324,667,o),
(-410,739,o),
(-531,739,cs),
(-667,739,o),
(-765,659,o),
(-765,542,cs),
(-765,486,o),
(-745,431,o),
(-701,384,c),
(-783,351,o),
(-843,275,o),
(-843,187,cs),
(-843,65,o),
(-753,-10,o),
(-632,-10,cs)
);
},
{
closed = 1;
nodes = (
(-624,147,o),
(-652,173,o),
(-652,211,cs),
(-652,244,o),
(-636,267,o),
(-613,280,c),
(-511,170,l),
(-528,154,o),
(-554,147,o),
(-585,147,cs)
);
},
{
closed = 1;
nodes = (
(-568,480,o),
(-585,511,o),
(-585,537,cs),
(-585,568,o),
(-563,587,o),
(-535,587,cs),
(-506,587,o),
(-488,567,o),
(-488,538,cs),
(-488,506,o),
(-508,476,o),
(-540,454,c)
);
},
{
closed = 1;
nodes = (
(255,-10,o),
(343,19,o),
(388,63,c),
(397,63,l),
(457,10,o),
(514,-8,o),
(580,-8,cs),
(602,-8,o),
(625,-6,o),
(649,-1,c),
(656,148,l),
(642,143,o),
(629,141,o),
(616,141,cs),
(586,141,o),
(552,155,o),
(509,190,c),
(525,213,o),
(541,236,o),
(553,256,c),
(629,253,l),
(648,397,l),
(440,398,l),
(438,366,l),
(433,350,o),
(424,327,o),
(403,294,c),
(336,368,l),
(421,407,o),
(477,475,o),
(477,558,cs),
(477,667,o),
(389,739,o),
(269,739,cs),
(133,739,o),
(34,659,o),
(34,541,cs),
(34,482,o),
(57,429,o),
(98,385,c),
(18,351,o),
(-43,276,o),
(-43,187,cs),
(-43,65,o),
(48,-10,o),
(167,-10,cs)
);
},
{
closed = 1;
nodes = (
(174,145,o),
(148,171,o),
(148,211,cs),
(148,239,o),
(164,266,o),
(187,280,c),
(289,170,l),
(273,155,o),
(243,145,o),
(213,145,cs)
);
},
{
closed = 1;
nodes = (
(233,479,o),
(215,510,o),
(215,536,cs),
(215,566,o),
(238,587,o),
(265,587,cs),
(294,587,o),
(312,565,o),
(312,538,cs),
(312,507,o),
(292,476,o),
(261,455,c)
);
}
);
};
layerId = m020;
shapes = (
{
closed = 1;
nodes = (
(582,-8,o),
(597,-6,o),
(611,-2,c),
(611,151,l),
(605,150,o),
(600,150,o),
(595,150,cs),
(569,150,o),
(537,157,o),
(502,196,cs),
(312,412,ls),
(238,497,o),
(233,512,o),
(233,546,cs),
(233,577,o),
(255,595,o),
(281,595,cs),
(310,595,o),
(327,576,o),
(327,546,cs),
(327,510,o),
(301,473,o),
(263,453,c),
(344,352,l),
(431,391,o),
(488,467,o),
(488,560,cs),
(488,664,o),
(403,741,o),
(278,741,cs),
(150,741,o),
(56,655,o),
(56,538,cs),
(56,482,o),
(75,425,o),
(150,343,cs),
(397,66,ls),
(449,7,o),
(507,-8,o),
(569,-8,cs)
);
},
{
closed = 1;
nodes = (
(295,-10,o),
(389,33,o),
(430,97,c),
(331,194,l),
(313,165,o),
(280,144,o),
(243,144,cs),
(202,144,o),
(177,169,o),
(177,212,cs),
(177,244,o),
(195,276,o),
(219,288,c),
(134,391,l),
(55,362,o),
(-9,282,o),
(-9,188,cs),
(-9,65,o),
(75,-10,o),
(199,-10,cs)
);
},
{
closed = 1;
nodes = (
(533,196,o),
(549,230,o),
(559,255,c),
(599,255,l),
(599,399,l),
(445,399,l),
(443,387,ls),
(440,366,o),
(426,316,o),
(398,266,c),
(513,167,l)
);
}
);
width = 618;
}
);
unicode = 38;
userData = {
KernOnName = ampersand;
KernOnSpecialSpacing = {
L = symbols;
R = symbols;
};
};
}
{
glyphname = quotesingle;
kernLeft = quotedbl;
kernRight = quotedbl;
layers = (
{
anchors = (
{
name = "#entry";
pos = (227,0);
},
{
name = "#exit";
pos = (388,0);
}
);
layerId = m019;
shapes = (
{
closed = 1;
nodes = (
(319,492,l),
(325,623,l),
(325,729,l),
(292,729,l),
(292,623,l),
(299,492,l)
);
}
);
userData = {
com.schriftgestaltung.Glyphs.glyph.leftMetricsKey = quotedbl;
com.schriftgestaltung.Glyphs.glyph.rightMetricsKey = quotedbl;
};
width = 618;
},
{
anchors = (
{
name = "#entry";
pos = (159,0);
},
{
name = "#exit";
pos = (406,0);
}
);
layerId = m020;
shapes = (
{
closed = 1;
nodes = (
(350,410,l),
(394,608,l),
(394,729,l),
(224,729,l),
(224,608,l),
(267,410,l)
);
}
);
userData = {
com.schriftgestaltung.Glyphs.glyph.leftMetricsKey = quotedbl;
com.schriftgestaltung.Glyphs.glyph.rightMetricsKey = quotedbl;
};
width = 618;
}
);
unicode = 39;
userData = {
KernOnSpecialSpacing = {
L = quotes;
R = quotes;
};
};
}
{
glyphname = parenleft;
kernLeft = parenleft;
kernRight = parenleft;
layers = (
{
layerId = m019;
shapes = (
{
closed = 1;
nodes = (
(456,-167,l),
(323,-68,o),
(231,115,o),
(231,313,cs),
(231,499,o),
(312,686,o),
(456,793,c),
(419,793,l),
(275,684,o),
(195,500,o),
(195,313,cs),
(195,126,o),
(275,-58,o),
(419,-167,c)
);
}
);
userData = {
com.schriftgestaltung.hints = (
{
horizontal = 0;
options = 0;
place = (
0,
0
);
stem = -2;
type = Stem;
}
);
};
width = 618;
},
{
layerId = m020;
shapes = (
{
closed = 1;
nodes = (
(486,-167,l),
(395,-48,o),
(334,144,o),
(334,313,cs),
(334,482,o),
(395,674,o),
(486,793,c),
(324,793,l),
(219,681,o),
(149,489,o),
(149,313,cs),
(149,137,o),
(219,-55,o),
(324,-167,c)
);
}
);
width = 618;
}
);
unicode = 40;
userData = {
KernOnName = parenleft;
KernOnSpecialSpacing = {
R = parenthesis;
};
};
}
{
glyphname = asterisk;
kernLeft = asterisk;
kernRight = asterisk;
layers = (
{
layerId = m019;
shapes = (
{
closed = 1;
nodes = (
(326,-5,l),
(325,139,l),
(316,293,l),
(450,211,l),
(574,136,l),
(590,165,l),
(464,239,l),
(324,309,l),
(464,378,l),
(589,449,l),
(574,478,l),
(449,405,l),
(316,326,l),
(325,479,l),
(326,628,l),
(292,628,l),
(294,479,l),
(302,326,l),
(170,405,l),
(45,480,l),
(29,450,l),
(155,379,l),
(295,309,l),
(155,238,l),
(29,164,l),
(45,134,l),
(170,211,l),
(302,293,l),
(294,139,l),
(292,-5,l)
);
}
);
width = 618;
},
{
layerId = m020;
shapes = (
{
closed = 1;
nodes = (
(383,0,l),
(383,86,l),
(355,201,l),
(445,120,l),
(521,78,l),
(593,204,l),
(519,246,l),
(404,285,l),
(519,322,l),
(593,364,l),
(521,490,l),
(445,448,l),
(355,369,l),
(383,484,l),
(383,570,l),
(235,570,l),
(235,484,l),
(263,369,l),
(173,448,l),
(97,490,l),
(25,364,l),
(99,322,l),
(214,285,l),
(99,246,l),
(25,204,l),
(97,78,l),
(173,120,l),
(263,201,l),
(235,86,l),
(235,0,l)
);
}
);
width = 618;
}
);
unicode = 42;
userData = {
KernOnSpecialSpacing = {
L = quotes;
R = quotes;
};
};
}
{
glyphname = plus;
kernLeft = plus;
kernRight = plus;
layers = (
{
layerId = m019;
shapes = (
{
closed = 1;
nodes = (
(326,117,l),
(326,345,l),
(553,345,l),
(553,377,l),
(326,377,l),
(326,605,l),
(292,605,l),
(292,377,l),
(65,377,l),
(65,345,l),
(292,345,l),
(292,117,l)
);
}
);
userData = {
com.schriftgestaltung.hints = (
{
horizontal = 1;
options = 0;
place = (
3,
3
);
stem = -2;
type = Stem;
},
{
horizontal = 0;
options = 0;
place = (
3,
3
);
stem = -2;
type = Stem;
}
);
};
width = 618;
},
{
layerId = m020;
shapes = (
{
closed = 1;
nodes = (
(390,112,l),
(390,282,l),
(558,282,l),
(558,439,l),
(390,439,l),
(390,609,l),
(229,609,l),
(229,439,l),
(61,439,l),
(61,282,l),
(229,282,l),
(229,112,l)
);
}
);
width = 618;
}
);
metricWidth = zero.tf;
unicode = 43;
userData = {
KernOnSpecialSpacing = {
L = math;
R = math;
};
};
}
{
glyphname = comma;
kernLeft = comma;
kernRight = comma;
layers = (
{
anchors = (
{
name = "#entry";
pos = (221,0);
},
{
name = "#exit";
pos = (410,0);
},
{
name = top;
pos = (311,524);
}
);
background = {
shapes = (
{
closed = 1;
nodes = (
(328,-7,o),
(341,5,o),
(341,22,cs),
(341,39,o),
(328,51,o),
(311,51,cs),
(294,51,o),
(281,39,o),
(281,22,cs),
(281,5,o),
(294,-7,o),
(311,-7,cs)
);
}
);
};
layerId = m019;
shapes = (
{
closed = 1;
nodes = (
(298,-167,l),
(327,-123,o),
(366,-34,o),
(366,21,cs),
(366,68,o),
(344,88,o),
(316,88,cs),
(287,88,o),
(268,70,o),
(268,41,cs),
(268,15,o),
(284,-4,o),
(312,-4,cs),
(329,-4,o),
(343,6,o),
(346,15,c),
(334,17,l),
(332,-31,o),
(297,-113,o),
(260,-167,c)
);
}
);
userData = {
com.schriftgestaltung.Glyphs.glyph.rightMetricsKey = period;
};
width = 619;
},
{
anchors = (
{
name = "#entry";
pos = (145,0);
},
{
name = "#exit";
pos = (469,3);
},
{
name = top;
pos = (305,552);
}
);
background = {
shapes = (
{
closed = 1;
nodes = (
(304,-167,l),
(363,-112,o),
(409,-20,o),
(409,50,cs),
(409,122,o),
(367,162,o),
(308,162,cs),
(252,162,o),
(210,127,o),
(210,73,cs),
(210,24,o),
(242,-10,o),
(301,-10,cs),
(322,-10,o),
(345,-4,o),
(359,8,c),
(311,8,l),
(301,-39,o),
(254,-108,o),
(197,-167,c)
);
}
);
};
layerId = m020;
shapes = (
{
closed = 1;
nodes = (
(323,-167,l),
(385,-99,o),
(443,13,o),
(443,88,cs),
(443,183,o),
(384,239,o),
(306,239,cs),
(227,239,o),
(175,187,o),
(175,111,cs),
(175,44,o),
(219,-4,o),
(293,-4,cs),
(306,-4,o),
(317,-3,o),
(328,-2,c),
(300,16,l),
(288,-32,o),
(227,-111,o),
(173,-167,c)
);
}
);
userData = {
com.schriftgestaltung.Glyphs.glyph.rightMetricsKey = period;
};
width = 618;
}
);
unicode = 44;
userData = {
KernOnName = comma;
KernOnSpecialSpacing = {
L = period;
R = period;
};
};
}
{
glyphname = hyphen;
kernLeft = hyphen;
kernRight = hyphen;
layers = (
{
layerId = m019;
shapes = (
{
closed = 1;
nodes = (
(533,242,l),
(533,275,l),
(85,275,l),
(85,242,l)
);
}
);
userData = {
com.schriftgestaltung.hints = (
{
horizontal = 1;
options = 0;
origin = (
0,
2
);
stem = -2;
target = (
0,
3
);
type = Stem;
}
);
};
width = 618;
},
{
layerId = m020;
shapes = (
{
closed = 1;
nodes = (
(546,192,l),
(546,352,l),
(72,352,l),
(72,192,l)
);
}
);
width = 618;
}
);
unicode = 45;
userData = {
KernOnName = hyphen;
KernOnSpecialSpacing = {
L = hyphen;
R = hyphen;
};
};
}
{
glyphname = period;
kernLeft = period;
kernRight = period;
layers = (
{
anchors = (
{
name = "#entry";
pos = (216,0);
},
{
name = "#exit";
pos = (402,0);
},
{
name = _top;
pos = (309,83);
},
{
name = top;
pos = (309,524);
}
);
layerId = m019;
shapes = (
{
closed = 1;
nodes = (
(336,-7,o),
(356,12,o),
(356,38,cs),
(356,64,o),
(336,83,o),
(309,83,cs),
(282,83,o),
(262,64,o),
(262,38,cs),
(262,12,o),
(282,-7,o),
(309,-7,cs)
);
}
);
width = 618;
},
{
anchors = (
{
name = "#entry";
pos = (160,0);
},
{
name = "#exit";
pos = (458,0);
},
{
name = _top;
pos = (309,243);
},
{
name = top;
pos = (309,552);
}
);
layerId = m020;
shapes = (
{
closed = 1;
nodes = (
(384,-8,o),
(435,42,o),
(435,118,cs),
(435,193,o),
(384,243,o),
(309,243,cs),
(234,243,o),
(183,193,o),
(183,118,cs),
(183,42,o),
(234,-8,o),
(309,-8,cs)
);
}
);
width = 618;
}
);
unicode = 46;
userData = {
KernOnName = period;
KernOnSpecialSpacing = {
L = period;
R = period;
};
};
}
{
glyphname = slash;
kernLeft = slash;
kernRight = slash;
layers = (
{
layerId = m019;
shapes = (
{
closed = 1;
nodes = (
(140,-107,l),
(498,729,l),
(458,729,l),
(97,-107,l)
);
}
);
userData = {
com.schriftgestaltung.hints = (
{
horizontal = 1;
options = 0;
place = (
0,
21
);
stem = -2;
target = (
u,
p
);
type = BottomGhost;
},
{
horizontal = 1;
options = 0;
place = (
0,
-20
);
stem = -2;
target = (
d,
o,
w,
n
);
type = TopGhost;
}
);
};
width = 618;
},
{
layerId = m020;
shapes = (
{
closed = 1;
nodes = (
(249,-117,l),
(562,729,l),
(369,729,l),
(56,-117,l)
);
}
);
width = 618;
}
);
unicode = 47;
userData = {
KernOnName = slash;
KernOnSpecialSpacing = {
L = slash;
R = slash;
};
};
}
{
glyphname = zero;
kernLeft = zero;
kernRight = zero;
layers = (
{
layerId = m019;
shapes = (
{
ref = zero.tf;
}
);
userData = {
com.schriftgestaltung.hints = (
{
horizontal = 1;
options = 0;
origin = (
1,
11
);
stem = -2;
target = (
0,
11
);
type = Stem;
},
{
horizontal = 1;
options = 0;
origin = (
0,
5
);
stem = -2;
target = (
1,
5
);
type = Stem;
},
{
horizontal = 0;
options = 0;
origin = (
0,
8
);
stem = -2;
target = (
1,
2
);
type = Stem;
},
{
horizontal = 0;
options = 0;
origin = (
1,
8
);
stem = -2;
target = (
0,
2
);
type = Stem;
}
);
};
width = 618;
},
{
background = {
shapes = (
{
closed = 1;
nodes = (
(483,-6,o),
(598,126,o),
(598,362,cs),
(598,583,o),
(496,730,o),
(315,730,cs),
(142,730,o),
(26,598,o),
(26,364,cs),
(26,142,o),
(129,-6,o),
(311,-6,cs)
);
},
{
closed = 1;
nodes = (
(260,154,o),
(216,181,o),
(216,363,cs),
(216,544,o),
(260,571,o),
(312,571,cs),
(364,571,o),
(408,544,o),
(408,363,cs),
(408,181,o),
(364,154,o),
(312,154,cs)
);
}
);
};
layerId = m020;
shapes = (
{
ref = zero.tf;
}
);
width = 618;
}
);
metricRight = "=|";
unicode = 48;
userData = {
KernOnName = zero;
};
}
{
glyphname = one;
layers = (
{
layerId = m019;
shapes = (
{
closed = 1;
nodes = (
(329,27,l),
(329,729,l),
(290,729,l),
(290,709,ls),
(290,640,o),
(262,604,o),
(162,604,cs),
(100,604,l),
(100,572,l),
(292,572,l),
(292,27,l)
);
},
{
closed = 1;
nodes = (
(529,0,l),
(529,36,l),
(87,36,l),
(87,0,l)
);
}
);
userData = {
com.schriftgestaltung.hints = (
{
horizontal = 1;
options = 0;
origin = (
0,
13
);
stem = -2;
target = (
0,
12
);
type = Stem;
},
{
horizontal = 1;
options = 0;
origin = (
0,
9
);
stem = -2;
target = (
0,
8
);
type = Stem;
},
{
horizontal = 0;
options = 0;
origin = (
0,
11
);
stem = -2;
target = (
0,
2
);
type = Stem;
}
);
};
width = 618;
},
{
background = {
shapes = (
{
closed = 1;
nodes = (
(809,0,l),
(809,166,l),
(636,166,l),
(636,721,l),
(453,721,l),
(445,643,o),
(390,591,o),
(284,591,cs),
(252,591,l),
(252,443,l),
(441,443,l),
(441,166,l),
(245,166,l),
(245,0,l)
);
}
);
};
layerId = m020;
shapes = (
{
closed = 1;
nodes = (
(428,158,l),
(428,729,l),
(247,729,l),
(247,727,ls),
(247,654,o),
(196,608,o),
(115,608,cs),
(54,608,l),
(54,454,l),
(235,454,l),
(235,158,l)
);
},
{
closed = 1;
nodes = (
(572,0,l),
(572,174,l),
(48,174,l),
(48,0,l)
);
}
);
width = 618;
}
);
metricWidth = zero.tf;
unicode = 49;
userData = {
KernOnSpecialSpacing = {
L = NoKerning;
R = NoKerning;
};
};
}
{
glyphname = two;
kernLeft = two;
kernRight = two;
layers = (
{
background = {
shapes = (
{
closed = 1;
nodes = (
(536,0,l),
(536,34,l),
(132,34,l),
(141,242,o),
(525,300,o),
(525,532,cs),
(525,646,o),
(442,730,o),
(314,730,cs),
(181,730,o),
(89,643,o),
(94,515,c),
(128,515,l),
(124,624,o),
(200,696,o),
(311,696,cs),
(417,696,o),
(487,630,o),
(487,529,cs),
(487,309,o),
(93,269,o),
(93,13,cs),
(93,0,l)
);
}
);
};
layerId = m019;
shapes = (
{
closed = 1;
nodes = (
(546,0,l),
(546,34,l),
(109,34,l),
(125,23,l),
(125,138,o),
(234,210,o),
(334,280,cs),
(431,348,o),
(530,421,o),
(530,538,cs),
(530,659,o),
(445,737,o),
(311,737,cs),
(172,737,o),
(79,646,o),
(84,518,c),
(122,519,l),
(118,628,o),
(194,703,o),
(311,703,cs),
(422,703,o),
(490,641,o),
(490,538,cs),
(490,440,o),
(408,375,o),
(312,307,cs),
(206,232,o),
(89,153,o),
(89,20,cs),
(89,0,l)
);
}
);
userData = {
com.schriftgestaltung.hints = (
{
horizontal = 1;
options = 0;
origin = (
0,
2
);
stem = -2;
target = (
0,
25
);
type = Stem;
},
{
horizontal = 1;
options = 0;
origin = (
0,
11
);
stem = -2;
target = (
0,
18
);
type = Stem;
},
{
horizontal = 0;
options = 0;
origin = (
0,
14
);
stem = -2;
target = (
0,
15
);
type = Stem;
},
{
horizontal = 0;
options = 0;
origin = (
0,
21
);
stem = -2;
target = (
0,
8
);
type = Stem;
}
);
};
width = 618;
},
{
background = {
shapes = (
{
closed = 1;
nodes = (
(577,0,l),
(577,165,l),
(194,165,l),
(276,133,l),
(272,227,o),
(572,285,o),
(572,511,cs),
(572,639,o),
(474,729,o),
(321,729,cs),
(157,729,o),
(50,639,o),
(40,487,c),
(229,487,l),
(230,532,o),
(256,568,o),
(311,568,cs),
(351,568,o),
(381,544,o),
(381,503,cs),
(381,367,o),
(39,322,o),
(39,35,cs),
(39,0,l)
);
}
);
};
layerId = m020;
shapes = (
{
closed = 1;
nodes = (
(578,0,l),
(578,167,l),
(164,167,l),
(238,118,l),
(242,166,o),
(331,204,o),
(414,264,cs),
(500,326,o),
(580,401,o),
(580,517,cs),
(580,646,o),
(479,737,o),
(321,737,cs),
(152,737,o),
(42,646,o),
(32,492,c),
(223,492,l),
(224,538,o),
(252,574,o),
(311,574,cs),
(354,574,o),
(387,550,o),
(387,509,cs),
(387,456,o),
(328,419,o),
(258,370,cs),
(158,300,o),
(33,212,o),
(33,35,cs),
(33,0,l)
);
}
);
width = 619;
}
);
unicode = 50;
userData = {
KernOnName = two;
};
}
{
glyphname = three;
kernLeft = three;
kernRight = three;
layers = (
{
background = {
shapes = (
{
closed = 1;
nodes = (
(441,-8,o),
(534,73,o),
(534,195,cs),
(534,289,o),
(482,356,o),
(393,374,c),
(393,378,l),
(470,400,o),
(521,461,o),
(521,547,cs),
(521,657,o),
(439,730,o),
(305,730,cs),
(170,730,o),
(78,641,o),
(83,514,c),
(121,515,l),
(117,624,o),
(192,697,o),
(305,697,cs),
(411,697,o),
(482,642,o),
(482,546,cs),
(482,459,o),
(425,391,o),
(317,391,cs),
(249,391,l),
(249,358,l),
(315,358,ls),
(422,358,o),
(494,306,o),
(494,196,cs),
(494,92,o),
(417,26,o),
(300,26,cs),
(184,26,o),
(109,104,o),
(113,220,c),
(78,220,l),
(74,83,o),
(163,-8,o),
(301,-8,cs)
);
}
);
};
layerId = m019;
shapes = (
{
closed = 1;
nodes = (
(434,-8,o),
(526,74,o),
(526,197,cs),
(526,292,o),
(477,360,o),
(392,378,c),
(392,382,l),
(468,404,o),
(523,466,o),
(523,553,cs),
(523,664,o),
(442,738,o),
(310,738,cs),
(185,738,o),
(97,658,o),
(92,541,c),
(130,541,l),
(136,638,o),
(206,705,o),
(310,705,cs),
(414,705,o),
(484,649,o),
(484,552,cs),
(484,458,o),
(418,395,o),
(300,395,cs),
(249,395,l),
(249,362,l),
(315,362,ls),
(417,362,o),
(486,309,o),
(486,198,cs),
(486,93,o),
(410,26,o),
(294,26,cs),
(189,26,o),
(119,92,o),
(113,189,c),
(75,189,l),
(80,72,o),
(168,-8,o),
(294,-8,cs)
);
}
);
userData = {
com.schriftgestaltung.hints = (
{
horizontal = 1;
options = 0;
origin = (
0,
34
);
stem = -2;
target = (
0,
41
);
type = Stem;
},
{
horizontal = 1;
options = 0;
origin = (
0,
26
);
stem = -2;
target = (
0,
27
);
type = Stem;
},
{
horizontal = 1;
options = 0;
origin = (
0,
12
);
stem = -2;
target = (
0,
19
);
type = Stem;
},
{
horizontal = 0;
options = 0;
origin = (
0,
38
);
stem = -2;
target = (
0,
37
);
type = Stem;
},
{
horizontal = 0;
options = 0;
origin = (
0,
27
);
stem = -2;
target = (
0,
5
);
type = Stem;
},
{
horizontal = 0;
options = 0;
origin = (
0,
31
);
stem = -2;
target = (
0,
2
);
type = Stem;
},
{
horizontal = 0;
options = 0;
origin = (
0,
15
);
stem = -2;
target = (
0,
16
);
type = Stem;
},
{
horizontal = 0;
options = 0;
origin = (
0,
22
);
stem = -2;
target = (
0,
9
);
type = Stem;
}
);
};
width = 619;
},
{
background = {
shapes = (
{
closed = 1;
nodes = (
(1274,-10,o),
(1392,69,o),
(1392,210,cs),
(1392,288,o),
(1344,355,o),
(1273,371,c),
(1273,378,l),
(1332,397,o),
(1376,457,o),
(1376,528,cs),
(1376,655,o),
(1272,730,o),
(1117,730,cs),
(948,730,o),
(842,640,o),
(837,499,c),
(1026,499,l),
(1029,542,o),
(1061,568,o),
(1110,568,cs),
(1157,568,o),
(1185,546,o),
(1185,505,cs),
(1185,464,o),
(1157,436,o),
(1105,436,cs),
(1027,436,l),
(1027,295,l),
(1113,295,ls),
(1167,295,o),
(1195,270,o),
(1195,227,cs),
(1195,182,o),
(1164,152,o),
(1109,152,cs),
(1057,152,o),
(1021,178,o),
(1020,225,c),
(830,225,l),
(836,84,o),
(936,-10,o),
(1110,-10,cs)
);
},
{
closed = 1;
nodes = (
(470,-10,o),
(587,69,o),
(587,210,cs),
(587,287,o),
(540,355,o),
(470,371,c),
(470,378,l),
(528,397,o),
(571,458,o),
(571,528,cs),
(571,655,o),
(468,730,o),
(315,730,cs),
(147,730,o),
(42,640,o),
(37,499,c),
(226,499,l),
(229,541,o),
(259,568,o),
(308,568,cs),
(353,568,o),
(380,546,o),
(380,505,cs),
(380,464,o),
(352,436,o),
(302,436,cs),
(225,436,l),
(225,295,l),
(310,295,ls),
(363,295,o),
(390,270,o),
(390,227,cs),
(390,182,o),
(360,152,o),
(307,152,cs),
(257,152,o),
(221,178,o),
(220,225,c),
(30,225,l),
(36,84,o),
(136,-10,o),
(308,-10,cs)
);
}
);
};
layerId = m020;
shapes = (
{
closed = 1;
nodes = (
(469,-10,o),
(587,70,o),
(587,212,cs),
(587,290,o),
(543,354,o),
(468,375,c),
(468,382,l),
(527,405,o),
(571,464,o),
(571,535,cs),
(571,662,o),
(467,738,o),
(313,738,cs),
(144,738,o),
(39,647,o),
(34,505,c),
(221,505,l),
(224,552,o),
(257,578,o),
(306,578,cs),
(353,578,o),
(382,555,o),
(382,512,cs),
(382,469,o),
(352,440,o),
(301,440,cs),
(223,440,l),
(223,300,l),
(309,300,ls),
(364,300,o),
(392,274,o),
(392,229,cs),
(392,182,o),
(361,150,o),
(305,150,cs),
(253,150,o),
(215,178,o),
(215,228,c),
(27,228,l),
(33,85,o),
(133,-10,o),
(306,-10,cs)
);
}
);
width = 619;
}
);
unicode = 51;
userData = {
KernOnName = three;
};
}
{
glyphname = four;
kernLeft = four;
kernRight = four;
layers = (
{
layerId = m019;
shapes = (
{
closed = 1;
nodes = (
(437,0,l),
(437,729,l),
(395,729,l),
(43,233,l),
(43,198,l),
(578,198,l),
(578,232,l),
(86,232,l),
(410,693,l),
(400,693,l),
(400,0,l)
);
}
);
userData = {
com.schriftgestaltung.hints = (
{
horizontal = 1;
options = 0;
origin = (
0,
10
);
stem = -2;
target = (
u,
p
);
type = BottomGhost;
},
{
horizontal = 1;
options = 0;
origin = (
1,
2
);
stem = -2;
target = (
0,
8
);
type = Stem;
},
{
horizontal = 1;
options = 0;
place = (
0,
0
);
stem = -2;
type = Stem;
},
{
horizontal = 0;
options = 0;
origin = (
0,
10
);
stem = -2;
target = (
0,
0
);
type = Stem;
}
);
};
width = 619;
},
{
layerId = m020;
shapes = (
{
closed = 1;
nodes = (
(506,0,l),
(506,729,l),
(272,729,l),
(15,296,l),
(15,154,l),
(603,154,l),
(603,310,l),
(204,310,l),
(364,596,l),
(312,596,l),
(312,0,l)
);
}
);
width = 618;
}
);
unicode = 52;
userData = {
KernOnName = four;
};
}
{
glyphname = five;
kernLeft = five;
kernRight = five;
layers = (
{
background = {
shapes = (
{
closed = 1;
nodes = (
(449,-8,o),
(545,89,o),
(545,235,cs),
(545,378,o),
(454,474,o),
(317,474,cs),
(235,474,o),
(168,436,o),
(134,379,c),
(131,380,l),
(145,687,l),
(514,687,l),
(514,721,l),
(112,721,l),
(98,338,l),
(132,338,l),
(161,399,o),
(226,441,o),
(311,441,cs),
(427,441,o),
(504,366,o),
(504,233,cs),
(504,109,o),
(433,26,o),
(307,26,cs),
(189,26,o),
(113,104,o),
(117,220,c),
(82,220,l),
(80,83,o),
(170,-8,o),
(306,-8,cs)
);
}
);
};
layerId = m019;
shapes = (
{
closed = 1;
nodes = (
(448,-8,o),
(544,88,o),
(544,232,cs),
(544,371,o),
(454,466,o),
(317,466,cs),
(237,466,o),
(170,429,o),
(137,373,c),
(134,374,l),
(157,695,l),
(525,695,l),
(525,729,l),
(125,729,l),
(97,332,l),
(139,332,l),
(165,390,o),
(229,432,o),
(311,432,cs),
(426,432,o),
(503,358,o),
(503,230,cs),
(503,109,o),
(432,26,o),
(307,26,cs),
(203,26,o),
(133,92,o),
(127,189,c),
(88,189,l),
(94,72,o),
(182,-8,o),
(306,-8,cs)
);
}
);
userData = {
com.schriftgestaltung.hints = (
{
horizontal = 1;
options = 0;
origin = (
0,
24
);
stem = -2;
target = (
0,
31
);
type = Stem;
},
{
horizontal = 1;
options = 0;
origin = (
0,
5
);
stem = -2;
target = (
0,
18
);
type = Stem;
},
{
horizontal = 1;
options = 0;
origin = (
0,
13
);
stem = -2;
target = (
0,
10
);
type = Stem;
},
{
horizontal = 0;
options = 0;
place = (
0,
0
);
stem = -2;
type = Stem;
},
{
horizontal = 0;
options = 0;
origin = (
0,
21
);
stem = -2;
target = (
0,
2
);
type = Stem;
},
{
horizontal = 0;
options = 0;
origin = (
0,
28
);
stem = -2;
target = (
0,
27
);
type = Stem;
}
);
};
width = 618;
},
{
background = {
shapes = (
{
closed = 1;
nodes = (
(478,-10,o),
(592,93,o),
(592,248,cs),
(592,388,o),
(496,482,o),
(360,482,cs),
(308,482,o),
(258,468,o),
(235,448,c),
(227,451,l),
(235,555,l),
(565,555,l),
(565,721,l),
(67,721,l),
(46,277,l),
(228,277,l),
(238,310,o),
(272,332,o),
(311,332,cs),
(369,332,o),
(400,296,o),
(400,241,cs),
(400,193,o),
(366,152,o),
(311,152,cs),
(257,152,o),
(221,178,o),
(220,225,c),
(30,225,l),
(36,84,o),
(136,-10,o),
(305,-10,cs)
);
}
);
};
layerId = m020;
shapes = (
{
closed = 1;
nodes = (
(475,-10,o),
(589,93,o),
(589,247,cs),
(589,386,o),
(499,477,o),
(361,477,cs),
(310,477,o),
(256,459,o),
(238,438,c),
(230,441,l),
(245,561,l),
(570,561,l),
(570,729,l),
(75,729,l),
(43,274,l),
(227,274,l),
(237,305,o),
(270,326,o),
(308,326,cs),
(360,326,o),
(395,291,o),
(395,240,cs),
(395,194,o),
(362,154,o),
(306,154,cs),
(261,154,o),
(229,176,o),
(221,209,c),
(28,209,l),
(40,78,o),
(139,-10,o),
(302,-10,cs)
);
}
);
width = 618;
}
);
unicode = 53;
}
{
glyphname = six;
kernLeft = zero;
kernRight = six;
layers = (
{
background = {
shapes = (
{
closed = 1;
nodes = (
(447,-8,o),
(543,83,o),
(543,229,cs),
(543,371,o),
(453,464,o),
(322,464,cs),
(213,464,o),
(135,403,o),
(113,311,c),
(110,311,l),
(114,532,o),
(143,696,o),
(324,696,cs),
(420,696,o),
(489,645,o),
(499,552,c),
(533,552,l),
(524,662,o),
(447,730,o),
(324,730,cs),
(154,730,o),
(75,605,o),
(75,315,cs),
(75,115,o),
(146,-8,o),
(312,-8,cs)
);
},
{
closed = 1;
nodes = (
(200,26,o),
(123,100,o),
(123,223,cs),
(123,339,o),
(195,431,o),
(316,431,cs),
(427,431,o),
(502,355,o),
(502,231,cs),
(502,107,o),
(427,26,o),
(314,26,cs)
);
}
);
};
layerId = m019;
shapes = (
{
closed = 1;
nodes = (
(453,-8,o),
(550,82,o),
(550,227,cs),
(550,364,o),
(459,456,o),
(325,456,cs),
(217,456,o),
(138,397,o),
(116,306,c),
(113,306,l),
(117,543,o),
(145,704,o),
(329,704,cs),
(419,704,o),
(489,660,o),
(504,563,c),
(540,563,l),
(531,668,o),
(445,738,o),
(329,738,cs),
(157,738,o),
(77,614,o),
(77,310,cs),
(77,113,o),
(150,-8,o),
(317,-8,cs)
);
},
{
closed = 1;
nodes = (
(204,26,o),
(126,99,o),
(126,219,cs),
(126,332,o),
(199,422,o),
(321,422,cs),
(432,422,o),
(509,347,o),
(509,227,cs),
(509,106,o),
(432,26,o),
(319,26,cs)
);
}
);
userData = {
com.schriftgestaltung.hints = (
{
horizontal = 1;
options = 0;
origin = (
1,
11
);
stem = -2;
target = (
0,
25
);
type = Stem;
},
{
horizontal = 1;
options = 0;
origin = (
0,
5
);
stem = -2;
target = (
1,
5
);
type = Stem;
},
{
horizontal = 1;
options = 0;
origin = (
0,
19
);
stem = -2;
target = (
0,
12
);
type = Stem;
},
{
horizontal = 0;
options = 0;
origin = (
0,
22
);
stem = -2;
target = (
0,
9
);
type = Stem;
},
{
horizontal = 0;
options = 0;
origin = (
1,
8
);
stem = -2;
target = (
0,
2
);
type = Stem;
}
);
};
width = 618;
},
{
background = {
shapes = (
{
closed = 1;
nodes = (
(476,-9,o),
(588,82,o),
(588,244,cs),
(588,387,o),
(498,483,o),
(362,483,cs),
(298,483,o),
(247,461,o),
(222,427,c),
(214,427,l),
(211,522,o),
(252,566,o),
(316,566,cs),
(355,566,o),
(387,550,o),
(396,526,c),
(583,526,l),
(569,648,o),
(472,730,o),
(317,730,cs),
(129,730,o),
(19,603,o),
(19,356,cs),
(19,100,o),
(135,-9,o),
(310,-9,cs)
);
},
{
closed = 1;
nodes = (
(260,156,o),
(227,192,o),
(227,249,cs),
(227,306,o),
(260,342,o),
(313,342,cs),
(366,342,o),
(399,306,o),
(399,249,cs),
(399,192,o),
(366,156,o),
(313,156,cs)
);
}
);
};
layerId = m020;
shapes = (
{
closed = 1;
nodes = (
(485,-9,o),
(600,94,o),
(600,248,cs),
(600,384,o),
(508,475,o),
(371,475,cs),
(294,475,o),
(239,448,o),
(213,411,c),
(205,411,l),
(205,520,o),
(250,575,o),
(324,575,cs),
(366,575,o),
(403,558,o),
(412,526,c),
(606,526,l),
(589,654,o),
(487,739,o),
(326,739,cs),
(128,739,o),
(16,606,o),
(16,354,cs),
(16,98,o),
(132,-9,o),
(311,-9,cs)
);
},
{
closed = 1;
nodes = (
(262,158,o),
(226,193,o),
(226,246,cs),
(226,298,o),
(262,333,o),
(317,333,cs),
(371,333,o),
(407,298,o),
(407,246,cs),
(407,193,o),
(371,158,o),
(317,158,cs)
);
}
);
width = 618;
}
);
unicode = 54;
}
{
glyphname = seven;
kernLeft = seven;
kernRight = seven;
layers = (
{
background = {
shapes = (
{
closed = 1;
nodes = (
(288,0,l),
(316,237,o),
(391,468,o),
(547,696,c),
(547,721,l),
(87,721,l),
(87,524,l),
(120,524,l),
(120,687,l),
(502,687,l),
(376,501,o),
(282,284,o),
(248,0,c)
);
}
);
};
layerId = m019;
shapes = (
{
closed = 1;
nodes = (
(332,0,l),
(332,237,o),
(409,474,o),
(559,704,c),
(559,729,l),
(73,729,l),
(73,530,l),
(107,530,l),
(107,696,l),
(513,696,l),
(367,467,o),
(291,232,o),
(291,0,c)
);
}
);
userData = {
com.schriftgestaltung.hints = (
{
horizontal = 1;
options = 0;
origin = (
0,
12
);
stem = -2;
target = (
u,
p
);
type = BottomGhost;
},
{
horizontal = 1;
options = 0;
origin = (
0,
5
);
stem = -2;
target = (
0,
8
);
type = Stem;
},
{
horizontal = 0;
options = 0;
origin = (
0,
6
);
stem = -2;
target = (
0,
7
);
type = Stem;
},
{
horizontal = 0;
options = 0;
origin = (
0,
12
);
stem = -2;
target = (
0,
0
);
type = Stem;
}
);
};
width = 619;
},
{
background = {
shapes = (
{
closed = 1;
nodes = (
(379,0,l),
(407,265,o),
(499,432,o),
(591,582,c),
(591,721,l),
(36,721,l),
(36,445,l),
(187,445,l),
(187,555,l),
(386,555,l),
(300,438,o),
(211,265,o),
(179,0,c)
);
}
);
};
layerId = m020;
shapes = (
{
closed = 1;
nodes = (
(412,0,l),
(412,287,o),
(490,427,o),
(588,588,c),
(588,729,l),
(34,729,l),
(34,450,l),
(187,450,l),
(187,561,l),
(360,561,l),
(292,443,o),
(205,268,o),
(205,0,c)
);
}
);
width = 618;
}
);
unicode = 55;
userData = {
KernOnName = seven;
};
}
{
glyphname = eight;
kernLeft = eight;
kernRight = eight;
layers = (
{
background = {
shapes = (
{
closed = 1;
nodes = (
(454,-8,o),
(552,70,o),
(552,187,cs),
(552,277,o),
(498,353,o),
(386,361,c),
(386,363,l),
(495,375,o),
(543,455,o),
(543,539,cs),
(543,654,o),
(449,729,o),
(309,729,cs),
(169,729,o),
(77,656,o),
(77,541,cs),
(77,456,o),
(125,377,o),
(233,363,c),
(233,361,l),
(121,349,o),
(65,269,o),
(65,185,cs),
(65,69,o),
(163,-8,o),
(309,-8,cs)
);
},
{
closed = 1;
nodes = (
(189,26,o),
(108,88,o),
(108,191,cs),
(108,271,o),
(167,343,o),
(309,343,cs),
(449,343,o),
(511,278,o),
(511,191,cs),
(511,92,o),
(433,26,o),
(309,26,cs)
);
},
{
closed = 1;
nodes = (
(173,380,o),
(117,449,o),
(117,537,cs),
(117,634,o),
(190,696,o),
(309,696,cs),
(424,696,o),
(503,636,o),
(503,537,cs),
(503,453,o),
(450,380,o),
(309,380,cs)
);
}
);
};
layerId = m019;
shapes = (
{
closed = 1;
nodes = (
(450,-10,o),
(546,71,o),
(546,189,cs),
(546,279,o),
(492,354,o),
(388,374,c),
(388,377,l),
(466,397,o),
(522,464,o),
(522,548,cs),
(522,662,o),
(438,737,o),
(309,737,cs),
(180,737,o),
(96,662,o),
(96,548,cs),
(96,464,o),
(152,397,o),
(230,377,c),
(230,374,l),
(126,354,o),
(72,279,o),
(72,189,cs),
(72,71,o),
(168,-10,o),
(309,-10,cs)
);
},
{
closed = 1;
nodes = (
(192,24,o),
(113,91,o),
(113,191,cs),
(113,280,o),
(164,358,o),
(309,358,cs),
(454,358,o),
(505,280,o),
(505,191,cs),
(505,91,o),
(426,24,o),
(309,24,cs)
);
},
{
closed = 1;
nodes = (
(178,393,o),
(136,472,o),
(136,549,cs),
(136,625,o),
(178,704,o),
(309,704,cs),
(440,704,o),
(482,625,o),
(482,549,cs),
(482,472,o),
(440,393,o),
(309,393,cs)
);
}
);
userData = {
com.schriftgestaltung.hints = (
{
horizontal = 1;
options = 0;
place = (
0,
0
);
stem = -2;
type = Stem;
},
{
horizontal = 1;
options = 0;
place = (
0,
0
);
stem = -2;
type = Stem;
},
{
horizontal = 1;
options = 0;
place = (
0,
0
);
stem = -2;
type = Stem;
},
{
horizontal = 0;
options = 0;
place = (
0,
0
);
stem = -2;
type = Stem;
},
{
horizontal = 0;
options = 0;
place = (
0,
0
);
stem = -2;
type = Stem;
}
);
};
width = 618;
},
{
background = {
shapes = (
{
closed = 1;
nodes = (
(489,-10,o),
(592,74,o),
(592,198,cs),
(592,281,o),
(542,349,o),
(461,370,c),
(461,378,l),
(529,401,o),
(566,463,o),
(566,534,cs),
(566,652,o),
(472,729,o),
(309,729,cs),
(146,729,o),
(52,652,o),
(52,534,cs),
(52,463,o),
(89,401,o),
(157,378,c),
(157,370,l),
(76,349,o),
(26,281,o),
(26,198,cs),
(26,74,o),
(129,-10,o),
(309,-10,cs)
);
},
{
closed = 1;
nodes = (
(254,152,o),
(221,179,o),
(221,227,cs),
(221,272,o),
(252,301,o),
(309,301,cs),
(366,301,o),
(397,272,o),
(397,227,cs),
(397,179,o),
(364,152,o),
(309,152,cs)
);
},
{
closed = 1;
nodes = (
(260,441,o),
(232,465,o),
(232,508,cs),
(232,548,o),
(258,574,o),
(309,574,cs),
(360,574,o),
(386,548,o),
(386,508,cs),
(386,465,o),
(358,441,o),
(309,441,cs)
);
}
);
};
layerId = m020;
shapes = (
{
closed = 1;
nodes = (
(481,-10,o),
(595,66,o),
(595,200,cs),
(595,287,o),
(534,354,o),
(456,374,c),
(456,382,l),
(523,403,o),
(569,466,o),
(569,539,cs),
(569,658,o),
(475,737,o),
(309,737,cs),
(153,737,o),
(49,665,o),
(49,539,cs),
(49,466,o),
(95,403,o),
(162,382,c),
(162,374,l),
(84,354,o),
(23,287,o),
(23,200,cs),
(23,74,o),
(126,-10,o),
(309,-10,cs)
);
},
{
closed = 1;
nodes = (
(253,154,o),
(220,181,o),
(220,230,cs),
(220,275,o),
(251,304,o),
(309,304,cs),
(367,304,o),
(398,275,o),
(398,230,cs),
(398,181,o),
(365,154,o),
(309,154,cs)
);
},
{
closed = 1;
nodes = (
(263,446,o),
(231,470,o),
(231,514,cs),
(231,554,o),
(259,580,o),
(309,580,cs),
(359,580,o),
(387,554,o),
(387,514,cs),
(387,470,o),
(355,446,o),
(309,446,cs)
);
}
);
width = 618;
}
);
unicode = 56;
}
{
color = 6;
glyphname = nine;
kernLeft = nine;
kernRight = nine;
layers = (
{
layerId = m019;
shapes = (
{
angle = 180;
pos = (618,722);
ref = six;
}
);
userData = {
com.schriftgestaltung.hints = (
{
horizontal = 1;
options = 0;
origin = (
0,
18
);
stem = -2;
target = (
0,
25
);
type = Stem;
},
{
horizontal = 1;
options = 0;
origin = (
1,
11
);
stem = -2;
target = (
0,
11
);
type = Stem;
},
{
horizontal = 1;
options = 0;
origin = (
0,
5
);
stem = -2;
target = (
1,
5
);
type = Stem;
},
{
horizontal = 0;
options = 0;
origin = (
0,
8
);
stem = -2;
target = (
1,
2
);
type = Stem;
},
{
horizontal = 0;
options = 0;
origin = (
0,
15
);
stem = -2;
target = (
0,
2
);
type = Stem;
}
);
};
width = 618;
},
{
background = {
shapes = (
{
closed = 1;
nodes = (
(483,-9,o),
(593,118,o),
(593,365,cs),
(593,621,o),
(477,730,o),
(302,730,cs),
(136,730,o),
(24,639,o),
(24,477,cs),
(24,334,o),
(114,238,o),
(250,238,cs),
(314,238,o),
(365,260,o),
(390,294,c),
(398,294,l),
(401,199,o),
(360,155,o),
(296,155,cs),
(257,155,o),
(225,171,o),
(216,195,c),
(29,195,l),
(43,73,o),
(140,-9,o),
(295,-9,cs)
);
},
{
closed = 1;
nodes = (
(246,379,o),
(213,415,o),
(213,472,cs),
(213,529,o),
(246,565,o),
(299,565,cs),
(352,565,o),
(385,529,o),
(385,472,cs),
(385,415,o),
(352,379,o),
(299,379,cs)
);
}
);
};
layerId = m020;
shapes = (
{
angle = 180;
pos = (618,722);
ref = six;
}
);
width = 618;
}
);
unicode = 57;
}
{
color = 6;
glyphname = colon;
kernLeft = colon;
kernRight = colon;
layers = (
{
background = {
shapes = (
{
closed = 1;
nodes = (
(558,465,o),
(571,477,o),
(571,494,cs),
(571,511,o),
(558,523,o),
(541,523,cs),
(524,523,o),
(511,511,o),
(511,494,cs),
(511,477,o),
(524,465,o),
(541,465,cs)
);
},
{
closed = 1;
nodes = (
(558,-7,o),
(571,5,o),
(571,22,cs),
(571,39,o),
(558,51,o),
(541,51,cs),
(524,51,o),
(511,39,o),
(511,22,cs),
(511,5,o),
(524,-7,o),
(541,-7,cs)
);
}
);
};
layerId = m019;
shapes = (
{
alignment = 1;
anchor = top;
ref = period;
},
{
alignment = 1;
anchor = top;
pos = (0,441);
ref = period;
}
);
width = 618;
},
{
background = {
shapes = (
{
closed = 1;
nodes = (
(581,378,o),
(619,413,o),
(619,466,cs),
(619,519,o),
(581,554,o),
(525,554,cs),
(469,554,o),
(431,519,o),
(431,466,cs),
(431,413,o),
(469,378,o),
(525,378,cs)
);
},
{
closed = 1;
nodes = (
(581,-8,o),
(619,27,o),
(619,80,cs),
(619,133,o),
(581,168,o),
(525,168,cs),
(469,168,o),
(431,133,o),
(431,80,cs),
(431,27,o),
(469,-8,o),
(525,-8,cs)
);
}
);
};
layerId = m020;
shapes = (
{
alignment = 1;
anchor = top;
ref = period;
},
{
alignment = 1;
anchor = top;
pos = (0,309);
ref = period;
}
);
width = 618;
}
);
metricLeft = period;
metricRight = period;
unicode = 58;
userData = {
KernOnName = colon;
KernOnSpecialSpacing = {
L = "spaced-off";
R = "spaced-off";
};
};
}
{
color = 6;
glyphname = semicolon;
kernLeft = semicolon;
layers = (
{
background = {
shapes = (
{
closed = 1;
nodes = (
(503,-124,l),
(527,-99,o),
(561,-36,o),
(561,11,cs),
(561,39,o),
(547,51,o),
(529,51,cs),
(511,51,o),
(499,40,o),
(499,23,cs),
(499,8,o),
(509,-4,o),
(527,-4,cs),
(538,-4,o),
(546,2,o),
(548,8,c),
(543,9,l),
(541,-27,o),
(520,-77,o),
(480,-124,c)
);
},
{
closed = 1;
nodes = (
(546,465,o),
(559,477,o),
(559,494,cs),
(559,511,o),
(546,523,o),
(529,523,cs),
(512,523,o),
(499,511,o),
(499,494,cs),
(499,477,o),
(512,465,o),
(529,465,cs)
);
}
);
};
layerId = m019;
shapes = (
{
alignment = 1;
anchor = top;
ref = comma;
},
{
alignment = 1;
anchor = top;
pos = (2,441);
ref = period;
}
);
width = 619;
},
{
background = {
shapes = (
{
closed = 1;
nodes = (
(473,-167,l),
(526,-119,o),
(583,-18,o),
(583,62,cs),
(583,128,o),
(541,168,o),
(485,168,cs),
(428,168,o),
(390,132,o),
(390,79,cs),
(390,31,o),
(422,-3,o),
(476,-3,cs),
(501,-3,o),
(522,4,o),
(535,15,c),
(488,15,l),
(478,-34,o),
(428,-107,o),
(370,-167,c)
);
},
{
closed = 1;
nodes = (
(540,378,o),
(578,413,o),
(578,466,cs),
(578,519,o),
(540,554,o),
(484,554,cs),
(428,554,o),
(390,519,o),
(390,466,cs),
(390,413,o),
(428,378,o),
(484,378,cs)
);
}
);
};
layerId = m020;
shapes = (
{
alignment = 1;
anchor = top;
ref = comma;
},
{
alignment = 1;
anchor = top;
pos = (-4,309);
ref = period;
}
);
width = 618;
}
);
metricLeft = comma;
metricRight = period;
unicode = 59;
userData = {
KernOnSpecialSpacing = {
L = "spaced-off";
R = "spaced-off";
};
};
}
{
glyphname = equal;
layers = (
{
anchors = (
{
name = center;
pos = (309,366);
}
);
layerId = m019;
shapes = (
{
closed = 1;
nodes = (
(548,455,l),
(548,487,l),
(70,487,l),
(70,455,l)
);
},
{
closed = 1;
nodes = (
(548,235,l),
(548,267,l),
(70,267,l),
(70,235,l)
);
}
);
userData = {
com.schriftgestaltung.hints = (
{
horizontal = 1;
options = 0;
origin = (
1,
2
);
stem = -2;
target = (
1,
3
);
type = Stem;
},
{
horizontal = 1;
options = 0;
origin = (
0,
2
);
stem = -2;
target = (
0,
3
);
type = Stem;
}
);
};
width = 618;
},
{
anchors = (
{
name = center;
pos = (310,366);
}
);
layerId = m020;
shapes = (
{
closed = 1;
nodes = (
(546,406,l),
(546,555,l),
(73,555,l),
(73,406,l)
);
},
{
closed = 1;
nodes = (
(546,166,l),
(546,315,l),
(73,315,l),
(73,166,l)
);
}
);
width = 618;
}
);
metricWidth = zero.tf;
unicode = 61;
userData = {
KernOnName = equal;
KernOnSpecialSpacing = {
L = math;
R = math;
};
};
}
{
glyphname = greater;
layers = (
{
layerId = m019;
shapes = (
{
closed = 1;
nodes = (
(552,339,l),
(552,383,l),
(71,589,l),
(71,553,l),
(519,363,l),
(519,359,l),
(71,169,l),
(71,133,l)
);
}
);
userData = {
com.schriftgestaltung.hints = (
{
horizontal = 1;
options = 0;
place = (
-30,
-20
);
stem = -2;
target = (
d,
o,
w,
n
);
type = TopGhost;
},
{
horizontal = 0;
options = 0;
place = (
-30,
-30
);
stem = -2;
type = Stem;
}
);
};
width = 618;
},
{
layerId = m020;
shapes = (
{
closed = 1;
nodes = (
(570,252,l),
(570,466,l),
(64,644,l),
(64,453,l),
(378,366,l),
(378,352,l),
(64,268,l),
(64,77,l)
);
}
);
width = 618;
}
);
metricWidth = zero.tf;
unicode = 62;
userData = {
KernOnSpecialSpacing = {
L = math;
R = math;
};
};
}
{
glyphname = at;
layers = (
{
layerId = m019;
shapes = (
{
closed = 1;
nodes = (
(379,-101,o),
(450,-81,o),
(492,-41,c),
(477,-9,l),
(440,-44,o),
(384,-65,o),
(319,-65,cs),
(161,-65,o),
(70,68,o),
(70,322,cs),
(70,570,o),
(166,704,o),
(320,704,cs),
(458,704,o),
(554,593,o),
(554,361,cs),
(554,196,o),
(521,120,o),
(465,120,cs),
(430,120,o),
(412,150,o),
(414,216,cs),
(426,533,l),
(396,533,l),
(389,461,l),
(386,461,l),
(374,515,o),
(341,544,o),
(303,544,cs),
(234,544,o),
(187,468,o),
(187,312,cs),
(187,140,o),
(234,89,o),
(291,89,cs),
(330,89,o),
(368,117,o),
(384,180,c),
(387,180,l),
(390,122,o),
(418,85,o),
(465,85,cs),
(545,85,o),
(594,179,o),
(594,363,cs),
(594,615,o),
(480,739,o),
(321,739,cs),
(147,739,o),
(29,592,o),
(29,321,cs),
(29,38,o),
(144,-101,o),
(319,-101,cs)
);
},
{
closed = 1;
nodes = (
(254,124,o),
(226,165,o),
(226,314,cs),
(226,446,o),
(255,510,o),
(308,510,cs),
(353,510,o),
(381,464,o),
(383,334,c),
(379,183,o),
(348,124,o),
(297,124,cs)
);
}
);
userData = {
com.schriftgestaltung.hints = (
{
horizontal = 1;
options = 0;
origin = (
0,
2
);
stem = -2;
target = (
0,
9
);
type = Stem;
},
{
horizontal = 1;
options = 0;
origin = (
0,
44
);
stem = -2;
target = (
0,
21
);
type = Stem;
},
{
horizontal = 1;
options = 0;
origin = (
1,
2
);
stem = -2;
target = (
0,
31
);
type = Stem;
},
{
horizontal = 1;
options = 0;
origin = (
0,
50
);
stem = -2;
target = (
0,
15
);
type = Stem;
},
{
horizontal = 1;
options = 0;
origin = (
1,
2
);
stem = -2;
target = (
0,
26
);
type = Stem;
},
{
horizontal = 1;
options = 0;
origin = (
0,
37
);
stem = -2;
target = (
1,
8
);
type = Stem;
},
{
horizontal = 0;
options = 0;
origin = (
0,
53
);
stem = -2;
target = (
0,
12
);
type = Stem;
},
{
horizontal = 0;
options = 0;
origin = (
0,
34
);
stem = -2;
target = (
1,
11
);
type = Stem;
},
{
horizontal = 0;
options = 0;
place = (
0,
0
);
stem = -2;
type = Stem;
},
{
horizontal = 0;
options = 0;
origin = (
0,
18
);
stem = -2;
target = (
0,
47
);
type = Stem;
}
);
};
width = 619;
},
{
layerId = m020;
shapes = (
{
closed = 1;
nodes = (
(403,-104,o),
(476,-71,o),
(510,-31,c),
(463,53,l),
(430,22,o),
(387,1,o),
(329,1,cs),
(211,1,o),
(136,88,o),
(136,325,cs),
(136,518,o),
(190,635,o),
(320,635,cs),
(413,635,o),
(487,563,o),
(487,357,cs),
(487,226,o),
(480,181,o),
(457,181,cs),
(438,181,o),
(423,202,o),
(428,323,cs),
(437,542,l),
(376,542,l),
(368,479,l),
(354,479,l),
(343,527,o),
(319,549,o),
(280,549,cs),
(225,549,o),
(182,484,o),
(182,305,cs),
(182,149,o),
(220,79,o),
(278,79,cs),
(316,79,o),
(339,103,o),
(353,148,c),
(369,148,l),
(385,103,o),
(416,79,o),
(458,79,cs),
(547,79,o),
(592,176,o),
(592,365,cs),
(592,608,o),
(478,740,o),
(317,740,cs),
(146,740,o),
(31,588,o),
(31,319,cs),
(31,45,o),
(130,-104,o),
(320,-104,cs)
);
},
{
closed = 1;
nodes = (
(290,181,o),
(284,208,o),
(284,311,cs),
(284,416,o),
(288,449,o),
(308,449,cs),
(331,449,o),
(338,418,o),
(338,318,cs),
(338,214,o),
(330,181,o),
(305,181,cs)
);
}
);
width = 619;
}
);
unicode = 64;
userData = {
KernOnName = at;
KernOnSpecialSpacing = {
L = symbols;
R = symbols;
};
};
}
{
glyphname = A;
kernLeft = A;
kernRight = A;
layers = (
{
anchors = (
{
name = bottom;
pos = (309,0);
},
{
name = ogonek;
pos = (569,0);
},
{
name = top;
pos = (309,729);
}
);
background = {
shapes = (
{
closed = 1;
nodes = (
(42,0,l),
(118,200,l),
(500,200,l),
(577,0,l),
(617,0,l),
(334,729,l),
(284,729,l),
(1,0,l)
);
},
{
closed = 1;
nodes = (
(241,516,l),
(308,690,l),
(312,690,l),
(378,516,l),
(487,233,l),
(131,233,l)
);
}
);
};
layerId = m019;
shapes = (
{
closed = 1;
nodes = (
(92,0,l),
(279,605,l),
(305,699,l),
(315,699,l),
(340,605,l),
(527,0,l),
(569,0,l),
(338,729,l),
(281,729,l),
(49,0,l)
);
},
{
closed = 1;
nodes = (
(472,199,l),
(470,235,l),
(148,235,l),
(146,199,l)
);
}
);
userData = {
com.schriftgestaltung.hints = (
{
horizontal = 1;
options = 0;
origin = (
0,
7
);
stem = -2;
target = (
u,
p
);
type = BottomGhost;
},
{
horizontal = 1;
options = 0;
origin = (
1,
3
);
stem = -2;
target = (
0,
1
);
type = Stem;
},
{
horizontal = 1;
options = 0;
origin = (
0,
6
);
stem = -2;
target = (
1,
0
);
type = Stem;
}
);
};
width = 618;
},
{
anchors = (
{
name = bottom;
pos = (309,0);
},
{
name = ogonek;
pos = (614,0);
},
{
name = top;
pos = (309,729);
}
);
background = {
shapes = (
{
closed = 1;
nodes = (
(148,0,l),
(274,431,l),
(305,547,l),
(312,547,l),
(343,431,l),
(469,0,l),
(680,0,l),
(453,729,l),
(164,729,l),
(-63,0,l)
);
},
{
closed = 1;
nodes = (
(447,130,l),
(402,284,l),
(215,284,l),
(170,130,l)
);
}
);
};
layerId = m020;
shapes = (
{
closed = 1;
nodes = (
(214,0,l),
(288,472,l),
(302,577,l),
(315,577,l),
(328,472,l),
(403,0,l),
(611,0,l),
(452,729,l),
(164,729,l),
(7,0,l)
);
},
{
closed = 1;
nodes = (
(419,130,l),
(391,284,l),
(216,284,l),
(198,130,l)
);
}
);
width = 618;
}
);
unicode = 65;
userData = {
KernOnName = A;
};
}
{
glyphname = B;
kernLeft = H;
kernRight = B;
layers = (
{
anchors = (
{
name = bottom;
pos = (304,0);
},
{
name = top;
pos = (304,729);
}
);
layerId = m019;
shapes = (
{
closed = 1;
nodes = (
(351,0,ls),
(463,0,o),
(533,78,o),
(533,200,cs),
(533,284,o),
(496,356,o),
(421,374,c),
(421,377,l),
(488,397,o),
(518,465,o),
(518,543,cs),
(518,654,o),
(458,729,o),
(353,729,cs),
(115,729,l),
(115,0,l)
);
},
{
closed = 1;
nodes = (
(153,694,l),
(349,694,ls),
(428,694,o),
(480,635,o),
(480,538,cs),
(480,450,o),
(438,391,o),
(360,391,cs),
(145,391,l),
(145,356,l),
(362,356,ls),
(445,356,o),
(493,298,o),
(493,202,cs),
(493,104,o),
(444,36,o),
(349,36,cs),
(153,36,l)
);
}
);
userData = {
com.schriftgestaltung.Glyphs.glyph.leftMetricsKey = H;
com.schriftgestaltung.hints = (
{
horizontal = 1;
options = 0;
origin = (
1,
8
);
stem = -2;
target = (
0,
15
);
type = Stem;
},
{
horizontal = 1;
options = 0;
origin = (
2,
8
);
stem = -2;
target = (
1,
0
);
type = Stem;
},
{
horizontal = 1;
options = 0;
origin = (
0,
14
);
stem = -2;
target = (
2,
0
);
type = Stem;
},
{
horizontal = 0;
options = 0;
origin = (
0,
15
);
stem = -2;
target = (
1,
8
);
type = Stem;
},
{
horizontal = 0;
options = 0;
origin = (
1,
4
);
stem = -2;
target = (
0,
3
);
type = Stem;
},
{
horizontal = 0;
options = 0;
origin = (
2,
4
);
stem = -2;
target = (
0,
10
);
type = Stem;
}
);
};
width = 618;
},
{
anchors = (
{
name = bottom;
pos = (308,0);
},
{
name = top;
pos = (308,729);
}
);
background = {
shapes = (
{
closed = 1;
nodes = (
(366,0,ls),
(541,0,o),
(639,68,o),
(639,212,cs),
(639,293,o),
(595,359,o),
(516,376,c),
(516,385,l),
(580,405,o),
(619,468,o),
(619,541,cs),
(619,654,o),
(546,729,o),
(393,729,cs),
(13,729,l),
(13,0,l)
);
},
{
closed = 1;
nodes = (
(210,299,l),
(344,299,ls),
(397,299,o),
(433,278,o),
(433,224,cs),
(433,181,o),
(408,153,o),
(342,153,cs),
(210,153,l)
);
},
{
closed = 1;
nodes = (
(210,576,l),
(334,576,ls),
(383,576,o),
(415,558,o),
(415,513,cs),
(415,473,o),
(393,446,o),
(335,446,cs),
(210,446,l)
);
}
);
};
layerId = m020;
shapes = (
{
closed = 1;
nodes = (
(356,0,ls),
(505,0,o),
(585,68,o),
(585,212,cs),
(585,294,o),
(550,360,o),
(468,376,c),
(469,384,l),
(526,402,o),
(569,459,o),
(569,541,cs),
(569,654,o),
(512,729,o),
(384,729,cs),
(60,729,l),
(60,0,l)
);
},
{
closed = 1;
nodes = (
(258,576,l),
(322,576,ls),
(347,576,o),
(363,558,o),
(363,513,cs),
(363,473,o),
(354,446,o),
(319,446,cs),
(244,446,l),
(244,299,l),
(328,299,ls),
(356,299,o),
(378,278,o),
(378,224,cs),
(378,181,o),
(368,153,o),
(331,153,cs),
(258,153,l)
);
}
);
userData = {
com.schriftgestaltung.Glyphs.glyph.leftMetricsKey = H;
};
width = 619;
}
);
metricLeft = H;
unicode = 66;
}
{
glyphname = C;
kernLeft = O;
kernRight = C;
layers = (
{
anchors = (
{
name = bottom;
pos = (329,0);
},
{
name = top;
pos = (329,729);
}
);
background = {
shapes = (
{
closed = 1;
nodes = (
(502,-8,o),
(627,87,o),
(648,237,c),
(608,238,l),
(588,111,o),
(483,28,o),
(329,28,cs),
(140,28,o),
(25,162,o),
(25,364,cs),
(25,566,o),
(140,700,o),
(329,700,cs),
(482,700,o),
(586,615,o),
(608,494,c),
(648,494,l),
(622,643,o),
(498,736,o),
(329,736,cs),
(122,736,o),
(-16,586,o),
(-16,364,cs),
(-16,143,o),
(121,-8,o),
(329,-8,cs)
);
}
);
};
layerId = m019;
shapes = (
{
closed = 1;
nodes = (
(453,-8,o),
(549,85,o),
(565,238,c),
(524,238,l),
(509,108,o),
(433,28,o),
(325,28,cs),
(188,28,o),
(103,163,o),
(103,364,cs),
(103,565,o),
(187,700,o),
(325,700,cs),
(433,700,o),
(508,616,o),
(524,494,c),
(565,494,l),
(545,646,o),
(451,736,o),
(325,736,cs),
(166,736,o),
(61,588,o),
(61,364,cs),
(61,143,o),
(165,-8,o),
(325,-8,cs)
);
}
);
userData = {
com.schriftgestaltung.hints = (
{
horizontal = 1;
options = 0;
origin = (
0,
6
);
stem = -2;
target = (
0,
25
);
type = Stem;
},
{
horizontal = 1;
options = 0;
origin = (
0,
19
);
stem = -2;
target = (
0,
12
);
type = Stem;
},
{
horizontal = 0;
options = 0;
place = (
0,
0
);
stem = -2;
type = Stem;
}
);
};
width = 619;
},
{
anchors = (
{
name = bottom;
pos = (304,0);
},
{
name = top;
pos = (324,729);
}
);
background = {
shapes = (
{
closed = 1;
nodes = (
(513,-10,o),
(655,98,o),
(672,258,c),
(467,258,l),
(453,200,o),
(393,162,o),
(324,162,c),
(324,-10,l)
);
},
{
closed = 1;
nodes = (
(100,739,o),
(-50,607,o),
(-50,365,cs),
(-50,122,o),
(100,-10,o),
(324,-10,c),
(324,162,l),
(224,162,o),
(158,220,o),
(158,365,cs),
(158,509,o),
(224,567,o),
(324,567,c),
(324,739,l)
);
},
{
closed = 1;
nodes = (
(397,567,o),
(451,528,o),
(467,472,c),
(672,472,l),
(655,631,o),
(518,739,o),
(324,739,c),
(324,567,l)
);
}
);
};
layerId = m020;
shapes = (
{
closed = 1;
nodes = (
(473,-10,o),
(590,98,o),
(602,258,c),
(395,258,l),
(386,201,o),
(351,162,o),
(320,162,cs),
(267,162,o),
(229,221,o),
(229,365,cs),
(229,508,o),
(267,567,o),
(320,567,cs),
(355,567,o),
(384,528,o),
(395,472,c),
(602,472,l),
(591,631,o),
(479,739,o),
(320,739,cs),
(140,739,o),
(20,606,o),
(20,365,cs),
(20,122,o),
(141,-10,o),
(320,-10,cs)
);
}
);
width = 618;
}
);
unicode = 67;
}
{
glyphname = D;
kernLeft = H;
kernRight = D;
layers = (
{
anchors = (
{
name = bottom;
pos = (304,0);
},
{
name = center;
pos = (127,365);
},
{
name = top;
pos = (304,729);
}
);
layerId = m019;
shapes = (
{
closed = 1;
nodes = (
(307,0,ls),
(463,0,o),
(558,144,o),
(558,364,cs),
(558,585,o),
(463,729,o),
(307,729,cs),
(92,729,l),
(92,0,l)
);
},
{
closed = 1;
nodes = (
(130,693,l),
(303,693,ls),
(435,693,o),
(520,570,o),
(520,365,cs),
(520,167,o),
(439,37,o),
(303,37,cs),
(130,37,l)
);
}
);
userData = {
com.schriftgestaltung.Glyphs.glyph.leftMetricsKey = H;
com.schriftgestaltung.hints = (
{
horizontal = 1;
options = 0;
origin = (
1,
8
);
stem = -2;
target = (
0,
8
);
type = Stem;
},
{
horizontal = 1;
options = 0;
origin = (
0,
7
);
stem = -2;
target = (
1,
0
);
type = Stem;
},
{
horizontal = 0;
options = 0;
origin = (
0,
8
);
stem = -2;
target = (
1,
8
);
type = Stem;
},
{
horizontal = 0;
options = 0;
origin = (
1,
4
);
stem = -2;
target = (
0,
3
);
type = Stem;
}
);
};
width = 619;
},
{
anchors = (
{
name = bottom;
pos = (309,0);
},
{
name = center;
pos = (178,365);
},
{
name = top;
pos = (309,729);
}
);
background = {
shapes = (
{
closed = 1;
nodes = (
(319,0,ls),
(543,0,o),
(661,147,o),
(661,364,cs),
(661,581,o),
(544,729,o),
(319,729,cs),
(-10,729,l),
(-10,0,l)
);
},
{
closed = 1;
nodes = (
(193,557,l),
(283,557,ls),
(378,557,o),
(449,527,o),
(449,368,cs),
(449,198,o),
(374,172,o),
(283,172,cs),
(193,172,l)
);
}
);
};
layerId = m020;
shapes = (
{
closed = 1;
nodes = (
(319,0,ls),
(499,0,o),
(590,147,o),
(590,364,cs),
(590,581,o),
(500,729,o),
(319,729,cs),
(50,729,l),
(50,0,l)
);
},
{
closed = 1;
nodes = (
(255,558,l),
(282,558,ls),
(336,558,o),
(381,526,o),
(381,368,cs),
(381,200,o),
(330,171,o),
(282,171,cs),
(255,171,l)
);
}
);
userData = {
com.schriftgestaltung.Glyphs.glyph.leftMetricsKey = H;
};
width = 618;
}
);
metricLeft = H;
unicode = 68;
}
{
glyphname = E;
kernLeft = H;
kernRight = E;
layers = (
{
anchors = (
{
name = bottom;
pos = (312,0);
},
{
name = ogonek;
pos = (543,0);
},
{
name = top;
pos = (312,729);
},
{
name = topleft;
pos = (51,729);
}
);
layerId = m019;
shapes = (
{
closed = 1;
nodes = (
(543,0,l),
(543,37,l),
(149,37,l),
(160,26,l),
(160,704,l),
(149,693,l),
(543,693,l),
(543,729,l),
(122,729,l),
(122,0,l)
);
},
{
closed = 1;
nodes = (
(501,358,l),
(501,392,l),
(149,392,l),
(149,358,l)
);
}
);
userData = {
com.schriftgestaltung.Glyphs.glyph.leftMetricsKey = H;
com.schriftgestaltung.hints = (
{
horizontal = 1;
options = 0;
origin = (
0,
2
);
stem = -2;
target = (
0,
11
);
type = Stem;
},
{
horizontal = 1;
options = 0;
origin = (
0,
6
);
stem = -2;
target = (
0,
3
);
type = Stem;
},
{
horizontal = 1;
options = 0;
origin = (
0,
10
);
stem = -2;
target = (
0,
7
);
type = Stem;
},
{
horizontal = 0;
options = 0;
origin = (
0,
11
);
stem = -2;
target = (
0,
2
);
type = Stem;
}
);
};
width = 618;
},
{
anchors = (
{
name = bottom;
pos = (309,0);
},
{
name = ogonek;
pos = (561,0);
},
{
name = top;
pos = (309,729);
},
{
name = topleft;
pos = (37,729);
}
);
layerId = m020;
shapes = (
{
closed = 1;
nodes = (
(561,0,l),
(561,172,l),
(236,172,l),
(277,130,l),
(277,599,l),
(236,557,l),
(558,557,l),
(558,729,l),
(73,729,l),
(73,0,l)
);
},
{
closed = 1;
nodes = (
(515,288,l),
(515,449,l),
(236,449,l),
(236,288,l)
);
}
);
userData = {
com.schriftgestaltung.Glyphs.glyph.leftMetricsKey = H;
};
width = 618;
}
);
metricLeft = H;
unicode = 69;
userData = {
KernOnName = E;
};
}
{
glyphname = F;
kernLeft = H;
kernRight = F;
layers = (
{
anchors = (
{
name = bottom;
pos = (306,0);
},
{
name = top;
pos = (306,729);
}
);
layerId = m019;
shapes = (
{
closed = 1;
nodes = (
(158,0,l),
(158,704,l),
(147,693,l),
(554,693,l),
(554,729,l),
(119,729,l),
(119,0,l)
);
},
{
closed = 1;
nodes = (
(518,349,l),
(518,384,l),
(139,384,l),
(139,349,l)
);
}
);
userData = {
com.schriftgestaltung.hints = (
{
horizontal = 1;
options = 0;
origin = (
0,
9
);
stem = -2;
target = (
u,
p
);
type = BottomGhost;
},
{
horizontal = 1;
options = 0;
origin = (
0,
4
);
stem = -2;
target = (
0,
1
);
type = Stem;
},
{
horizontal = 1;
options = 0;
origin = (
0,
8
);
stem = -2;
target = (
0,
5
);
type = Stem;
},
{
horizontal = 0;
options = 0;
origin = (
0,
9
);
stem = -2;
target = (
0,
0
);
type = Stem;
}
);
};
width = 618;
},
{
anchors = (
{
name = bottom;
pos = (305,0);
},
{
name = top;
pos = (305,729);
}
);
layerId = m020;
shapes = (
{
closed = 1;
nodes = (
(269,0,l),
(269,589,l),
(238,557,l),
(585,557,l),
(585,729,l),
(66,729,l),
(66,0,l)
);
},
{
closed = 1;
nodes = (
(548,261,l),
(548,424,l),
(222,424,l),
(222,261,l)
);
}
);
width = 619;
}
);
metricLeft = H;
unicode = 70;
userData = {
KernOnName = F;
};
}
{
glyphname = G;
kernLeft = O;
kernRight = G;
layers = (
{
anchors = (
{
name = bottom;
pos = (309,0);
},
{
name = top;
pos = (311,729);
}
);
background = {
shapes = (
{
closed = 1;
nodes = (
(446,-8,o),
(562,64,o),
(597,174,c),
(603,174,l),
(608,0,l),
(640,0,l),
(640,376,l),
(279,376,l),
(279,340,l),
(616,340,l),
(599,357,l),
(599,298,ls),
(599,132,o),
(479,28,o),
(304,28,cs),
(121,28,o),
(7,161,o),
(7,364,cs),
(7,566,o),
(123,700,o),
(317,700,cs),
(465,700,o),
(563,629,o),
(591,515,c),
(631,515,l),
(602,658,o),
(478,736,o),
(317,736,cs),
(106,736,o),
(-33,587,o),
(-33,364,cs),
(-33,141,o),
(102,-8,o),
(304,-8,cs)
);
}
);
};
layerId = m019;
shapes = (
{
closed = 1;
nodes = (
(407,-8,o),
(492,65,o),
(518,174,c),
(523,174,l),
(527,0,l),
(560,0,l),
(560,376,l),
(287,376,l),
(287,340,l),
(533,340,l),
(517,359,l),
(517,298,ls),
(517,132,o),
(431,28,o),
(310,28,cs),
(173,28,o),
(88,164,o),
(88,364,cs),
(88,563,o),
(171,700,o),
(311,700,cs),
(419,700,o),
(490,631,o),
(511,515,c),
(553,515,l),
(532,658,o),
(438,736,o),
(311,736,cs),
(151,736,o),
(46,586,o),
(46,364,cs),
(46,143,o),
(149,-8,o),
(308,-8,cs)
);
}
);
userData = {
com.schriftgestaltung.Glyphs.glyph.leftMetricsKey = C;
com.schriftgestaltung.hints = (
{
horizontal = 1;
options = 0;
origin = (
0,
14
);
stem = -2;
target = (
0,
33
);
type = Stem;
},
{
horizontal = 1;
options = 0;
origin = (
0,
7
);
stem = -2;
target = (
0,
8
);
type = Stem;
},
{
horizontal = 1;
options = 0;
origin = (
0,
27
);
stem = -2;
target = (
0,
20
);
type = Stem;
},
{
horizontal = 1;
options = 0;
origin = (
0,
4
);
stem = -2;
target = (
u,
p
);
type = BottomGhost;
},
{
horizontal = 0;
options = 0;
place = (
0,
0
);
stem = -2;
type = Stem;
},
{
horizontal = 0;
options = 0;
origin = (
0,
10
);
stem = -2;
target = (
0,
5
);
type = Stem;
}
);
};
width = 618;
},
{
anchors = (
{
name = bottom;
pos = (308,0);
},
{
name = top;
pos = (311,729);
}
);
background = {
shapes = (
{
closed = 1;
nodes = (
(487,-10,o),
(629,98,o),
(646,258,c),
(441,258,l),
(427,200,o),
(367,162,o),
(298,162,cs),
(200,162,o),
(134,220,o),
(134,365,cs),
(134,509,o),
(200,567,o),
(298,567,cs),
(371,567,o),
(425,528,o),
(441,472,c),
(646,472,l),
(629,631,o),
(492,739,o),
(298,739,cs),
(75,739,o),
(-74,607,o),
(-74,365,cs),
(-74,122,o),
(75,-10,o),
(298,-10,cs)
);
}
);
};
layerId = m020;
shapes = (
{
closed = 1;
nodes = (
(329,-10,o),
(390,31,o),
(412,92,c),
(418,92,l),
(425,0,l),
(587,0,l),
(587,408,l),
(308,408,l),
(308,264,l),
(403,264,l),
(370,297,l),
(370,279,ls),
(370,206,o),
(345,156,o),
(303,156,cs),
(261,156,o),
(230,222,o),
(230,358,cs),
(230,484,o),
(249,567,o),
(309,567,cs),
(333,567,o),
(364,532,o),
(374,477,c),
(582,477,l),
(572,636,o),
(466,739,o),
(311,739,cs),
(137,739,o),
(20,600,o),
(20,352,cs),
(20,126,o),
(118,-10,o),
(263,-10,cs)
);
}
);
userData = {
com.schriftgestaltung.Glyphs.glyph.leftMetricsKey = C;
};
width = 618;
}
);
unicode = 71;
}
{
glyphname = H;
kernLeft = H;
kernRight = H;
layers = (
{
anchors = (
{
name = bottom;
pos = (309,0);
},
{
name = center;
pos = (309,592);
},
{
name = top;
pos = (309,729);
},
{
name = topleft;
pos = (48,729);
}
);
layerId = m019;
shapes = (
{
closed = 1;
nodes = (
(139,0,l),
(139,729,l),
(102,729,l),
(102,0,l)
);
},
{
closed = 1;
nodes = (
(516,0,l),
(516,729,l),
(479,729,l),
(479,0,l)
);
},
{
closed = 1;
nodes = (
(493,362,l),
(493,398,l),
(125,398,l),
(125,362,l)
);
}
);
userData = {
com.schriftgestaltung.hints = (
{
horizontal = 1;
options = 0;
origin = (
0,
11
);
stem = -2;
target = (
u,
p
);
type = BottomGhost;
},
{
horizontal = 1;
options = 0;
origin = (
0,
8
);
stem = -2;
target = (
0,
1
);
type = Stem;
},
{
horizontal = 1;
options = 0;
origin = (
0,
10
);
stem = -2;
target = (
d,
o,
w,
n
);
type = TopGhost;
},
{
horizontal = 0;
options = 0;
origin = (
0,
11
);
stem = -2;
target = (
0,
0
);
type = Stem;
},
{
horizontal = 0;
options = 0;
origin = (
0,
3
);
stem = -2;
target = (
0,
4
);
type = Stem;
}
);
};
width = 618;
},
{
anchors = (
{
name = bottom;
pos = (309,0);
},
{
name = center;
pos = (309,591);
},
{
name = top;
pos = (309,729);
},
{
name = topleft;
pos = (35,729);
}
);
layerId = m020;
shapes = (
{
closed = 1;
nodes = (
(259,0,l),
(259,729,l),
(55,729,l),
(55,0,l)
);
},
{
closed = 1;
nodes = (
(563,0,l),
(563,729,l),
(359,729,l),
(359,0,l)
);
},
{
closed = 1;
nodes = (
(393,283,l),
(393,455,l),
(225,455,l),
(225,283,l)
);
}
);
width = 618;
}
);
metricRight = "=|";
unicode = 72;
userData = {
KernOnName = H;
};
}
{
glyphname = I;
kernLeft = H;
kernRight = H;
layers = (
{
anchors = (
{
name = bottom;
pos = (308,0);
},
{
name = ogonek;
pos = (327,0);
},
{
name = top;
pos = (308,729);
},
{
name = topleft;
pos = (208,729);
}
);
layerId = m019;
shapes = (
{
closed = 1;
nodes = (
(328,0,l),
(328,729,l),
(290,729,l),
(290,0,l)
);
},
{
closed = 1;
nodes = (
(507,693,l),
(507,729,l),
(111,729,l),
(111,693,l)
);
},
{
closed = 1;
nodes = (
(507,0,l),
(507,36,l),
(111,36,l),
(111,0,l)
);
}
);
userData = {
com.schriftgestaltung.hints = (
{
horizontal = 1;
options = 0;
origin = (
0,
3
);
stem = -2;
target = (
u,
p
);
type = BottomGhost;
},
{
horizontal = 1;
options = 0;
origin = (
0,
2
);
stem = -2;
target = (
d,
o,
w,
n
);
type = TopGhost;
},
{
horizontal = 0;
options = 0;
origin = (
0,
3
);
stem = -2;
target = (
0,
0
);
type = Stem;
}
);
};
width = 618;
},
{
anchors = (
{
name = bottom;
pos = (310,0);
},
{
name = ogonek;
pos = (411,0);
},
{
name = top;
pos = (310,729);
},
{
name = topleft;
pos = (159,729);
}
);
layerId = m020;
shapes = (
{
closed = 1;
nodes = (
(411,0,l),
(411,729,l),
(208,729,l),
(208,0,l)
);
},
{
closed = 1;
nodes = (
(565,555,l),
(565,729,l),
(54,729,l),
(54,555,l)
);
},
{
closed = 1;
nodes = (
(565,0,l),
(565,174,l),
(54,174,l),
(54,0,l)
);
}
);
width = 619;
}
);
metricLeft = H;
metricRight = H;
unicode = 73;
}
{
glyphname = J;
kernLeft = J;
kernRight = J;
layers = (
{
anchors = (
{
name = bottom;
pos = (391,0);
},
{
name = top;
pos = (457,729);
}
);
background = {
shapes = (
{
closed = 1;
nodes = (
(345,-8,o),
(410,44,o),
(410,162,cs),
(410,729,l),
(372,729,l),
(372,167,ls),
(372,66,o),
(320,27,o),
(235,27,cs),
(198,27,o),
(168,36,o),
(148,50,c),
(148,13,l),
(168,1,o),
(199,-8,o),
(237,-8,cs)
);
}
);
};
layerId = m019;
shapes = (
{
closed = 1;
nodes = (
(319,0,ls),
(429,0,o),
(476,57,o),
(476,170,cs),
(476,729,l),
(438,729,l),
(438,175,ls),
(438,81,o),
(410,35,o),
(318,35,cs),
(84,35,l),
(84,0,l)
);
},
{
closed = 1;
nodes = (
(474,693,l),
(474,729,l),
(84,729,l),
(84,693,l)
);
}
);
userData = {
com.schriftgestaltung.hints = (
{
horizontal = 1;
options = 0;
origin = (
0,
8
);
stem = -2;
target = (
0,
15
);
type = Stem;
},
{
horizontal = 1;
options = 0;
origin = (
0,
4
);
stem = -2;
target = (
d,
o,
w,
n
);
type = TopGhost;
},
{
horizontal = 1;
options = 0;
origin = (
0,
12
);
stem = -2;
target = (
d,
o,
w,
n
);
type = TopGhost;
},
{
horizontal = 0;
options = 0;
origin = (
0,
5
);
stem = -2;
target = (
0,
2
);
type = Stem;
}
);
};
width = 618;
},
{
anchors = (
{
name = bottom;
pos = (370,0);
},
{
name = top;
pos = (422,729);
}
);
background = {
shapes = (
{
closed = 1;
nodes = (
(370,-7,o),
(469,59,o),
(469,227,cs),
(469,729,l),
(267,729,l),
(267,241,ls),
(267,187,o),
(242,158,o),
(177,158,cs),
(149,158,o),
(127,164,o),
(109,172,c),
(109,12,l),
(134,1,o),
(179,-7,o),
(222,-7,cs)
);
}
);
};
layerId = m020;
shapes = (
{
closed = 1;
nodes = (
(302,0,ls),
(449,0,o),
(523,74,o),
(523,221,cs),
(523,729,l),
(321,729,l),
(321,252,ls),
(321,196,o),
(297,174,o),
(241,174,cs),
(83,174,l),
(83,0,l)
);
},
{
closed = 1;
nodes = (
(522,555,l),
(522,729,l),
(83,729,l),
(83,555,l)
);
}
);
width = 618;
}
);
unicode = 74;
}
{
glyphname = K;
kernLeft = H;
kernRight = K;
layers = (
{
anchors = (
{
name = bottom;
pos = (306,0);
},
{
name = top;
pos = (306,729);
}
);
layerId = m019;
shapes = (
{
closed = 1;
nodes = (
(591,0,l),
(304,425,l),
(564,729,l),
(517,729,l),
(135,282,l),
(135,231,l),
(277,398,l),
(547,0,l)
);
},
{
closed = 1;
nodes = (
(143,0,l),
(143,729,l),
(104,729,l),
(104,0,l)
);
}
);
userData = {
com.schriftgestaltung.Glyphs.glyph.leftMetricsKey = H;
com.schriftgestaltung.hints = (
{
horizontal = 1;
options = 0;
origin = (
0,
11
);
stem = -2;
target = (
u,
p
);
type = BottomGhost;
},
{
horizontal = 1;
options = 0;
origin = (
0,
10
);
stem = -2;
target = (
d,
o,
w,
n
);
type = TopGhost;
},
{
horizontal = 0;
options = 0;
origin = (
0,
11
);
stem = -2;
target = (
0,
0
);
type = Stem;
}
);
};
width = 618;
},
{
anchors = (
{
name = bottom;
pos = (304,0);
},
{
name = top;
pos = (304,729);
}
);
background = {
shapes = (
{
closed = 1;
nodes = (
(195,0,l),
(195,163,l),
(282,273,l),
(439,0,l),
(679,0,l),
(421,420,l),
(668,729,l),
(429,729,l),
(195,417,l),
(195,729,l),
(-8,729,l),
(-8,0,l)
);
}
);
};
layerId = m020;
shapes = (
{
closed = 1;
nodes = (
(618,0,l),
(440,417,l),
(612,729,l),
(385,729,l),
(236,428,l),
(236,164,l),
(285,270,l),
(391,0,l)
);
},
{
closed = 1;
nodes = (
(244,0,l),
(244,729,l),
(39,729,l),
(39,0,l)
);
}
);
userData = {
com.schriftgestaltung.Glyphs.glyph.leftMetricsKey = H;
};
width = 618;
}
);
metricLeft = H;
unicode = 75;
}
{
glyphname = L;
kernLeft = H;
kernRight = L;
layers = (
{
anchors = (
{
name = bottom;
pos = (294,0);
},
{
name = center;
pos = (355,365);
},
{
name = top;
pos = (132,729);
},
{
name = topright;
pos = (244,729);
}
);
layerId = m019;
shapes = (
{
closed = 1;
nodes = (
(577,0,l),
(577,37,l),
(132,37,l),
(151,15,l),
(151,729,l),
(114,729,l),
(114,0,l)
);
}
);
userData = {
com.schriftgestaltung.Glyphs.glyph.leftMetricsKey = H;
com.schriftgestaltung.hints = (
{
horizontal = 1;
options = 0;
origin = (
0,
2
);
stem = -2;
target = (
0,
5
);
type = Stem;
},
{
horizontal = 1;
options = 0;
origin = (
0,
4
);
stem = -2;
target = (
d,
o,
w,
n
);
type = TopGhost;
},
{
horizontal = 0;
options = 0;
origin = (
0,
5
);
stem = -2;
target = (
0,
2
);
type = Stem;
}
);
};
width = 618;
},
{
anchors = (
{
name = bottom;
pos = (296,0);
},
{
name = center;
pos = (400,365);
},
{
name = top;
pos = (162,729);
},
{
name = topright;
pos = (321,729);
}
);
layerId = m020;
shapes = (
{
closed = 1;
nodes = (
(603,0,l),
(603,179,l),
(236,179,l),
(262,151,l),
(262,729,l),
(60,729,l),
(60,0,l)
);
}
);
userData = {
com.schriftgestaltung.Glyphs.glyph.leftMetricsKey = H;
};
width = 618;
}
);
metricLeft = H;
unicode = 76;
userData = {
KernOnName = L;
};
}
{
glyphname = M;
kernLeft = H;
kernRight = H;
layers = (
{
anchors = (
{
name = bottom;
pos = (309,0);
},
{
name = top;
pos = (309,729);
}
);
background = {
shapes = (
{
closed = 1;
nodes = (
(2,0,l),
(2,420,l),
(0,686,l),
(6,686,l),
(292,0,l),
(328,0,l),
(613,686,l),
(620,686,l),
(617,420,l),
(617,0,l),
(656,0,l),
(656,729,l),
(594,729,l),
(310,50,l),
(308,50,l),
(26,729,l),
(-36,729,l),
(-36,0,l)
);
}
);
};
layerId = m019;
shapes = (
{
closed = 1;
nodes = (
(131,0,l),
(131,411,l),
(127,699,l),
(137,699,l),
(188,506,l),
(291,180,l),
(326,180,l),
(427,506,l),
(480,699,l),
(490,699,l),
(486,411,l),
(486,0,l),
(521,0,l),
(521,729,l),
(463,729,l),
(365,420,l),
(314,233,l),
(304,233,l),
(252,420,l),
(155,729,l),
(96,729,l),
(96,0,l)
);
}
);
userData = {
com.schriftgestaltung.Glyphs.glyph.leftMetricsKey = H;
com.schriftgestaltung.Glyphs.glyph.rightMetricsKey = H;
com.schriftgestaltung.hints = (
{
horizontal = 1;
options = 0;
origin = (
0,
16
);
stem = -2;
target = (
u,
p
);
type = BottomGhost;
},
{
horizontal = 1;
options = 0;
origin = (
0,
15
);
stem = -2;
target = (
0,
2
);
type = Stem;
},
{
horizontal = 0;
options = 0;
origin = (
0,
16
);
stem = -2;
target = (
0,
0
);
type = Stem;
},
{
horizontal = 0;
options = 0;
origin = (
0,
8
);
stem = -2;
target = (
0,
9
);
type = Stem;
}
);
};
width = 618;
},
{
anchors = (
{
name = bottom;
pos = (309,0);
},
{
name = top;
pos = (309,729);
}
);
background = {
shapes = (
{
closed = 1;
nodes = (
(102,0,l),
(102,233,l),
(99,518,l),
(108,518,l),
(228,0,l),
(394,0,l),
(514,518,l),
(521,518,l),
(519,235,l),
(519,0,l),
(715,0,l),
(715,729,l),
(409,729,l),
(315,333,l),
(307,333,l),
(210,729,l),
(-96,729,l),
(-96,0,l)
);
}
);
};
layerId = m020;
shapes = (
{
closed = 1;
nodes = (
(216,0,l),
(216,301,l),
(199,510,l),
(212,510,l),
(232,350,l),
(272,115,l),
(347,115,l),
(376,346,l),
(407,510,l),
(420,510,l),
(402,301,l),
(402,0,l),
(569,0,l),
(569,729,l),
(365,729,l),
(336,541,l),
(317,409,l),
(304,409,l),
(285,541,l),
(252,729,l),
(49,729,l),
(49,0,l)
);
}
);
userData = {
com.schriftgestaltung.Glyphs.glyph.leftMetricsKey = H;
com.schriftgestaltung.Glyphs.glyph.rightMetricsKey = H;
};
width = 618;
}
);
metricLeft = H;
metricRight = H;
unicode = 77;
}
{
glyphname = N;
kernLeft = H;
kernRight = H;
layers = (
{
anchors = (
{
name = bottom;
pos = (309,0);
},
{
name = top;
pos = (309,729);
}
);
background = {
shapes = (
{
closed = 1;
nodes = (
(59,0,l),
(59,436,l),
(56,686,l),
(61,686,l),
(542,0,l),
(597,0,l),
(597,729,l),
(559,729,l),
(559,303,l),
(563,43,l),
(558,43,l),
(76,729,l),
(21,729,l),
(21,0,l)
);
}
);
};
layerId = m019;
shapes = (
{
closed = 1;
nodes = (
(153,0,l),
(153,432,l),
(151,672,l),
(154,672,l),
(452,0,l),
(503,0,l),
(503,729,l),
(465,729,l),
(465,308,l),
(468,58,l),
(464,58,l),
(167,729,l),
(115,729,l),
(115,0,l)
);
}
);
userData = {
com.schriftgestaltung.Glyphs.glyph.leftMetricsKey = H;
com.schriftgestaltung.Glyphs.glyph.rightMetricsKey = H;
com.schriftgestaltung.hints = (
{
horizontal = 1;
options = 0;
origin = (
0,
10
);
stem = -2;
target = (
0,
13
);
type = Stem;
},
{
horizontal = 1;
options = 0;
origin = (
0,
12
);
stem = -2;
target = (
0,
2
);
type = Stem;
},
{
horizontal = 0;
options = 0;
origin = (
0,
13
);
stem = -2;
target = (
0,
0
);
type = Stem;
},
{
horizontal = 0;
options = 0;
origin = (
0,
8
);
stem = -2;
target = (
0,
5
);
type = Stem;
}
);
};
width = 618;
},
{
anchors = (
{
name = bottom;
pos = (309,0);
},
{
name = top;
pos = (309,729);
}
);
background = {
shapes = (
{
closed = 1;
nodes = (
(180,0,l),
(180,236,l),
(175,431,l),
(183,431,l),
(420,0,l),
(645,0,l),
(645,729,l),
(450,729,l),
(450,504,l),
(457,282,l),
(449,282,l),
(212,729,l),
(-27,729,l),
(-27,0,l)
);
}
);
};
layerId = m020;
shapes = (
{
closed = 1;
nodes = (
(250,0,l),
(250,176,l),
(247,371,l),
(263,371,l),
(378,0,l),
(558,0,l),
(558,729,l),
(381,729,l),
(381,564,l),
(383,349,l),
(367,349,l),
(255,729,l),
(60,729,l),
(60,0,l)
);
}
);
userData = {
com.schriftgestaltung.Glyphs.glyph.leftMetricsKey = H;
com.schriftgestaltung.Glyphs.glyph.rightMetricsKey = H;
};
width = 618;
}
);
metricLeft = H;
metricRight = H;
unicode = 78;
}
{
glyphname = O;
kernLeft = O;
kernRight = O;
layers = (
{
anchors = (
{
name = bottom;
pos = (309,0);
},
{
name = center;
pos = (309,365);
},
{
name = ogonek;
pos = (542,10);
},
{
name = top;
pos = (309,729);
},
{
name = topleft;
pos = (31,729);
},
{
name = topright;
pos = (432,699);
}
);
layerId = m019;
shapes = (
{
closed = 1;
nodes = (
(464,-8,o),
(568,140,o),
(568,364,cs),
(568,587,o),
(466,736,o),
(309,736,cs),
(153,736,o),
(50,588,o),
(50,364,cs),
(50,142,o),
(152,-8,o),
(309,-8,cs)
);
},
{
closed = 1;
nodes = (
(175,28,o),
(92,164,o),
(92,364,cs),
(92,564,o),
(174,700,o),
(309,700,cs),
(443,700,o),
(526,565,o),
(526,364,cs),
(526,164,o),
(443,28,o),
(309,28,cs)
);
}
);
userData = {
com.schriftgestaltung.hints = (
{
horizontal = 1;
options = 0;
place = (
0,
0
);
stem = -2;
type = Stem;
},
{
horizontal = 1;
options = 0;
origin = (
0,
8
);
stem = -2;
target = (
1,
2
);
type = Stem;
},
{
horizontal = 0;
options = 0;
place = (
0,
0
);
stem = -2;
type = Stem;
},
{
horizontal = 0;
options = 0;
origin = (
1,
5
);
stem = -2;
target = (
0,
5
);
type = Stem;
}
);
};
width = 618;
},
{
anchors = (
{
name = bottom;
pos = (310,0);
},
{
name = center;
pos = (310,365);
},
{
name = ogonek;
pos = (556,10);
},
{
name = top;
pos = (310,729);
},
{
name = topleft;
pos = (16,729);
},
{
name = topright;
pos = (427,709);
}
);
background = {
shapes = (
{
closed = 1;
nodes = (
(534,-10,o),
(683,121,o),
(683,365,cs),
(683,608,o),
(534,739,o),
(310,739,cs),
(86,739,o),
(-63,608,o),
(-63,365,cs),
(-63,121,o),
(86,-10,o),
(310,-10,cs)
);
},
{
closed = 1;
nodes = (
(214,166,o),
(150,222,o),
(150,365,cs),
(150,507,o),
(214,563,o),
(310,563,cs),
(406,563,o),
(470,507,o),
(470,365,cs),
(470,222,o),
(406,166,o),
(310,166,cs)
);
}
);
};
layerId = m020;
shapes = (
{
closed = 1;
nodes = (
(483,-10,o),
(599,122,o),
(599,365,cs),
(599,607,o),
(482,739,o),
(309,739,cs),
(136,739,o),
(20,607,o),
(20,365,cs),
(20,122,o),
(137,-10,o),
(309,-10,cs)
);
},
{
closed = 1;
nodes = (
(264,162,o),
(230,220,o),
(230,365,cs),
(230,509,o),
(264,567,o),
(309,567,cs),
(355,567,o),
(389,509,o),
(389,365,cs),
(389,221,o),
(355,162,o),
(309,162,cs)
);
}
);
width = 619;
}
);
metricRight = "=|";
unicode = 79;
userData = {
KernOnName = O;
};
}
{
glyphname = P;
kernLeft = H;
kernRight = P;
layers = (
{
anchors = (
{
name = bottom;
pos = (299,0);
},
{
name = top;
pos = (299,729);
}
);
layerId = m019;
shapes = (
{
closed = 1;
nodes = (
(139,0,l),
(139,704,l),
(126,692,l),
(338,692,ls),
(455,692,o),
(521,623,o),
(521,509,cs),
(521,398,o),
(457,325,o),
(338,325,cs),
(130,325,l),
(130,289,l),
(340,289,ls),
(475,289,o),
(562,375,o),
(562,509,cs),
(562,649,o),
(477,729,o),
(341,729,cs),
(100,729,l),
(100,0,l)
);
}
);
userData = {
com.schriftgestaltung.hints = (
{
horizontal = 1;
options = 0;
origin = (
0,
10
);
stem = -2;
target = (
u,
p
);
type = BottomGhost;
},
{
horizontal = 1;
options = 0;
place = (
0,
0
);
stem = -2;
type = Stem;
},
{
horizontal = 1;
options = 0;
origin = (
0,
9
);
stem = -2;
target = (
1,
0
);
type = Stem;
},
{
horizontal = 0;
options = 0;
origin = (
0,
10
);
stem = -2;
target = (
0,
0
);
type = Stem;
},
{
horizontal = 0;
options = 0;
origin = (
1,
4
);
stem = -2;
target = (
0,
5
);
type = Stem;
}
);
};
width = 619;
},
{
anchors = (
{
name = bottom;
pos = (305,0);
},
{
name = top;
pos = (305,729);
}
);
background = {
shapes = (
{
closed = 1;
nodes = (
(232,0,l),
(232,583,l),
(210,559,l),
(324,559,ls),
(367,559,o),
(421,549,o),
(421,474,cs),
(421,396,o),
(367,387,o),
(324,387,cs),
(216,387,l),
(216,232,l),
(360,232,ls),
(531,232,o),
(627,334,o),
(627,482,cs),
(627,639,o),
(521,729,o),
(360,729,cs),
(29,729,l),
(29,0,l)
);
}
);
};
layerId = m020;
shapes = (
{
closed = 1;
nodes = (
(254,0,l),
(254,581,l),
(233,559,l),
(319,559,ls),
(360,559,o),
(393,538,o),
(393,475,cs),
(393,425,o),
(374,387,o),
(319,387,cs),
(239,387,l),
(239,222,l),
(336,222,ls),
(494,222,o),
(600,316,o),
(600,477,cs),
(600,630,o),
(517,729,o),
(336,729,cs),
(50,729,l),
(50,0,l)
);
}
);
width = 619;
}
);
metricLeft = H;
unicode = 80;
userData = {
KernOnName = P;
};
}
{
color = 7;
glyphname = Q;
kernLeft = O;
kernRight = Q;
layers = (
{
anchors = (
{
name = bottom;
pos = (309,0);
},
{
name = center;
pos = (309,365);
},
{
name = ogonek;
pos = (542,10);
},
{
name = top;
pos = (309,729);
},
{
name = topleft;
pos = (31,729);
},
{
name = topright;
pos = (432,699);
}
);
layerId = m019;
shapes = (
{
closed = 1;
nodes = (
(414,14,l),
(414,30,l),
(482,51,o),
(568,189,o),
(568,364,cs),
(568,587,o),
(466,736,o),
(309,736,cs),
(153,736,o),
(50,588,o),
(50,364,cs),
(50,142,o),
(152,-8,o),
(309,-8,c)
);
},
{
closed = 1;
nodes = (
(570,-2,l),
(570,32,l),
(478,30,l),
(308,10,l),
(308,-8,l)
);
},
{
closed = 1;
nodes = (
(175,28,o),
(92,164,o),
(92,364,cs),
(92,564,o),
(174,700,o),
(309,700,cs),
(443,700,o),
(526,565,o),
(526,364,cs),
(526,164,o),
(443,28,o),
(309,28,cs)
);
}
);
userData = {
com.schriftgestaltung.Glyphs.glyph.leftMetricsKey = O;
com.schriftgestaltung.Glyphs.glyph.rightMetricsKey = O;
com.schriftgestaltung.hints = (
{
horizontal = 1;
options = 0;
origin = (
0,
15
);
stem = -2;
target = (
u,
p
);
type = BottomGhost;
},
{
horizontal = 1;
options = 0;
origin = (
1,
11
);
stem = -2;
target = (
0,
14
);
type = Stem;
},
{
horizontal = 1;
options = 0;
origin = (
0,
8
);
stem = -2;
target = (
1,
5
);
type = Stem;
},
{
horizontal = 0;
options = 0;
origin = (
0,
11
);
stem = -2;
target = (
1,
2
);
type = Stem;
},
{
horizontal = 0;
options = 0;
origin = (
1,
8
);
stem = -2;
target = (
0,
5
);
type = Stem;
}
);
};
width = 618;
},
{
anchors = (
{
name = bottom;
pos = (310,0);
},
{
name = center;
pos = (310,365);
},
{
name = ogonek;
pos = (556,10);
},
{
name = top;
pos = (310,729);
},
{
name = topleft;
pos = (16,729);
},
{
name = topright;
pos = (427,709);
}
);
layerId = m020;
shapes = (
{
closed = 1;
nodes = (
(465,-3,l),
(459,133,l),
(543,184,o),
(599,264,o),
(599,385,cs),
(599,604,o),
(491,739,o),
(309,739,cs),
(127,739,o),
(20,600,o),
(20,365,cs),
(20,122,o),
(137,-10,o),
(309,-10,c)
);
},
{
closed = 1;
nodes = (
(587,0,l),
(587,155,l),
(561,155,l),
(308,68,l),
(309,-10,l)
);
},
{
closed = 1;
nodes = (
(264,162,o),
(230,220,o),
(230,365,cs),
(230,509,o),
(264,567,o),
(309,567,cs),
(355,567,o),
(389,509,o),
(389,365,cs),
(389,221,o),
(355,162,o),
(309,162,cs)
);
}
);
userData = {
com.schriftgestaltung.Glyphs.glyph.leftMetricsKey = O;
com.schriftgestaltung.Glyphs.glyph.rightMetricsKey = O;
};
width = 619;
}
);
metricLeft = O;
unicode = 81;
}
{
glyphname = R;
kernLeft = H;
kernRight = R;
layers = (
{
anchors = (
{
name = bottom;
pos = (305,0);
},
{
name = top;
pos = (297,729);
}
);
background = {
shapes = (
{
closed = 1;
nodes = (
(95,0,l),
(95,336,l),
(377,336,ls),
(503,336,o),
(534,291,o),
(534,200,cs),
(534,77,ls),
(534,45,o),
(535,22,o),
(545,0,c),
(584,0,l),
(573,26,o),
(573,50,o),
(573,73,cs),
(573,207,ls),
(573,291,o),
(543,341,o),
(457,354,c),
(457,361,l),
(545,386,o),
(588,450,o),
(588,540,cs),
(588,660,o),
(509,729,o),
(367,729,cs),
(57,729,l),
(57,0,l)
);
},
{
closed = 1;
nodes = (
(95,693,l),
(363,693,ls),
(475,693,o),
(549,645,o),
(549,536,cs),
(549,439,o),
(496,371,o),
(363,371,cs),
(95,371,l)
);
}
);
};
layerId = m019;
shapes = (
{
closed = 1;
nodes = (
(141,0,l),
(141,693,l),
(352,693,ls),
(440,693,o),
(498,645,o),
(498,536,cs),
(498,439,o),
(456,371,o),
(352,371,cs),
(133,371,l),
(133,336,l),
(363,336,ls),
(461,336,o),
(485,291,o),
(485,200,cs),
(485,77,ls),
(485,44,o),
(486,22,o),
(494,0,c),
(535,0,l),
(525,26,o),
(525,50,o),
(525,73,cs),
(525,207,ls),
(525,291,o),
(501,341,o),
(432,355,c),
(432,360,l),
(503,385,o),
(538,449,o),
(538,540,cs),
(538,660,o),
(472,729,o),
(357,729,cs),
(102,729,l),
(102,0,l)
);
}
);
userData = {
com.schriftgestaltung.Glyphs.glyph.leftMetricsKey = H;
com.schriftgestaltung.hints = (
{
horizontal = 1;
options = 0;
origin = (
0,
26
);
stem = -2;
target = (
u,
p
);
type = BottomGhost;
},
{
horizontal = 1;
options = 0;
origin = (
1,
8
);
stem = -2;
target = (
0,
1
);
type = Stem;
},
{
horizontal = 1;
options = 0;
origin = (
0,
25
);
stem = -2;
target = (
1,
0
);
type = Stem;
},
{
horizontal = 0;
options = 0;
origin = (
0,
26
);
stem = -2;
target = (
0,
0
);
type = Stem;
},
{
horizontal = 0;
options = 0;
origin = (
0,
6
);
stem = -2;
target = (
0,
13
);
type = Stem;
},
{
horizontal = 0;
options = 0;
origin = (
1,
4
);
stem = -2;
target = (
0,
21
);
type = Stem;
}
);
};
width = 619;
},
{
anchors = (
{
name = bottom;
pos = (305,0);
},
{
name = top;
pos = (292,729);
}
);
background = {
shapes = (
{
closed = 1;
nodes = (
(202,0,l),
(202,246,l),
(332,246,ls),
(405,246,o),
(425,215,o),
(425,166,cs),
(425,86,ls),
(425,48,o),
(429,16,o),
(437,0,c),
(641,0,l),
(628,29,o),
(628,59,o),
(628,87,cs),
(628,201,ls),
(628,281,o),
(591,323,o),
(522,338,c),
(522,345,l),
(597,362,o),
(647,430,o),
(647,514,cs),
(647,653,o),
(561,729,o),
(379,729,cs),
(-1,729,l),
(-1,0,l)
);
},
{
closed = 1;
nodes = (
(202,563,l),
(349,563,ls),
(401,563,o),
(439,544,o),
(439,486,cs),
(439,440,o),
(414,405,o),
(349,405,cs),
(202,405,l)
);
}
);
};
layerId = m020;
shapes = (
{
closed = 1;
nodes = (
(260,0,l),
(260,563,l),
(330,563,ls),
(350,563,o),
(369,544,o),
(369,486,cs),
(369,440,o),
(358,405,o),
(330,405,cs),
(246,405,l),
(246,246,l),
(312,246,ls),
(351,246,o),
(362,215,o),
(362,166,cs),
(362,86,ls),
(362,48,o),
(366,17,o),
(372,0,c),
(578,0,l),
(568,29,o),
(568,59,o),
(568,87,cs),
(568,201,ls),
(568,282,o),
(537,326,o),
(475,341,c),
(475,348,l),
(535,369,o),
(579,435,o),
(579,524,cs),
(579,663,o),
(498,729,o),
(383,729,cs),
(55,729,l),
(55,0,l)
);
}
);
userData = {
com.schriftgestaltung.Glyphs.glyph.leftMetricsKey = H;
};
width = 618;
}
);
metricLeft = H;
unicode = 82;
}
{
glyphname = S;
kernLeft = S;
kernRight = S;
layers = (
{
anchors = (
{
name = bottom;
pos = (312,0);
},
{
name = top;
pos = (301,729);
}
);
background = {
shapes = (
{
closed = 1;
nodes = (
(470,-8,o),
(576,69,o),
(576,195,cs),
(576,340,o),
(450,372,o),
(388,385,cs),
(272,408,ls),
(210,420,o),
(100,448,o),
(100,555,cs),
(100,646,o),
(179,703,o),
(300,703,cs),
(431,703,o),
(507,641,o),
(511,529,c),
(551,529,l),
(548,654,o),
(465,737,o),
(304,737,cs),
(157,737,o),
(60,664,o),
(60,550,cs),
(60,419,o),
(186,387,o),
(266,370,cs),
(384,345,ls),
(433,335,o),
(536,313,o),
(536,193,cs),
(536,93,o),
(448,26,o),
(311,26,cs),
(157,26,o),
(87,102,o),
(83,225,c),
(42,225,l),
(45,90,o),
(126,-8,o),
(313,-8,cs)
);
}
);
};
layerId = m019;
shapes = (
{
closed = 1;
nodes = (
(458,-8,o),
(541,69,o),
(541,185,cs),
(541,340,o),
(442,372,o),
(326,397,cs),
(186,427,o),
(133,453,o),
(133,555,cs),
(133,644,o),
(195,703,o),
(301,703,cs),
(412,703,o),
(475,641,o),
(479,529,c),
(519,529,l),
(516,654,o),
(444,737,o),
(305,737,cs),
(170,737,o),
(91,662,o),
(91,550,cs),
(91,427,o),
(165,391,o),
(309,360,cs),
(444,331,o),
(500,294,o),
(500,183,cs),
(500,76,o),
(424,26,o),
(310,26,cs),
(180,26,o),
(122,101,o),
(118,225,c),
(76,225,l),
(79,90,o),
(149,-8,o),
(312,-8,cs)
);
}
);
userData = {
com.schriftgestaltung.hints = (
{
horizontal = 1;
options = 0;
origin = (
0,
32
);
stem = -2;
target = (
0,
39
);
type = Stem;
},
{
horizontal = 1;
options = 0;
origin = (
0,
19
);
stem = -2;
target = (
0,
12
);
type = Stem;
},
{
horizontal = 0;
options = 0;
origin = (
0,
22
);
stem = -2;
target = (
0,
9
);
type = Stem;
},
{
horizontal = 0;
options = 0;
origin = (
0,
29
);
stem = -2;
target = (
0,
2
);
type = Stem;
}
);
};
width = 618;
},
{
anchors = (
{
name = bottom;
pos = (311,0);
},
{
name = top;
pos = (312,729);
}
);
background = {
shapes = (
{
closed = 1;
nodes = (
(523,-10,o),
(626,87,o),
(626,224,cs),
(626,410,o),
(493,441,o),
(375,458,cs),
(264,475,o),
(224,478,o),
(224,528,cs),
(224,563,o),
(257,584,o),
(307,584,cs),
(349,584,o),
(393,570,o),
(396,518,c),
(605,518,l),
(605,650,o),
(487,738,o),
(312,738,cs),
(125,738,o),
(9,650,o),
(9,501,cs),
(9,358,o),
(115,301,o),
(264,279,cs),
(376,262,o),
(410,257,o),
(410,203,cs),
(410,166,o),
(374,147,o),
(319,147,cs),
(237,147,o),
(205,181,o),
(205,231,c),
(-6,231,l),
(-6,86,o),
(106,-10,o),
(309,-10,cs)
);
}
);
};
layerId = m020;
shapes = (
{
closed = 1;
nodes = (
(503,-10,o),
(598,86,o),
(598,223,cs),
(598,357,o),
(529,431,o),
(375,456,cs),
(261,475,o),
(237,492,o),
(237,529,cs),
(237,567,o),
(264,587,o),
(302,587,cs),
(346,587,o),
(375,560,o),
(377,518,c),
(580,518,l),
(578,649,o),
(470,738,o),
(311,738,cs),
(139,738,o),
(32,650,o),
(32,502,cs),
(32,378,o),
(105,308,o),
(261,281,cs),
(366,263,o),
(389,251,o),
(389,205,cs),
(389,167,o),
(363,144,o),
(318,144,cs),
(260,144,o),
(225,176,o),
(224,231,c),
(21,231,l),
(21,86,o),
(124,-10,o),
(307,-10,cs)
);
}
);
width = 618;
}
);
unicode = 83;
userData = {
KernOnName = S;
};
}
{
glyphname = T;
kernLeft = T;
kernRight = T;
layers = (
{
anchors = (
{
name = bottom;
pos = (309,0);
},
{
name = center;
pos = (309,365);
},
{
name = top;
pos = (309,729);
}
);
layerId = m019;
shapes = (
{
closed = 1;
nodes = (
(328,0,l),
(328,703,l),
(290,703,l),
(290,0,l)
);
},
{
closed = 1;
nodes = (
(573,693,l),
(573,729,l),
(45,729,l),
(45,693,l)
);
}
);
userData = {
com.schriftgestaltung.hints = (
{
horizontal = 1;
options = 0;
origin = (
0,
7
);
stem = -2;
target = (
u,
p
);
type = BottomGhost;
},
{
horizontal = 1;
options = 0;
origin = (
0,
4
);
stem = -2;
target = (
0,
5
);
type = Stem;
},
{
horizontal = 0;
options = 0;
origin = (
0,
7
);
stem = -2;
target = (
0,
0
);
type = Stem;
}
);
};
width = 618;
},
{
anchors = (
{
name = bottom;
pos = (309,0);
},
{
name = center;
pos = (306,324);
},
{
name = top;
pos = (309,729);
}
);
layerId = m020;
shapes = (
{
closed = 1;
nodes = (
(411,0,l),
(411,571,l),
(207,571,l),
(207,0,l)
);
},
{
closed = 1;
nodes = (
(598,555,l),
(598,729,l),
(20,729,l),
(20,555,l)
);
}
);
width = 618;
}
);
unicode = 84;
userData = {
KernOnName = T;
};
}
{
glyphname = U;
kernLeft = U;
kernRight = U;
layers = (
{
anchors = (
{
name = bottom;
pos = (309,0);
},
{
name = ogonek;
pos = (385,0);
},
{
name = top;
pos = (309,729);
},
{
name = topright;
pos = (476,729);
}
);
layerId = m019;
shapes = (
{
closed = 1;
nodes = (
(440,-8,o),
(513,79,o),
(513,210,cs),
(513,729,l),
(475,729,l),
(475,214,ls),
(475,102,o),
(421,29,o),
(309,29,cs),
(208,29,o),
(143,89,o),
(143,214,cs),
(143,729,l),
(105,729,l),
(105,210,ls),
(105,72,o),
(183,-8,o),
(309,-8,cs)
);
}
);
userData = {
com.schriftgestaltung.hints = (
{
horizontal = 1;
options = 0;
origin = (
0,
8
);
stem = -2;
target = (
0,
17
);
type = Stem;
},
{
horizontal = 1;
options = 0;
origin = (
0,
13
);
stem = -2;
target = (
d,
o,
w,
n
);
type = TopGhost;
},
{
horizontal = 0;
options = 0;
origin = (
0,
14
);
stem = -2;
target = (
0,
11
);
type = Stem;
},
{
horizontal = 0;
options = 0;
origin = (
0,
5
);
stem = -2;
target = (
0,
2
);
type = Stem;
}
);
};
width = 618;
},
{
anchors = (
{
name = bottom;
pos = (309,0);
},
{
name = ogonek;
pos = (431,0);
},
{
name = top;
pos = (309,729);
},
{
name = topright;
pos = (402,729);
}
);
layerId = m020;
shapes = (
{
closed = 1;
nodes = (
(462,-10,o),
(568,78,o),
(568,234,cs),
(568,729,l),
(365,729,l),
(365,240,ls),
(365,198,o),
(344,176,o),
(309,176,cs),
(273,176,o),
(253,199,o),
(253,240,cs),
(253,729,l),
(50,729,l),
(50,234,ls),
(50,88,o),
(143,-10,o),
(307,-10,cs)
);
}
);
width = 618;
}
);
unicode = 85;
}
{
glyphname = V;
kernLeft = V;
kernRight = V;
layers = (
{
anchors = (
{
name = bottom;
pos = (309,0);
},
{
name = top;
pos = (309,729);
}
);
background = {
shapes = (
{
closed = 1;
nodes = (
(336,0,l),
(619,729,l),
(579,729,l),
(350,135,l),
(312,35,l),
(306,35,l),
(268,135,l),
(41,729,l),
(-1,729,l),
(282,0,l)
);
}
);
};
layerId = m019;
shapes = (
{
closed = 1;
nodes = (
(334,0,l),
(570,729,l),
(531,729,l),
(365,213,l),
(314,36,l),
(304,36,l),
(255,210,l),
(88,729,l),
(50,729,l),
(285,0,l)
);
}
);
userData = {
com.schriftgestaltung.hints = (
{
horizontal = 1;
options = 0;
origin = (
0,
4
);
stem = -2;
target = (
0,
7
);
type = Stem;
},
{
horizontal = 1;
options = 0;
origin = (
0,
6
);
stem = -2;
target = (
d,
o,
w,
n
);
type = TopGhost;
}
);
};
width = 618;
},
{
anchors = (
{
name = bottom;
pos = (309,0);
},
{
name = top;
pos = (309,729);
}
);
background = {
shapes = (
{
closed = 1;
nodes = (
(446,0,l),
(688,729,l),
(461,729,l),
(352,336,l),
(313,193,l),
(305,193,l),
(265,337,l),
(157,729,l),
(-70,729,l),
(173,0,l)
);
}
);
};
layerId = m020;
shapes = (
{
closed = 1;
nodes = (
(437,0,l),
(613,729,l),
(406,729,l),
(329,344,l),
(316,251,l),
(303,251,l),
(289,344,l),
(211,729,l),
(4,729,l),
(182,0,l)
);
}
);
width = 618;
}
);
unicode = 86;
userData = {
KernOnName = V;
};
}
{
glyphname = W;
kernLeft = W;
kernRight = W;
layers = (
{
anchors = (
{
name = bottom;
pos = (309,0);
},
{
name = top;
pos = (309,729);
}
);
background = {
shapes = (
{
closed = 1;
nodes = (
(95,0,l),
(306,692,l),
(311,692,l),
(522,0,l),
(579,0,l),
(751,729,l),
(710,729,l),
(603,271,l),
(552,42,l),
(546,42,l),
(337,729,l),
(281,729,l),
(72,43,l),
(67,43,l),
(15,270,l),
(-92,729,l),
(-133,729,l),
(39,0,l)
);
}
);
};
layerId = m019;
shapes = (
{
closed = 1;
nodes = (
(187,0,l),
(266,403,l),
(307,608,l),
(311,608,l),
(352,403,l),
(431,0,l),
(486,0,l),
(604,729,l),
(565,729,l),
(488,218,l),
(457,29,l),
(453,29,l),
(424,218,l),
(340,640,l),
(278,640,l),
(194,218,l),
(165,29,l),
(161,29,l),
(130,218,l),
(53,729,l),
(14,729,l),
(132,0,l)
);
}
);
userData = {
com.schriftgestaltung.hints = (
{
horizontal = 1;
options = 0;
origin = (
0,
13
);
stem = -2;
target = (
0,
17
);
type = Stem;
},
{
horizontal = 1;
options = 0;
origin = (
0,
16
);
stem = -2;
target = (
0,
1
);
type = Stem;
}
);
};
width = 618;
},
{
anchors = (
{
name = bottom;
pos = (309,0);
},
{
name = top;
pos = (309,729);
}
);
background = {
shapes = (
{
closed = 1;
nodes = (
(226,0,l),
(306,450,l),
(314,450,l),
(391,0,l),
(667,0,l),
(815,729,l),
(591,729,l),
(543,397,l),
(522,219,l),
(514,219,l),
(433,729,l),
(187,729,l),
(110,221,l),
(101,221,l),
(77,400,l),
(26,729,l),
(-198,729,l),
(-50,0,l)
);
}
);
};
layerId = m020;
shapes = (
{
closed = 1;
nodes = (
(264,0,l),
(290,228,l),
(302,400,l),
(317,400,l),
(328,228,l),
(353,0,l),
(531,0,l),
(618,729,l),
(441,729,l),
(433,404,l),
(429,189,l),
(414,189,l),
(396,355,l),
(364,610,l),
(254,610,l),
(223,338,l),
(207,191,l),
(192,191,l),
(187,385,l),
(176,729,l),
(0,729,l),
(86,0,l)
);
}
);
width = 618;
}
);
unicode = 87;
}
{
glyphname = X;
kernLeft = X;
kernRight = X;
layers = (
{
anchors = (
{
name = bottom;
pos = (308,0);
},
{
name = top;
pos = (308,729);
}
);
background = {
shapes = (
{
closed = 1;
nodes = (
(49,0,l),
(307,368,l),
(309,368,l),
(567,0,l),
(613,0,l),
(335,397,l),
(568,729,l),
(525,729,l),
(310,422,l),
(307,422,l),
(92,729,l),
(49,729,l),
(282,396,l),
(4,0,l)
);
}
);
};
layerId = m019;
shapes = (
{
closed = 1;
nodes = (
(66,0,l),
(222,236,l),
(303,368,l),
(313,368,l),
(393,236,l),
(549,0,l),
(594,0,l),
(334,397,l),
(555,729,l),
(514,729,l),
(380,531,l),
(313,422,l),
(303,422,l),
(238,531,l),
(105,729,l),
(62,729,l),
(283,396,l),
(24,0,l)
);
}
);
userData = {
com.schriftgestaltung.hints = (
{
horizontal = 1;
options = 0;
place = (
0,
21
);
stem = -2;
target = (
u,
p
);
type = BottomGhost;
},
{
horizontal = 1;
options = 0;
place = (
0,
-20
);
stem = -2;
target = (
d,
o,
w,
n
);
type = TopGhost;
}
);
};
width = 618;
},
{
anchors = (
{
name = bottom;
pos = (310,0);
},
{
name = top;
pos = (310,729);
}
);
background = {
shapes = (
{
closed = 1;
nodes = (
(150,0,l),
(304,243,l),
(309,243,l),
(463,0,l),
(703,0,l),
(442,389,l),
(676,729,l),
(437,729,l),
(309,518,l),
(304,518,l),
(176,729,l),
(-63,729,l),
(176,388,l),
(-85,0,l)
);
}
);
};
layerId = m020;
shapes = (
{
closed = 1;
nodes = (
(208,0,l),
(273,134,l),
(301,223,l),
(314,223,l),
(343,134,l),
(405,0,l),
(619,0,l),
(417,398,l),
(598,729,l),
(387,729,l),
(336,618,l),
(314,537,l),
(301,537,l),
(279,618,l),
(227,729,l),
(16,729,l),
(201,397,l),
(-1,0,l)
);
}
);
width = 618;
}
);
unicode = 88;
}
{
glyphname = Y;
kernLeft = Y;
kernRight = Y;
layers = (
{
anchors = (
{
name = bottom;
pos = (310,0);
},
{
name = top;
pos = (310,729);
},
{
name = topleft;
pos = (46,729);
}
);
background = {
shapes = (
{
closed = 1;
nodes = (
(327,0,l),
(327,300,l),
(599,729,l),
(556,729,l),
(311,337,l),
(307,337,l),
(63,729,l),
(19,729,l),
(289,300,l),
(289,0,l)
);
}
);
};
layerId = m019;
shapes = (
{
closed = 1;
nodes = (
(327,0,l),
(327,300,l),
(587,729,l),
(542,729,l),
(412,513,l),
(313,337,l),
(304,337,l),
(206,513,l),
(77,729,l),
(32,729,l),
(290,300,l),
(290,0,l)
);
}
);
userData = {
com.schriftgestaltung.hints = (
{
horizontal = 1;
options = 0;
origin = (
0,
9
);
stem = -2;
target = (
u,
p
);
type = BottomGhost;
},
{
horizontal = 1;
options = 0;
origin = (
0,
7
);
stem = -2;
target = (
d,
o,
w,
n
);
type = TopGhost;
},
{
horizontal = 0;
options = 0;
origin = (
0,
9
);
stem = -2;
target = (
0,
0
);
type = Stem;
}
);
};
width = 618;
},
{
anchors = (
{
name = bottom;
pos = (310,0);
},
{
name = top;
pos = (310,729);
},
{
name = topleft;
pos = (-43,729);
}
);
background = {
shapes = (
{
closed = 1;
nodes = (
(410,0,l),
(410,269,l),
(681,729,l),
(451,729,l),
(312,467,l),
(304,467,l),
(168,729,l),
(-63,729,l),
(207,269,l),
(207,0,l)
);
}
);
};
layerId = m020;
shapes = (
{
closed = 1;
nodes = (
(411,0,l),
(412,305,l),
(618,729,l),
(408,729,l),
(346,579,l),
(314,470,l),
(302,470,l),
(271,579,l),
(210,729,l),
(0,729,l),
(206,300,l),
(206,0,l)
);
}
);
width = 618;
}
);
unicode = 89;
userData = {
KernOnName = Y;
};
}
{
glyphname = Z;
kernLeft = Z;
kernRight = Z;
layers = (
{
anchors = (
{
name = bottom;
pos = (308,0);
},
{
name = center;
pos = (308,365);
},
{
name = top;
pos = (308,729);
}
);
layerId = m019;
shapes = (
{
closed = 1;
nodes = (
(579,0,l),
(579,37,l),
(91,37,l),
(567,701,l),
(567,729,l),
(54,729,l),
(54,693,l),
(515,693,l),
(39,29,l),
(39,0,l)
);
}
);
userData = {
com.schriftgestaltung.hints = (
{
horizontal = 1;
options = 0;
origin = (
0,
2
);
stem = -2;
target = (
0,
9
);
type = Stem;
},
{
horizontal = 1;
options = 0;
origin = (
0,
5
);
stem = -2;
target = (
0,
6
);
type = Stem;
}
);
};
width = 618;
},
{
anchors = (
{
name = bottom;
pos = (309,0);
},
{
name = center;
pos = (309,365);
},
{
name = top;
pos = (309,729);
}
);
layerId = m020;
shapes = (
{
closed = 1;
nodes = (
(598,0,l),
(598,172,l),
(264,172,l),
(589,554,l),
(589,729,l),
(36,729,l),
(36,556,l),
(340,556,l),
(18,173,l),
(18,0,l)
);
}
);
width = 618;
}
);
unicode = 90;
userData = {
KernOnName = Z;
};
}
{
glyphname = bracketleft;
kernRight = bracketleft;
layers = (
{
layerId = m019;
shapes = (
{
closed = 1;
nodes = (
(472,-167,l),
(472,-135,l),
(205,-135,l),
(205,761,l),
(472,761,l),
(472,793,l),
(169,793,l),
(169,-167,l)
);
}
);
userData = {
com.schriftgestaltung.hints = (
{
horizontal = 1;
options = 0;
origin = (
0,
2
);
stem = -2;
target = (
0,
7
);
type = Stem;
},
{
horizontal = 1;
options = 0;
origin = (
0,
6
);
stem = -2;
target = (
0,
3
);
type = Stem;
},
{
horizontal = 0;
options = 0;
origin = (
0,
7
);
stem = -2;
target = (
0,
2
);
type = Stem;
}
);
};
width = 619;
},
{
layerId = m020;
shapes = (
{
closed = 1;
nodes = (
(516,-167,l),
(516,-24,l),
(326,-24,l),
(326,649,l),
(516,649,l),
(516,793,l),
(148,793,l),
(148,-167,l)
);
}
);
width = 619;
}
);
unicode = 91;
userData = {
KernOnName = bracketleft;
KernOnSpecialSpacing = {
L = NoKerning;
R = parenthesis;
};
};
}
{
glyphname = backslash;
layers = (
{
layerId = m019;
shapes = (
{
closed = 1;
nodes = (
(491,-81,l),
(164,729,l),
(128,729,l),
(452,-81,l)
);
}
);
userData = {
com.schriftgestaltung.hints = (
{
horizontal = 1;
options = 0;
origin = (
0,
3
);
stem = -2;
target = (
u,
p
);
type = BottomGhost;
},
{
horizontal = 1;
options = 0;
origin = (
0,
2
);
stem = -2;
target = (
d,
o,
w,
n
);
type = TopGhost;
}
);
};
width = 619;
},
{
layerId = m020;
shapes = (
{
closed = 1;
nodes = (
(544,-82,l),
(257,729,l),
(74,729,l),
(363,-82,l)
);
}
);
width = 618;
}
);
unicode = 92;
userData = {
KernOnSpecialSpacing = {
L = slash;
R = slash;
};
};
}
{
glyphname = asciicircum;
kernLeft = asciicircum;
kernRight = asciicircum;
layers = (
{
layerId = m019;
shapes = (
{
closed = 1;
nodes = (
(137,435,l),
(318,705,l),
(301,705,l),
(479,435,l),
(520,435,l),
(326,729,l),
(291,729,l),
(97,435,l)
);
}
);
userData = {
com.schriftgestaltung.hints = (
{
horizontal = 1;
options = 0;
origin = (
0,
2
);
stem = -2;
target = (
d,
o,
w,
n
);
type = TopGhost;
},
{
horizontal = 1;
options = 0;
origin = (
0,
2
);
stem = -2;
target = (
0,
5
);
type = Stem;
}
);
};
width = 618;
},
{
layerId = m020;
shapes = (
{
closed = 1;
nodes = (
(218,448,l),
(356,659,l),
(267,660,l),
(402,448,l),
(586,448,l),
(410,729,l),
(211,729,l),
(34,448,l)
);
}
);
width = 618;
}
);
metricWidth = zero.tf;
unicode = 94;
userData = {
KernOnSpecialSpacing = {
L = math;
R = math;
};
};
}
{
glyphname = underscore;
kernLeft = underscore;
layers = (
{
layerId = m019;
shapes = (
{
closed = 1;
nodes = (
(474,-33,l),
(474,0,l),
(144,0,l),
(144,-33,l)
);
}
);
width = 618;
},
{
layerId = m020;
shapes = (
{
closed = 1;
nodes = (
(511,-160,l),
(511,0,l),
(107,0,l),
(107,-160,l)
);
}
);
width = 618;
}
);
unicode = 95;
userData = {
KernOnName = underscore;
KernOnSpecialSpacing = {
L = underscore;
R = underscore;
};
};
}
{
glyphname = b;
kernLeft = l;
kernRight = p;
layers = (
{
anchors = (
{
name = bottom;
pos = (305,0);
},
{
name = top;
pos = (305,729);
}
);
background = {
shapes = (
{
closed = 1;
nodes = (
(462,-9,o),
(550,93,o),
(550,258,cs),
(550,424,o),
(462,526,o),
(332,526,cs),
(235,526,o),
(164,474,o),
(137,398,c),
(134,398,l),
(134,729,l),
(97,729,l),
(97,0,l),
(132,0,l),
(134,119,l),
(137,119,l),
(164,43,o),
(235,-9,o),
(332,-9,cs)
);
},
{
closed = 1;
nodes = (
(204,25,o),
(134,121,o),
(134,223,cs),
(134,294,ls),
(134,396,o),
(204,492,o),
(325,492,cs),
(437,492,o),
(512,407,o),
(512,258,cs),
(512,110,o),
(437,25,o),
(325,25,cs)
);
}
);
};
layerId = m019;
shapes = (
{
closed = 1;
nodes = (
(459,-9,o),
(545,92,o),
(545,258,cs),
(545,423,o),
(459,525,o),
(333,525,cs),
(241,525,o),
(174,472,o),
(149,396,c),
(140,396,l),
(140,729,l),
(103,729,l),
(103,0,l),
(137,0,l),
(139,119,l),
(149,119,l),
(174,43,o),
(240,-9,o),
(333,-9,cs)
);
},
{
closed = 1;
nodes = (
(208,24,o),
(140,120,o),
(140,222,cs),
(140,293,ls),
(140,395,o),
(208,491,o),
(325,491,cs),
(434,491,o),
(507,405,o),
(507,258,cs),
(507,109,o),
(434,24,o),
(325,24,cs)
);
}
);
userData = {
com.schriftgestaltung.Glyphs.glyph.leftMetricsKey = l;
com.schriftgestaltung.hints = (
{
horizontal = 1;
options = 0;
place = (
0,
21
);
stem = -2;
target = (
u,
p
);
type = BottomGhost;
},
{
horizontal = 1;
options = 0;
origin = (
0,
5
);
stem = -2;
target = (
1,
6
);
type = Stem;
},
{
horizontal = 1;
options = 0;
origin = (
0,
11
);
stem = -2;
target = (
d,
o,
w,
n
);
type = TopGhost;
},
{
horizontal = 1;
options = 0;
place = (
0,
0
);
stem = -2;
type = Stem;
},
{
horizontal = 0;
options = 0;
origin = (
0,
12
);
stem = -2;
target = (
1,
3
);
type = Stem;
},
{
horizontal = 0;
options = 0;
origin = (
1,
9
);
stem = -2;
target = (
0,
2
);
type = Stem;
}
);
};
width = 618;
},
{
anchors = (
{
name = bottom;
pos = (308,0);
},
{
name = top;
pos = (308,729);
}
);
background = {
shapes = (
{
closed = 1;
nodes = (
(521,-10,o),
(608,93,o),
(608,272,cs),
(608,452,o),
(523,554,o),
(394,554,cs),
(320,554,o),
(256,519,o),
(235,466,c),
(209,466,l),
(227,296,l),
(227,366,o),
(263,401,o),
(317,401,cs),
(372,401,o),
(413,364,o),
(413,272,cs),
(413,181,o),
(372,143,o),
(317,143,cs),
(263,143,o),
(227,179,o),
(227,249,c),
(209,79,l),
(235,79,l),
(255,26,o),
(316,-10,o),
(389,-10,cs)
);
}
);
};
layerId = m020;
shapes = (
{
closed = 1;
nodes = (
(509,-10,o),
(588,94,o),
(588,272,cs),
(588,450,o),
(509,554,o),
(388,554,cs),
(326,554,o),
(275,519,o),
(257,465,c),
(244,465,l),
(244,729,l),
(53,729,l),
(53,0,l),
(235,0,l),
(242,79,l),
(257,79,l),
(275,25,o),
(326,-10,o),
(388,-10,cs)
);
},
{
closed = 1;
nodes = (
(271,143,o),
(244,182,o),
(244,249,cs),
(244,295,ls),
(244,359,o),
(265,401,o),
(316,401,cs),
(376,401,o),
(393,348,o),
(393,272,cs),
(393,196,o),
(373,143,o),
(311,143,cs)
);
}
);
userData = {
com.schriftgestaltung.Glyphs.glyph.leftMetricsKey = l;
};
width = 618;
}
);
metricLeft = l;
unicode = 98;
}
{
glyphname = c;
kernLeft = e;
kernRight = c;
layers = (
{
anchors = (
{
name = bottom;
pos = (327,0);
},
{
name = top;
pos = (328,517);
}
);
background = {
shapes = (
{
closed = 1;
nodes = (
(445,-8,o),
(532,63,o),
(544,174,c),
(507,174,l),
(497,85,o),
(425,27,o),
(326,27,cs),
(203,27,o),
(122,115,o),
(122,257,cs),
(122,395,o),
(200,490,o),
(327,490,cs),
(417,490,o),
(489,441,o),
(505,354,c),
(541,354,l),
(528,456,o),
(443,525,o),
(329,525,cs),
(181,525,o),
(85,416,o),
(85,257,cs),
(85,98,o),
(181,-8,o),
(326,-8,cs)
);
}
);
};
layerId = m019;
shapes = (
{
closed = 1;
nodes = (
(442,-8,o),
(529,58,o),
(547,169,c),
(510,169,l),
(493,78,o),
(422,27,o),
(327,27,cs),
(202,27,o),
(120,115,o),
(120,257,cs),
(120,395,o),
(199,490,o),
(328,490,cs),
(420,490,o),
(487,437,o),
(507,359,c),
(544,359,l),
(526,460,o),
(442,525,o),
(330,525,cs),
(180,525,o),
(83,416,o),
(83,257,cs),
(83,98,o),
(180,-8,o),
(327,-8,cs)
);
}
);
userData = {
com.schriftgestaltung.hints = (
{
horizontal = 1;
options = 0;
origin = (
0,
6
);
stem = -2;
target = (
0,
25
);
type = Stem;
},
{
horizontal = 1;
options = 0;
origin = (
0,
19
);
stem = -2;
target = (
0,
12
);
type = Stem;
},
{
horizontal = 0;
options = 0;
origin = (
0,
22
);
stem = -2;
target = (
0,
9
);
type = Stem;
}
);
};
width = 619;
},
{
anchors = (
{
name = bottom;
pos = (318,0);
},
{
name = top;
pos = (319,544);
}
);
background = {
shapes = (
{
closed = 1;
nodes = (
(43,92,o),
(155,-10,o),
(322,-10,cs),
(501,-10,o),
(601,103,o),
(601,272,cs),
(601,452,o),
(489,554,o),
(322,554,cs),
(143,554,o),
(43,441,o),
(43,272,cs)
);
},
{
closed = 1;
nodes = (
(237,364,o),
(271,400,o),
(322,400,cs),
(373,400,o),
(407,364,o),
(407,272,cs),
(407,180,o),
(373,144,o),
(322,144,cs),
(271,144,o),
(237,180,o),
(237,272,cs)
);
}
);
};
layerId = m020;
shapes = (
{
closed = 1;
nodes = (
(469,-10,o),
(579,76,o),
(583,208,c),
(398,208,l),
(393,171,o),
(367,144,o),
(318,144,cs),
(266,144,o),
(231,182,o),
(231,272,cs),
(231,351,o),
(258,400,o),
(319,400,cs),
(359,400,o),
(389,380,o),
(396,336,c),
(582,336,l),
(580,465,o),
(473,554,o),
(323,554,cs),
(149,554,o),
(37,444,o),
(37,273,cs),
(37,102,o),
(148,-10,o),
(318,-10,cs)
);
}
);
width = 618;
}
);
unicode = 99;
}
{
glyphname = d;
kernLeft = a;
kernRight = l;
layers = (
{
anchors = (
{
name = bottom;
pos = (313,0);
},
{
name = center;
pos = (458,631);
},
{
name = top;
pos = (313,729);
},
{
name = topright;
pos = (515,729);
}
);
layerId = m019;
shapes = (
{
closed = 1;
nodes = (
(378,-8,o),
(444,45,o),
(469,121,c),
(479,121,l),
(481,0,l),
(515,0,l),
(515,729,l),
(478,729,l),
(478,398,l),
(468,398,l),
(443,474,o),
(378,526,o),
(285,526,cs),
(159,526,o),
(73,425,o),
(73,259,cs),
(73,94,o),
(159,-8,o),
(285,-8,cs)
);
},
{
closed = 1;
nodes = (
(184,26,o),
(111,112,o),
(111,259,cs),
(111,408,o),
(184,493,o),
(293,493,cs),
(410,493,o),
(478,397,o),
(478,295,cs),
(478,224,ls),
(478,122,o),
(410,26,o),
(293,26,cs)
);
}
);
userData = {
com.schriftgestaltung.Glyphs.glyph.leftMetricsKey = c;
com.schriftgestaltung.Glyphs.glyph.rightMetricsKey = l;
com.schriftgestaltung.hints = (
{
horizontal = 1;
options = 0;
origin = (
0,
18
);
stem = -2;
target = (
1,
12
);
type = Stem;
},
{
horizontal = 1;
options = 0;
origin = (
1,
5
);
stem = -2;
target = (
0,
12
);
type = Stem;
},
{
horizontal = 1;
options = 0;
origin = (
0,
7
);
stem = -2;
target = (
d,
o,
w,
n
);
type = TopGhost;
},
{
horizontal = 1;
options = 0;
origin = (
0,
4
);
stem = -2;
target = (
u,
p
);
type = BottomGhost;
},
{
horizontal = 0;
options = 0;
origin = (
0,
15
);
stem = -2;
target = (
1,
2
);
type = Stem;
},
{
horizontal = 0;
options = 0;
origin = (
0,
4
);
stem = -2;
target = (
0,
5
);
type = Stem;
}
);
};
width = 618;
},
{
anchors = (
{
name = bottom;
pos = (310,0);
},
{
name = center;
pos = (443,631);
},
{
name = top;
pos = (310,729);
},
{
name = topright;
pos = (564,729);
}
);
background = {
shapes = (
{
closed = 1;
nodes = (
(300,-10,o),
(359,27,o),
(383,83,c),
(393,83,l),
(400,0,l),
(584,0,l),
(584,729,l),
(393,729,l),
(393,461,l),
(383,461,l),
(359,517,o),
(300,554,o),
(223,554,cs),
(95,554,o),
(10,464,o),
(10,272,cs),
(10,80,o),
(95,-10,o),
(223,-10,cs)
);
},
{
closed = 1;
nodes = (
(242,143,o),
(205,179,o),
(205,272,cs),
(205,365,o),
(242,401,o),
(298,401,cs),
(365,401,o),
(391,349,o),
(391,294,cs),
(391,250,ls),
(391,195,o),
(365,143,o),
(298,143,cs)
);
}
);
};
layerId = m020;
shapes = (
{
closed = 1;
nodes = (
(294,-10,o),
(342,27,o),
(359,79,c),
(374,79,l),
(381,0,l),
(564,0,l),
(564,729,l),
(372,729,l),
(372,465,l),
(359,465,l),
(342,517,o),
(294,554,o),
(229,554,cs),
(109,554,o),
(30,451,o),
(30,272,cs),
(30,93,o),
(109,-10,o),
(229,-10,cs)
);
},
{
closed = 1;
nodes = (
(243,143,o),
(226,195,o),
(226,272,cs),
(226,349,o),
(246,401,o),
(306,401,cs),
(345,401,o),
(372,363,o),
(372,295,cs),
(372,249,ls),
(372,186,o),
(352,143,o),
(301,143,cs)
);
}
);
userData = {
com.schriftgestaltung.Glyphs.glyph.leftMetricsKey = c;
com.schriftgestaltung.Glyphs.glyph.rightMetricsKey = l;
};
width = 618;
}
);
metricLeft = "=|b";
metricRight = l;
unicode = 100;
}
{
glyphname = e;
kernLeft = e;
kernRight = e;
layers = (
{
anchors = (
{
name = bottom;
pos = (316,0);
},
{
name = ogonek;
pos = (399,0);
},
{
name = top;
pos = (314,517);
}
);
background = {
shapes = (
{
closed = 1;
nodes = (
(429,-8,o),
(518,55,o),
(535,152,c),
(497,152,l),
(480,76,o),
(414,26,o),
(317,26,cs),
(198,26,o),
(121,110,o),
(117,256,c),
(536,256,l),
(550,410,o),
(473,525,o),
(315,525,cs),
(168,525,o),
(80,417,o),
(80,258,cs),
(80,97,o),
(173,-8,o),
(317,-8,cs)
);
},
{
closed = 1;
nodes = (
(125,413,o),
(200,491,o),
(314,491,cs),
(427,491,o),
(503,423,o),
(501,281,c),
(506,290,l),
(113,290,l),
(118,284,l)
);
}
);
};
layerId = m019;
shapes = (
{
closed = 1;
nodes = (
(426,-8,o),
(516,51,o),
(536,147,c),
(498,147,l),
(478,72,o),
(410,26,o),
(317,26,cs),
(196,26,o),
(118,110,o),
(114,256,c),
(540,256,l),
(549,411,o),
(471,525,o),
(315,525,cs),
(166,525,o),
(77,417,o),
(77,258,cs),
(77,97,o),
(172,-8,o),
(317,-8,cs)
);
},
{
closed = 1;
nodes = (
(122,412,o),
(198,491,o),
(314,491,cs),
(427,491,o),
(503,423,o),
(505,281,c),
(510,290,l),
(110,290,l),
(115,284,l)
);
}
);
userData = {
com.schriftgestaltung.Glyphs.glyph.leftMetricsKey = o;
com.schriftgestaltung.hints = (
{
horizontal = 1;
options = 0;
origin = (
0,
22
);
stem = -2;
target = (
0,
6
);
type = Stem;
},
{
horizontal = 1;
options = 0;
origin = (
0,
9
);
stem = -2;
target = (
1,
6
);
type = Stem;
},
{
horizontal = 1;
options = 0;
origin = (
0,
16
);
stem = -2;
target = (
1,
2
);
type = Stem;
},
{
horizontal = 0;
options = 0;
origin = (
0,
19
);
stem = -2;
target = (
0,
9
);
type = Stem;
},
{
horizontal = 0;
options = 0;
origin = (
1,
5
);
stem = -2;
target = (
0,
2
);
type = Stem;
}
);
};
width = 619;
},
{
anchors = (
{
name = bottom;
pos = (309,0);
},
{
name = ogonek;
pos = (383,0);
},
{
name = top;
pos = (315,521);
}
);
associatedMasterId = m019;
attr = {
coordinates = (
300
);
};
background = {
shapes = (
{
closed = 1;
nodes = (
(427,-9,o),
(514,50,o),
(529,155,c),
(472,155,l),
(457,85,o),
(402,39,o),
(317,39,cs),
(214,39,o),
(148,109,o),
(145,253,c),
(531,253,l),
(541,416,o),
(467,529,o),
(315,529,cs),
(169,529,o),
(88,422,o),
(88,259,cs),
(88,96,o),
(172,-9,o),
(317,-9,cs)
);
},
{
closed = 1;
nodes = (
(152,416,o),
(216,481,o),
(315,481,cs),
(410,481,o),
(475,424,o),
(474,287,c),
(481,300,l),
(139,300,l),
(146,289,l)
);
}
);
};
layerId = "1E8FA4C2-C6E9-40FE-8B95-41DDFFFCC016";
name = "{100, 300, 0}";
shapes = (
{
closed = 1;
nodes = (
(424,-9,o),
(509,46,o),
(527,145,c),
(470,145,l),
(452,81,o),
(398,39,o),
(317,39,cs),
(214,39,o),
(148,109,o),
(145,253,c),
(531,253,l),
(541,416,o),
(467,529,o),
(315,529,cs),
(169,529,o),
(88,422,o),
(88,259,cs),
(88,96,o),
(172,-9,o),
(317,-9,cs)
);
},
{
closed = 1;
nodes = (
(152,416,o),
(216,481,o),
(315,481,cs),
(410,481,o),
(475,424,o),
(474,287,c),
(481,300,l),
(139,300,l),
(146,289,l)
);
}
);
userData = {
com.schriftgestaltung.Glyphs.glyph.leftMetricsKey = o;
com.schriftgestaltung.hints = (
{
horizontal = 1;
options = 0;
origin = (
0,
22
);
stem = -2;
target = (
0,
6
);
type = Stem;
},
{
horizontal = 1;
options = 0;
origin = (
0,
9
);
stem = -2;
target = (
1,
6
);
type = Stem;
},
{
horizontal = 1;
options = 0;
origin = (
0,
16
);
stem = -2;
target = (
1,
2
);
type = Stem;
},
{
horizontal = 0;
options = 0;
origin = (
0,
19
);
stem = -2;
target = (
0,
9
);
type = Stem;
},
{
horizontal = 0;
options = 0;
origin = (
1,
5
);
stem = -2;
target = (
0,
2
);
type = Stem;
}
);
};
width = 618;
},
{
anchors = (
{
name = bottom;
pos = (316,0);
},
{
name = ogonek;
pos = (448,0);
},
{
name = top;
pos = (310,544);
}
);
background = {
shapes = (
{
closed = 1;
nodes = (
(459,-10,o),
(563,65,o),
(575,177,c),
(396,177,l),
(388,150,o),
(356,132,o),
(316,132,cs),
(260,132,o),
(222,166,o),
(224,227,c),
(579,227,l),
(599,415,o),
(506,554,o),
(309,554,cs),
(145,554,o),
(36,445,o),
(36,267,cs),
(36,101,o),
(138,-10,o),
(316,-10,cs)
);
},
{
closed = 1;
nodes = (
(222,377,o),
(255,413,o),
(309,413,cs),
(360,413,o),
(395,381,o),
(391,326,c),
(408,341,l),
(208,341,l),
(224,325,l)
);
}
);
};
guides = (
{
pos = (309,413);
}
);
layerId = m020;
shapes = (
{
closed = 1;
nodes = (
(459,-10,o),
(564,63,o),
(578,172,c),
(398,172,l),
(388,149,o),
(364,132,o),
(317,132,cs),
(259,132,o),
(219,166,o),
(221,227,c),
(583,227,l),
(603,415,o),
(509,554,o),
(310,554,cs),
(143,554,o),
(33,445,o),
(33,267,cs),
(33,101,o),
(137,-10,o),
(317,-10,cs)
);
},
{
closed = 1;
nodes = (
(219,377,o),
(254,413,o),
(310,413,cs),
(363,413,o),
(399,381,o),
(395,326,c),
(412,341,l),
(205,341,l),
(221,325,l)
);
}
);
userData = {
com.schriftgestaltung.Glyphs.glyph.leftMetricsKey = o;
};
width = 618;
}
);
unicode = 101;
}
{
glyphname = f;
kernLeft = f;
kernRight = f;
layers = (
{
anchors = (
{
name = bottom;
pos = (307,0);
},
{
name = top;
pos = (307,729);
}
);
background = {
shapes = (
{
closed = 1;
nodes = (
(318,0,l),
(318,485,l),
(445,485,l),
(445,517,l),
(318,517,l),
(318,620,ls),
(318,665,o),
(332,695,o),
(388,695,cs),
(458,695,l),
(458,729,l),
(385,729,ls),
(323,729,o),
(281,696,o),
(281,627,cs),
(281,517,l),
(173,517,l),
(173,485,l),
(281,485,l),
(281,0,l)
);
}
);
};
layerId = m019;
shapes = (
{
closed = 1;
nodes = (
(312,0,l),
(312,485,l),
(541,485,l),
(541,517,l),
(312,517,l),
(312,606,ls),
(312,669,o),
(338,695,o),
(403,695,cs),
(555,695,l),
(555,729,l),
(395,729,ls),
(322,729,o),
(276,691,o),
(276,612,cs),
(276,517,l),
(83,517,l),
(83,485,l),
(276,485,l),
(276,0,l)
);
}
);
userData = {
com.schriftgestaltung.hints = (
{
horizontal = 1;
options = 0;
place = (
0,
21
);
stem = -2;
target = (
u,
p
);
type = BottomGhost;
},
{
horizontal = 1;
options = 0;
place = (
0,
0
);
stem = -2;
type = Stem;
},
{
horizontal = 1;
options = 0;
place = (
0,
0
);
stem = -2;
type = Stem;
},
{
horizontal = 0;
options = 0;
place = (
0,
0
);
stem = -2;
type = Stem;
}
);
};
width = 618;
},
{
anchors = (
{
name = bottom;
pos = (311,0);
},
{
name = top;
pos = (311,729);
}
);
background = {
shapes = (
{
closed = 1;
nodes = (
(394,0,l),
(394,391,l),
(496,391,l),
(496,544,l),
(394,544,l),
(394,572,ls),
(394,592,o),
(405,606,o),
(440,606,cs),
(504,606,l),
(504,729,l),
(381,729,ls),
(267,729,o),
(203,675,o),
(203,580,cs),
(203,544,l),
(123,544,l),
(123,391,l),
(203,391,l),
(203,0,l)
);
}
);
};
layerId = m020;
shapes = (
{
closed = 1;
nodes = (
(394,0,l),
(394,401,l),
(557,401,l),
(557,544,l),
(394,544,l),
(394,571,ls),
(394,599,o),
(410,606,o),
(433,606,cs),
(565,606,l),
(565,729,l),
(381,729,ls),
(267,729,o),
(203,675,o),
(203,580,cs),
(203,544,l),
(53,544,l),
(53,401,l),
(203,401,l),
(203,0,l)
);
}
);
width = 618;
}
);
metricRight = t;
unicode = 102;
userData = {
KernOnName = f;
};
}
{
glyphname = g;
kernLeft = g;
kernRight = g;
layers = (
{
anchors = (
{
name = bottom;
pos = (311,-167);
},
{
name = top;
pos = (311,517);
}
);
background = {
shapes = (
{
closed = 1;
nodes = (
(421,-177,o),
(512,-120,o),
(512,25,cs),
(512,517,l),
(478,517,l),
(475,339,l),
(475,31,ls),
(475,-103,o),
(400,-144,o),
(292,-144,cs),
(206,-144,o),
(147,-106,o),
(135,-43,c),
(99,-43,l),
(113,-128,o),
(187,-177,o),
(292,-177,cs)
);
},
{
closed = 1;
nodes = (
(378,13,o),
(447,63,o),
(473,137,c),
(491,137,l),
(491,237,l),
(475,237,l),
(475,139,o),
(407,47,o),
(293,47,cs),
(185,47,o),
(113,130,o),
(113,270,cs),
(113,412,o),
(185,494,o),
(293,494,cs),
(408,494,o),
(475,402,o),
(475,305,c),
(491,305,l),
(491,404,l),
(473,404,l),
(447,478,o),
(378,527,o),
(284,527,cs),
(160,527,o),
(75,430,o),
(75,270,cs),
(75,112,o),
(160,13,o),
(284,13,cs)
);
}
);
};
layerId = m019;
shapes = (
{
closed = 1;
nodes = (
(454,-177,o),
(507,-123,o),
(507,15,cs),
(507,517,l),
(473,517,l),
(471,404,l),
(461,404,l),
(437,477,o),
(373,527,o),
(284,527,cs),
(163,527,o),
(80,430,o),
(80,270,cs),
(80,112,o),
(163,13,o),
(284,13,cs),
(373,13,o),
(437,64,o),
(461,137,c),
(470,137,l),
(470,15,ls),
(470,-104,o),
(431,-144,o),
(311,-144,cs),
(208,-144,o),
(152,-107,o),
(139,-43,c),
(102,-43,l),
(117,-130,o),
(190,-177,o),
(311,-177,cs)
);
},
{
closed = 1;
nodes = (
(188,47,o),
(118,130,o),
(118,270,cs),
(118,412,o),
(188,494,o),
(293,494,cs),
(405,494,o),
(470,402,o),
(470,305,cs),
(470,237,ls),
(470,139,o),
(404,47,o),
(293,47,cs)
);
}
);
userData = {
com.schriftgestaltung.hints = (
{
horizontal = 1;
options = 0;
origin = (
1,
12
);
stem = -2;
target = (
0,
51
);
type = Stem;
},
{
horizontal = 1;
options = 0;
origin = (
0,
6
);
stem = -2;
target = (
1,
5
);
type = Stem;
},
{
horizontal = 1;
options = 0;
origin = (
2,
11
);
stem = -2;
target = (
0,
15
);
type = Stem;
},
{
horizontal = 1;
options = 0;
origin = (
0,
31
);
stem = -2;
target = (
2,
5
);
type = Stem;
},
{
horizontal = 1;
options = 0;
origin = (
0,
25
);
stem = -2;
target = (
0,
24
);
type = Stem;
},
{
horizontal = 1;
options = 0;
origin = (
0,
6
);
stem = -2;
target = (
0,
44
);
type = Stem;
},
{
horizontal = 0;
options = 0;
origin = (
0,
48
);
stem = -2;
target = (
1,
2
);
type = Stem;
},
{
horizontal = 0;
options = 0;
origin = (
1,
9
);
stem = -2;
target = (
0,
2
);
type = Stem;
},
{
horizontal = 0;
options = 0;
origin = (
0,
41
);
stem = -2;
target = (
0,
9
);
type = Stem;
},
{
horizontal = 0;
options = 0;
origin = (
2,
8
);
stem = -2;
target = (
1,
9
);
type = Stem;
},
{
horizontal = 0;
options = 0;
origin = (
0,
34
);
stem = -2;
target = (
2,
2
);
type = Stem;
}
);
};
width = 618;
},
{
anchors = (
{
name = bottom;
pos = (311,-154);
},
{
name = top;
pos = (311,544);
}
);
background = {
shapes = (
{
closed = 1;
nodes = (
(-332,-177,o),
(-217,-113,o),
(-217,80,cs),
(-217,544,l),
(-402,544,l),
(-408,469,l),
(-418,469,l),
(-440,520,o),
(-497,554,o),
(-568,554,cs),
(-694,554,o),
(-778,471,o),
(-778,294,cs),
(-778,117,o),
(-694,34,o),
(-568,34,cs),
(-497,34,o),
(-440,68,o),
(-418,119,c),
(-408,119,l),
(-408,40,ls),
(-408,-10,o),
(-427,-44,o),
(-503,-44,cs),
(-545,-44,o),
(-572,-27,o),
(-576,-2,c),
(-760,-2,l),
(-754,-107,o),
(-664,-177,o),
(-508,-177,cs)
);
},
{
closed = 1;
nodes = (
(-548,178,o),
(-583,211,o),
(-583,294,cs),
(-583,377,o),
(-548,410,o),
(-495,410,cs),
(-438,410,o),
(-413,371,o),
(-409,327,c),
(-408,263,l),
(-412,218,o),
(-437,178,o),
(-495,178,cs)
);
},
{
closed = 1;
nodes = (
(466,-177,o),
(582,-111,o),
(582,58,cs),
(582,544,l),
(398,544,l),
(394,478,l),
(383,478,l),
(363,523,o),
(304,554,o),
(233,554,cs),
(103,554,o),
(18,459,o),
(18,297,cs),
(18,133,o),
(103,38,o),
(233,38,cs),
(307,38,o),
(365,72,o),
(383,114,c),
(391,114,l),
(391,30,ls),
(391,-25,o),
(352,-44,o),
(297,-44,cs),
(255,-44,o),
(228,-27,o),
(224,-2,c),
(40,-2,l),
(49,-107,o),
(150,-177,o),
(297,-177,cs)
);
},
{
closed = 1;
nodes = (
(236,178,o),
(213,229,o),
(213,297,cs),
(213,363,o),
(239,414,o),
(309,414,cs),
(358,414,o),
(391,382,o),
(391,317,cs),
(391,275,ls),
(391,214,o),
(364,178,o),
(304,178,cs)
);
}
);
};
layerId = m020;
shapes = (
{
closed = 1;
nodes = (
(496,-177,o),
(564,-119,o),
(564,71,cs),
(564,544,l),
(379,544,l),
(374,475,l),
(359,475,l),
(339,526,o),
(288,554,o),
(228,554,cs),
(109,554,o),
(30,457,o),
(30,291,cs),
(30,124,o),
(109,29,o),
(228,29,cs),
(293,29,o),
(341,61,o),
(359,108,c),
(373,108,l),
(373,31,ls),
(373,-17,o),
(357,-44,o),
(296,-44,cs),
(252,-44,o),
(226,-28,o),
(223,-2,c),
(39,-2,l),
(44,-107,o),
(131,-177,o),
(295,-177,cs)
);
},
{
closed = 1;
nodes = (
(242,182,o),
(225,227,o),
(225,291,cs),
(225,355,o),
(245,401,o),
(307,401,cs),
(344,401,o),
(372,371,o),
(372,311,cs),
(372,271,ls),
(372,218,o),
(352,182,o),
(302,182,cs)
);
}
);
width = 618;
}
);
unicode = 103;
userData = {
KernOnName = g;
};
}
{
glyphname = h;
kernLeft = l;
kernRight = n;
layers = (
{
anchors = (
{
name = bottom;
pos = (312,0);
},
{
name = center;
pos = (169,631);
},
{
name = top;
pos = (131,729);
}
);
layerId = m019;
shapes = (
{
closed = 1;
nodes = (
(149,0,l),
(149,274,ls),
(149,401,o),
(222,491,o),
(331,491,cs),
(430,491,o),
(479,430,o),
(479,294,cs),
(479,0,l),
(516,0,l),
(516,300,ls),
(516,462,o),
(440,525,o),
(337,525,cs),
(261,525,o),
(191,482,o),
(159,400,c),
(149,400,l),
(149,729,l),
(113,729,l),
(113,0,l)
);
}
);
userData = {
com.schriftgestaltung.Glyphs.glyph.leftMetricsKey = n;
com.schriftgestaltung.Glyphs.glyph.rightMetricsKey = n;
com.schriftgestaltung.hints = (
{
horizontal = 1;
options = 0;
place = (
0,
21
);
stem = -2;
target = (
u,
p
);
type = BottomGhost;
},
{
horizontal = 1;
options = 0;
place = (
0,
0
);
stem = -2;
type = Stem;
},
{
horizontal = 1;
options = 0;
place = (
0,
-20
);
stem = -2;
target = (
d,
o,
w,
n
);
type = TopGhost;
},
{
horizontal = 0;
options = 0;
place = (
0,
0
);
stem = -2;
type = Stem;
},
{
horizontal = 0;
options = 0;
place = (
0,
0
);
stem = -2;
type = Stem;
}
);
};
width = 619;
},
{
anchors = (
{
name = bottom;
pos = (311,0);
},
{
name = center;
pos = (174,631);
},
{
name = top;
pos = (146,729);
}
);
background = {
shapes = (
{
closed = 1;
nodes = (
(230,0,l),
(230,291,ls),
(230,355,o),
(262,400,o),
(326,400,cs),
(380,400,o),
(410,369,o),
(410,302,cs),
(410,0,l),
(602,0,l),
(602,322,ls),
(602,458,o),
(550,554,o),
(416,554,cs),
(336,554,o),
(273,519,o),
(240,447,c),
(230,447,l),
(230,750,l),
(39,750,l),
(39,0,l)
);
}
);
};
layerId = m020;
shapes = (
{
closed = 1;
nodes = (
(242,0,l),
(242,308,ls),
(242,351,o),
(265,400,o),
(317,400,cs),
(367,400,o),
(385,362,o),
(385,291,cs),
(385,0,l),
(576,0,l),
(576,333,ls),
(576,494,o),
(498,554,o),
(398,554,cs),
(332,554,o),
(277,522,o),
(253,455,c),
(238,455,l),
(242,729,l),
(50,729,l),
(50,0,l)
);
}
);
userData = {
com.schriftgestaltung.Glyphs.glyph.leftMetricsKey = n;
com.schriftgestaltung.Glyphs.glyph.rightMetricsKey = n;
};
width = 618;
}
);
metricLeft = l;
metricRight = n;
unicode = 104;
}
{
color = 6;
glyphname = j;
kernLeft = j;
kernRight = i;
layers = (
{
background = {
shapes = (
{
closed = 1;
nodes = (
(899,-177,o),
(940,-135,o),
(940,-60,cs),
(940,517,l),
(903,517,l),
(903,-51,ls),
(903,-116,o),
(876,-143,o),
(819,-143,cs),
(803,-143,o),
(784,-140,o),
(773,-135,c),
(773,-169,l),
(784,-174,o),
(802,-177,o),
(820,-177,cs)
);
},
{
closed = 1;
nodes = (
(940,616,l),
(940,729,l),
(903,729,l),
(903,616,l)
);
}
);
};
layerId = m019;
shapes = (
{
ref = jdotless;
},
{
pos = (72,-155);
ref = dotaccent;
}
);
userData = {
com.schriftgestaltung.Glyphs.glyph.rightMetricsKey = i;
com.schriftgestaltung.hints = (
{
horizontal = 1;
options = 0;
origin = (
0,
15
);
stem = -2;
target = (
0,
8
);
type = Stem;
},
{
horizontal = 1;
options = 0;
origin = (
0,
4
);
stem = -2;
target = (
d,
o,
w,
n
);
type = TopGhost;
},
{
horizontal = 1;
options = 0;
origin = (
1,
2
);
stem = -2;
target = (
1,
3
);
type = Stem;
},
{
horizontal = 0;
options = 0;
origin = (
0,
5
);
stem = -2;
target = (
0,
2
);
type = Stem;
}
);
};
width = 619;
},
{
background = {
shapes = (
{
closed = 1;
nodes = (
(466,-177,o),
(542,-123,o),
(542,7,cs),
(542,544,l),
(350,544,l),
(350,17,ls),
(350,-24,o),
(339,-46,o),
(301,-46,cs),
(280,-46,o),
(269,-43,o),
(261,-39,c),
(261,-163,l),
(287,-173,o),
(321,-177,o),
(357,-177,cs)
);
},
{
closed = 1;
nodes = (
(542,601,l),
(542,729,l),
(350,729,l),
(350,601,l)
);
}
);
};
layerId = m020;
shapes = (
{
ref = jdotless;
},
{
pos = (43,-134);
ref = dotaccent;
}
);
userData = {
com.schriftgestaltung.Glyphs.glyph.rightMetricsKey = i;
};
width = 619;
}
);
metricRight = i;
unicode = 106;
userData = {
KernOnName = j;
};
}
{
glyphname = k;
kernLeft = l;
kernRight = k;
layers = (
{
anchors = (
{
name = bottom;
pos = (310,0);
},
{
name = top;
pos = (310,729);
}
);
layerId = m019;
shapes = (
{
closed = 1;
nodes = (
(140,0,l),
(140,177,l),
(290,296,l),
(378,187,l),
(530,0,l),
(577,0,l),
(318,320,l),
(565,517,l),
(508,517,l),
(236,295,l),
(140,218,l),
(140,729,l),
(105,729,l),
(105,0,l)
);
}
);
userData = {
com.schriftgestaltung.Glyphs.glyph.leftMetricsKey = l;
com.schriftgestaltung.hints = (
{
horizontal = 1;
options = 0;
origin = (
0,
11
);
stem = -2;
target = (
u,
p
);
type = BottomGhost;
},
{
horizontal = 1;
options = 0;
origin = (
0,
7
);
stem = -2;
target = (
d,
o,
w,
n
);
type = TopGhost;
},
{
horizontal = 1;
options = 0;
origin = (
0,
10
);
stem = -2;
target = (
d,
o,
w,
n
);
type = TopGhost;
},
{
horizontal = 0;
options = 0;
origin = (
0,
11
);
stem = -2;
target = (
0,
0
);
type = Stem;
}
);
};
width = 618;
},
{
anchors = (
{
name = bottom;
pos = (312,0);
},
{
name = top;
pos = (312,729);
}
);
layerId = m020;
shapes = (
{
closed = 1;
nodes = (
(234,0,l),
(234,144,l),
(282,199,l),
(310,141,l),
(389,0,l),
(614,0,l),
(416,326,l),
(613,544,l),
(379,544,l),
(272,403,l),
(234,351,l),
(234,729,l),
(40,729,l),
(40,0,l)
);
}
);
userData = {
com.schriftgestaltung.Glyphs.glyph.leftMetricsKey = l;
};
width = 618;
}
);
unicode = 107;
}
{
glyphname = l;
kernLeft = l;
kernRight = l;
layers = (
{
anchors = (
{
name = bottom;
pos = (310,0);
},
{
name = center;
pos = (310,365);
},
{
name = top;
pos = (310,729);
},
{
name = topright;
pos = (328,729);
}
);
layerId = m019;
shapes = (
{
closed = 1;
nodes = (
(328,0,l),
(328,729,l),
(291,729,l),
(291,0,l)
);
},
{
closed = 1;
nodes = (
(527,0,l),
(527,32,l),
(101,32,l),
(101,0,l)
);
},
{
closed = 1;
nodes = (
(294,697,l),
(294,729,l),
(101,729,l),
(101,697,l)
);
}
);
userData = {
com.schriftgestaltung.hints = (
{
horizontal = 1;
options = 0;
origin = (
0,
3
);
stem = -2;
target = (
u,
p
);
type = BottomGhost;
},
{
horizontal = 1;
options = 0;
origin = (
0,
2
);
stem = -2;
target = (
d,
o,
w,
n
);
type = TopGhost;
},
{
horizontal = 0;
options = 0;
origin = (
0,
3
);
stem = -2;
target = (
0,
0
);
type = Stem;
}
);
};
width = 618;
},
{
anchors = (
{
name = bottom;
pos = (310,0);
},
{
name = center;
pos = (310,365);
},
{
name = top;
pos = (310,729);
},
{
name = topright;
pos = (405,729);
}
);
layerId = m020;
shapes = (
{
closed = 1;
nodes = (
(405,0,l),
(405,729,l),
(214,729,l),
(214,0,l)
);
},
{
closed = 1;
nodes = (
(556,0,l),
(556,143,l),
(60,143,l),
(60,0,l)
);
},
{
closed = 1;
nodes = (
(231,586,l),
(231,729,l),
(60,729,l),
(60,586,l)
);
}
);
width = 618;
}
);
metricRight = "=|";
unicode = 108;
userData = {
KernOnName = l;
};
}
{
glyphname = m;
kernLeft = n;
kernRight = n;
layers = (
{
anchors = (
{
name = bottom;
pos = (312,0);
},
{
name = top;
pos = (312,517);
}
);
layerId = m019;
shapes = (
{
closed = 1;
nodes = (
(117,0,l),
(117,338,ls),
(117,427,o),
(157,491,o),
(213,491,cs),
(270,491,o),
(296,446,o),
(296,355,cs),
(296,0,l),
(331,0,l),
(331,338,ls),
(331,427,o),
(372,491,o),
(430,491,cs),
(486,491,o),
(510,446,o),
(510,355,cs),
(510,0,l),
(546,0,l),
(546,360,ls),
(546,478,o),
(501,525,o),
(436,525,cs),
(392,525,o),
(348,495,o),
(328,430,c),
(318,430,l),
(303,497,o),
(269,525,o),
(219,525,cs),
(177,525,o),
(139,493,o),
(121,435,c),
(111,435,l),
(109,517,l),
(81,517,l),
(81,0,l)
);
}
);
userData = {
com.schriftgestaltung.Glyphs.glyph.leftMetricsKey = n;
com.schriftgestaltung.Glyphs.glyph.rightMetricsKey = n;
com.schriftgestaltung.hints = (
{
horizontal = 1;
options = 0;
place = (
0,
21
);
stem = -2;
target = (
u,
p
);
type = BottomGhost;
},
{
horizontal = 1;
options = 0;
place = (
0,
0
);
stem = -2;
type = Stem;
},
{
horizontal = 1;
options = 0;
place = (
0,
-20
);
stem = -2;
target = (
d,
o,
w,
n
);
type = TopGhost;
},
{
horizontal = 0;
options = 0;
place = (
0,
0
);
stem = -2;
type = Stem;
},
{
horizontal = 0;
options = 0;
place = (
0,
0
);
stem = -2;
type = Stem;
},
{
horizontal = 0;
options = 0;
place = (
0,
0
);
stem = -2;
type = Stem;
}
);
};
width = 618;
},
{
anchors = (
{
name = bottom;
pos = (309,0);
},
{
name = top;
pos = (309,544);
}
);
layerId = m020;
shapes = (
{
closed = 1;
nodes = (
(182,0,l),
(182,352,ls),
(182,373,o),
(191,395,o),
(210,395,cs),
(229,395,o),
(234,376,o),
(234,342,cs),
(235,0,l),
(386,0,l),
(387,356,ls),
(387,376,o),
(395,399,o),
(414,399,cs),
(433,399,o),
(440,379,o),
(440,345,cs),
(439,0,l),
(585,0,l),
(585,397,ls),
(585,510,o),
(539,552,o),
(477,552,cs),
(431,552,o),
(388,523,o),
(377,464,c),
(367,464,l),
(352,524,o),
(321,552,o),
(274,552,cs),
(238,552,o),
(196,529,o),
(183,469,c),
(173,469,l),
(168,544,l),
(37,544,l),
(37,0,l)
);
}
);
userData = {
com.schriftgestaltung.Glyphs.glyph.leftMetricsKey = n;
com.schriftgestaltung.Glyphs.glyph.rightMetricsKey = n;
};
width = 618;
}
);
metricLeft = l;
metricRight = n;
unicode = 109;
}
{
glyphname = n;
kernLeft = n;
kernRight = n;
layers = (
{
anchors = (
{
name = bottom;
pos = (312,0);
},
{
name = top;
pos = (312,517);
}
);
layerId = m019;
shapes = (
{
closed = 1;
nodes = (
(150,0,l),
(150,274,ls),
(150,401,o),
(223,491,o),
(330,491,cs),
(429,491,o),
(478,430,o),
(478,294,cs),
(478,0,l),
(515,0,l),
(515,300,ls),
(515,462,o),
(440,525,o),
(337,525,cs),
(261,525,o),
(192,482,o),
(160,400,c),
(150,400,l),
(148,517,l),
(114,517,l),
(114,0,l)
);
}
);
userData = {
com.schriftgestaltung.hints = (
{
horizontal = 1;
options = 0;
origin = (
0,
20
);
stem = -2;
target = (
u,
p
);
type = BottomGhost;
},
{
horizontal = 1;
options = 0;
origin = (
0,
13
);
stem = -2;
target = (
0,
4
);
type = Stem;
},
{
horizontal = 1;
options = 0;
origin = (
0,
19
);
stem = -2;
target = (
d,
o,
w,
n
);
type = TopGhost;
},
{
horizontal = 0;
options = 0;
origin = (
0,
20
);
stem = -2;
target = (
0,
0
);
type = Stem;
},
{
horizontal = 0;
options = 0;
origin = (
0,
8
);
stem = -2;
target = (
0,
9
);
type = Stem;
}
);
};
width = 618;
},
{
anchors = (
{
name = bottom;
pos = (312,0);
},
{
name = top;
pos = (312,544);
}
);
background = {
shapes = (
{
closed = 1;
nodes = (
(230,0,l),
(230,288,ls),
(230,353,o),
(262,400,o),
(326,400,cs),
(386,400,o),
(410,364,o),
(410,291,cs),
(410,0,l),
(601,0,l),
(601,321,ls),
(601,469,o),
(534,554,o),
(411,554,cs),
(331,554,o),
(267,518,o),
(238,455,c),
(230,455,l),
(207,544,l),
(39,544,l),
(39,0,l)
);
}
);
};
layerId = m020;
shapes = (
{
closed = 1;
nodes = (
(243,0,l),
(243,308,ls),
(243,351,o),
(266,400,o),
(318,400,cs),
(367,400,o),
(385,363,o),
(385,291,cs),
(385,0,l),
(576,0,l),
(576,333,ls),
(576,494,o),
(498,554,o),
(399,554,cs),
(331,554,o),
(280,520,o),
(257,455,c),
(243,455,l),
(236,544,l),
(52,544,l),
(52,0,l)
);
}
);
width = 618;
}
);
metricLeft = l;
unicode = 110;
userData = {
KernOnName = n;
};
}
{
glyphname = o;
kernLeft = e;
kernRight = o;
layers = (
{
anchors = (
{
name = bottom;
pos = (310,0);
},
{
name = center;
pos = (310,259);
},
{
name = ogonek;
pos = (540,10);
},
{
name = top;
pos = (310,517);
},
{
name = topright;
pos = (396,507);
}
);
layerId = m019;
shapes = (
{
closed = 1;
nodes = (
(455,-8,o),
(552,101,o),
(552,258,cs),
(552,417,o),
(455,525,o),
(311,525,cs),
(165,525,o),
(67,415,o),
(67,257,cs),
(67,100,o),
(165,-8,o),
(311,-8,cs)
);
},
{
closed = 1;
nodes = (
(184,28,o),
(105,120,o),
(105,257,cs),
(105,400,o),
(188,490,o),
(311,490,cs),
(437,490,o),
(514,397,o),
(514,258,cs),
(514,117,o),
(432,28,o),
(310,28,cs)
);
}
);
userData = {
com.schriftgestaltung.hints = (
{
horizontal = 1;
options = 0;
origin = (
1,
8
);
stem = -2;
target = (
0,
2
);
type = Stem;
},
{
horizontal = 1;
options = 0;
origin = (
0,
8
);
stem = -2;
target = (
1,
2
);
type = Stem;
},
{
horizontal = 0;
options = 0;
origin = (
0,
11
);
stem = -2;
target = (
1,
11
);
type = Stem;
},
{
horizontal = 0;
options = 0;
origin = (
1,
5
);
stem = -2;
target = (
0,
5
);
type = Stem;
}
);
};
width = 618;
},
{
anchors = (
{
name = bottom;
pos = (309,0);
},
{
name = center;
pos = (309,272);
},
{
name = ogonek;
pos = (552,10);
},
{
name = top;
pos = (309,544);
},
{
name = topright;
pos = (385,524);
}
);
background = {
shapes = (
{
closed = 1;
nodes = (
(224,364,o),
(258,400,o),
(309,400,cs),
(360,400,o),
(394,364,o),
(394,272,cs),
(394,180,o),
(360,144,o),
(309,144,cs),
(258,144,o),
(224,180,o),
(224,272,cs)
);
}
);
};
layerId = m020;
shapes = (
{
closed = 1;
nodes = (
(488,-10,o),
(588,103,o),
(588,272,cs),
(588,452,o),
(476,554,o),
(309,554,cs),
(130,554,o),
(30,441,o),
(30,272,cs),
(30,92,o),
(142,-10,o),
(309,-10,cs)
);
},
{
closed = 1;
nodes = (
(257,143,o),
(223,179,o),
(223,272,cs),
(223,365,o),
(257,401,o),
(309,401,cs),
(361,401,o),
(395,365,o),
(395,272,cs),
(395,179,o),
(361,143,o),
(309,143,cs)
);
}
);
width = 618;
}
);
unicode = 111;
userData = {
KernOnName = o;
};
}
{
glyphname = p;
kernLeft = n;
kernRight = p;
layers = (
{
anchors = (
{
name = bottom;
pos = (305,0);
},
{
name = top;
pos = (305,517);
}
);
layerId = m019;
shapes = (
{
closed = 1;
nodes = (
(140,-167,l),
(140,119,l),
(149,119,l),
(174,43,o),
(240,-9,o),
(333,-9,cs),
(459,-9,o),
(545,92,o),
(545,258,cs),
(545,423,o),
(459,525,o),
(333,525,cs),
(240,525,o),
(174,472,o),
(149,396,c),
(139,396,l),
(137,517,l),
(103,517,l),
(103,-167,l)
);
},
{
closed = 1;
nodes = (
(208,24,o),
(140,120,o),
(140,222,cs),
(140,293,ls),
(140,395,o),
(208,491,o),
(325,491,cs),
(434,491,o),
(507,405,o),
(507,258,cs),
(507,109,o),
(434,24,o),
(325,24,cs)
);
}
);
userData = {
com.schriftgestaltung.hints = (
{
horizontal = 1;
options = 0;
place = (
0,
21
);
stem = -2;
target = (
u,
p
);
type = BottomGhost;
},
{
horizontal = 1;
options = 0;
place = (
0,
0
);
stem = -2;
type = Stem;
},
{
horizontal = 1;
options = 0;
place = (
0,
0
);
stem = -2;
type = Stem;
},
{
horizontal = 1;
options = 0;
place = (
0,
-20
);
stem = -2;
target = (
d,
o,
w,
n
);
type = TopGhost;
},
{
horizontal = 0;
options = 0;
place = (
0,
0
);
stem = -2;
type = Stem;
},
{
horizontal = 0;
options = 0;
place = (
0,
0
);
stem = -2;
type = Stem;
},
{
horizontal = 1;
options = 0;
place = (
0,
21
);
stem = -2;
target = (
u,
p
);
type = BottomGhost;
},
{
horizontal = 1;
options = 0;
place = (
0,
0
);
stem = -2;
type = Stem;
},
{
horizontal = 1;
options = 0;
place = (
0,
21
);
stem = -2;
target = (
u,
p
);
type = BottomGhost;
},
{
horizontal = 1;
options = 0;
place = (
0,
0
);
stem = -2;
type = Stem;
},
{
horizontal = 0;
options = 0;
place = (
0,
0
);
stem = -2;
type = Stem;
},
{
horizontal = 0;
options = 0;
place = (
0,
0
);
stem = -2;
type = Stem;
}
);
};
width = 618;
},
{
anchors = (
{
name = bottom;
pos = (309,0);
},
{
name = top;
pos = (309,544);
}
);
layerId = m020;
shapes = (
{
closed = 1;
nodes = (
(246,-167,l),
(246,79,l),
(259,79,l),
(276,27,o),
(324,-10,o),
(389,-10,cs),
(509,-10,o),
(588,93,o),
(588,272,cs),
(588,451,o),
(509,554,o),
(389,554,cs),
(324,554,o),
(276,517,o),
(259,465,c),
(244,465,l),
(237,544,l),
(54,544,l),
(54,-167,l)
);
},
{
closed = 1;
nodes = (
(273,143,o),
(246,181,o),
(246,249,cs),
(246,295,ls),
(246,358,o),
(266,401,o),
(317,401,cs),
(375,401,o),
(392,349,o),
(392,272,cs),
(392,195,o),
(372,143,o),
(312,143,cs)
);
}
);
width = 618;
}
);
metricLeft = l;
metricRight = b;
unicode = 112;
}
{
glyphname = q;
kernLeft = a;
kernRight = a;
layers = (
{
anchors = (
{
name = bottom;
pos = (313,0);
},
{
name = top;
pos = (313,517);
}
);
background = {
shapes = (
{
closed = 1;
nodes = (
(521,-167,l),
(521,517,l),
(486,517,l),
(484,398,l),
(481,398,l),
(454,475,o),
(383,526,o),
(285,526,cs),
(156,526,o),
(68,425,o),
(68,259,cs),
(68,94,o),
(156,-8,o),
(285,-8,cs),
(383,-8,o),
(454,44,o),
(481,121,c),
(484,121,l),
(484,-167,l)
);
},
{
closed = 1;
nodes = (
(181,26,o),
(106,112,o),
(106,259,cs),
(106,408,o),
(181,493,o),
(293,493,cs),
(413,493,o),
(483,397,o),
(483,295,cs),
(483,224,ls),
(483,122,o),
(413,26,o),
(293,26,cs)
);
}
);
};
layerId = m019;
shapes = (
{
closed = 1;
nodes = (
(515,-167,l),
(515,517,l),
(481,517,l),
(479,398,l),
(469,398,l),
(444,474,o),
(378,526,o),
(285,526,cs),
(159,526,o),
(73,425,o),
(73,259,cs),
(73,94,o),
(159,-8,o),
(285,-8,cs),
(378,-8,o),
(444,45,o),
(469,121,c),
(478,121,l),
(478,-167,l)
);
},
{
closed = 1;
nodes = (
(184,26,o),
(111,112,o),
(111,259,cs),
(111,408,o),
(184,493,o),
(293,493,cs),
(410,493,o),
(478,397,o),
(478,295,cs),
(478,224,ls),
(478,122,o),
(410,26,o),
(293,26,cs)
);
}
);
userData = {
com.schriftgestaltung.hints = (
{
horizontal = 1;
options = 0;
place = (
0,
21
);
stem = -2;
target = (
u,
p
);
type = BottomGhost;
},
{
horizontal = 1;
options = 0;
place = (
0,
0
);
stem = -2;
type = Stem;
},
{
horizontal = 1;
options = 0;
place = (
0,
-20
);
stem = -2;
target = (
d,
o,
w,
n
);
type = TopGhost;
},
{
horizontal = 1;
options = 0;
place = (
0,
0
);
stem = -2;
type = Stem;
},
{
horizontal = 0;
options = 0;
place = (
0,
0
);
stem = -2;
type = Stem;
},
{
horizontal = 0;
options = 0;
place = (
0,
0
);
stem = -2;
type = Stem;
},
{
horizontal = 1;
options = 0;
place = (
0,
21
);
stem = -2;
target = (
u,
p
);
type = BottomGhost;
},
{
horizontal = 1;
options = 0;
origin = (
0,
13
);
stem = -2;
target = (
1,
12
);
type = Stem;
},
{
horizontal = 1;
options = 0;
origin = (
0,
0
);
stem = -2;
target = (
u,
p
);
type = BottomGhost;
},
{
horizontal = 1;
options = 0;
place = (
0,
0
);
stem = -2;
type = Stem;
},
{
horizontal = 0;
options = 0;
origin = (
0,
1
);
stem = -2;
target = (
1,
9
);
type = Stem;
},
{
horizontal = 0;
options = 0;
origin = (
1,
2
);
stem = -2;
target = (
0,
10
);
type = Stem;
}
);
};
width = 618;
},
{
anchors = (
{
name = bottom;
pos = (310,0);
},
{
name = top;
pos = (310,544);
}
);
layerId = m020;
shapes = (
{
closed = 1;
nodes = (
(564,-167,l),
(564,544,l),
(379,544,l),
(373,465,l),
(359,465,l),
(342,517,o),
(294,554,o),
(229,554,cs),
(109,554,o),
(30,451,o),
(30,272,cs),
(30,93,o),
(109,-10,o),
(229,-10,cs),
(294,-10,o),
(342,27,o),
(359,79,c),
(372,79,l),
(372,-167,l)
);
},
{
closed = 1;
nodes = (
(243,143,o),
(226,195,o),
(226,272,cs),
(226,349,o),
(246,401,o),
(306,401,cs),
(345,401,o),
(372,363,o),
(372,295,cs),
(372,249,ls),
(372,186,o),
(352,143,o),
(301,143,cs)
);
}
);
width = 618;
}
);
metricLeft = "=|b";
metricRight = l;
unicode = 113;
}
{
glyphname = r;
kernLeft = n;
kernRight = r;
layers = (
{
anchors = (
{
name = bottom;
pos = (236,0);
},
{
name = top;
pos = (310,517);
}
);
background = {
shapes = (
{
closed = 1;
nodes = (
(260,0,l),
(260,336,l),
(269,432,o),
(339,488,o),
(426,488,cs),
(446,488,o),
(465,486,o),
(477,481,c),
(477,517,l),
(467,521,o),
(448,524,o),
(425,524,cs),
(348,524,o),
(284,482,o),
(262,413,c),
(260,413,l),
(256,517,l),
(224,517,l),
(224,0,l)
);
}
);
};
layerId = m019;
shapes = (
{
closed = 1;
nodes = (
(254,0,l),
(254,336,l),
(265,432,o),
(343,488,o),
(443,488,cs),
(473,488,o),
(501,485,o),
(522,481,c),
(522,517,l),
(502,521,o),
(474,524,o),
(442,524,cs),
(355,524,o),
(285,479,o),
(263,411,c),
(253,411,l),
(250,517,l),
(217,517,l),
(217,0,l)
);
},
{
closed = 1;
nodes = (
(439,0,l),
(439,32,l),
(71,32,l),
(71,0,l)
);
},
{
closed = 1;
nodes = (
(235,485,l),
(235,517,l),
(71,517,l),
(71,485,l)
);
}
);
userData = {
com.schriftgestaltung.Glyphs.glyph.leftMetricsKey = n;
com.schriftgestaltung.hints = (
{
horizontal = 1;
options = 0;
origin = (
0,
18
);
stem = -2;
target = (
u,
p
);
type = BottomGhost;
},
{
horizontal = 1;
options = 0;
origin = (
0,
11
);
stem = -2;
target = (
0,
4
);
type = Stem;
},
{
horizontal = 1;
options = 0;
origin = (
0,
8
);
stem = -2;
target = (
d,
o,
w,
n
);
type = TopGhost;
},
{
horizontal = 1;
options = 0;
origin = (
0,
17
);
stem = -2;
target = (
d,
o,
w,
n
);
type = TopGhost;
},
{
horizontal = 0;
options = 0;
origin = (
0,
18
);
stem = -2;
target = (
0,
0
);
type = Stem;
},
{
horizontal = 0;
options = 0;
place = (
0,
0
);
stem = -2;
type = Stem;
}
);
};
width = 618;
},
{
anchors = (
{
name = bottom;
pos = (305,0);
},
{
name = top;
pos = (305,544);
}
);
background = {
shapes = (
{
closed = 1;
nodes = (
(339,0,l),
(339,218,l),
(339,339,o),
(397,375,o),
(474,375,cs),
(492,375,o),
(506,373,o),
(519,368,c),
(519,548,l),
(506,551,o),
(494,553,o),
(476,553,cs),
(407,553,o),
(359,526,o),
(335,455,c),
(328,455,l),
(321,544,l),
(148,544,l),
(148,0,l)
);
}
);
};
layerId = m020;
shapes = (
{
closed = 1;
nodes = (
(339,0,l),
(339,257,ls),
(339,331,o),
(368,372,o),
(492,372,cs),
(514,372,o),
(535,372,o),
(546,372,c),
(546,551,l),
(531,551,o),
(516,551,o),
(496,551,cs),
(421,551,o),
(367,502,o),
(349,425,c),
(328,425,l),
(321,544,l),
(148,544,l),
(148,0,l)
);
},
{
closed = 1;
nodes = (
(441,0,l),
(441,143,l),
(45,143,l),
(45,0,l)
);
},
{
closed = 1;
nodes = (
(201,401,l),
(201,544,l),
(45,544,l),
(45,401,l)
);
}
);
userData = {
com.schriftgestaltung.Glyphs.glyph.leftMetricsKey = n;
};
width = 618;
}
);
metricLeft = l;
unicode = 114;
userData = {
KernOnName = r;
};
}
{
glyphname = s;
kernLeft = s;
kernRight = s;
layers = (
{
anchors = (
{
name = bottom;
pos = (308,0);
},
{
name = top;
pos = (308,517);
}
);
background = {
shapes = (
{
closed = 1;
nodes = (
(427,-10,o),
(504,42,o),
(504,135,cs),
(504,239,o),
(427,265,o),
(319,281,cs),
(212,296,o),
(162,320,o),
(162,389,cs),
(162,452,o),
(215,494,o),
(309,494,cs),
(397,494,o),
(456,458,o),
(458,367,c),
(494,367,l),
(494,466,o),
(427,527,o),
(308,527,cs),
(198,527,o),
(125,470,o),
(125,385,cs),
(125,293,o),
(190,264,o),
(313,246,cs),
(421,230,o),
(466,207,o),
(466,132,cs),
(466,62,o),
(411,23,o),
(312,23,cs),
(213,23,o),
(147,67,o),
(147,160,c),
(110,160,l),
(110,58,o),
(182,-10,o),
(311,-10,cs)
);
}
);
};
layerId = m019;
shapes = (
{
closed = 1;
nodes = (
(443,-10,o),
(519,44,o),
(519,135,cs),
(519,241,o),
(438,269,o),
(321,285,cs),
(211,300,o),
(158,322,o),
(158,389,cs),
(158,452,o),
(212,494,o),
(309,494,cs),
(397,494,o),
(457,461,o),
(465,373,c),
(502,373,l),
(497,469,o),
(427,527,o),
(308,527,cs),
(196,527,o),
(120,470,o),
(120,385,cs),
(120,294,o),
(187,267,o),
(317,249,cs),
(433,233,o),
(481,208,o),
(481,132,cs),
(481,63,o),
(421,23,o),
(320,23,cs),
(216,23,o),
(147,63,o),
(139,153,c),
(102,153,l),
(108,53,o),
(188,-10,o),
(319,-10,cs)
);
}
);
userData = {
com.schriftgestaltung.hints = (
{
horizontal = 1;
options = 0;
origin = (
0,
32
);
stem = -2;
target = (
0,
39
);
type = Stem;
},
{
horizontal = 1;
options = 0;
origin = (
0,
19
);
stem = -2;
target = (
0,
12
);
type = Stem;
},
{
horizontal = 0;
options = 0;
origin = (
0,
36
);
stem = -2;
target = (
0,
35
);
type = Stem;
},
{
horizontal = 0;
options = 0;
origin = (
0,
29
);
stem = -2;
target = (
0,
2
);
type = Stem;
},
{
horizontal = 0;
options = 0;
origin = (
0,
22
);
stem = -2;
target = (
0,
9
);
type = Stem;
}
);
};
width = 618;
},
{
anchors = (
{
name = bottom;
pos = (309,0);
},
{
name = top;
pos = (309,544);
}
);
background = {
shapes = (
{
closed = 1;
nodes = (
(458,-10,o),
(559,56,o),
(559,174,cs),
(559,279,o),
(504,326,o),
(362,344,cs),
(287,354,o),
(261,360,o),
(261,388,cs),
(261,411,o),
(280,422,o),
(308,422,cs),
(341,422,o),
(360,408,o),
(360,380,c),
(548,380,l),
(544,484,o),
(450,554,o),
(314,554,cs),
(168,554,o),
(70,481,o),
(70,371,cs),
(70,262,o),
(136,220,o),
(282,199,cs),
(344,190,o),
(365,186,o),
(365,157,cs),
(365,136,o),
(348,122,o),
(311,122,cs),
(273,122,o),
(246,137,o),
(245,174,c),
(57,174,l),
(56,64,o),
(154,-10,o),
(306,-10,cs)
);
}
);
};
layerId = m020;
shapes = (
{
closed = 1;
nodes = (
(468,-10,o),
(574,56,o),
(574,174,cs),
(574,279,o),
(512,326,o),
(362,344,cs),
(278,354,o),
(247,360,o),
(247,388,cs),
(247,411,o),
(271,422,o),
(308,422,cs),
(348,422,o),
(372,409,o),
(374,383,c),
(562,383,l),
(556,485,o),
(457,554,o),
(314,554,cs),
(160,554,o),
(57,481,o),
(57,371,cs),
(57,262,o),
(127,220,o),
(285,199,cs),
(354,190,o),
(381,186,o),
(381,157,cs),
(381,136,o),
(358,122,o),
(312,122,cs),
(265,122,o),
(234,136,o),
(230,171,c),
(42,171,l),
(44,63,o),
(146,-10,o),
(307,-10,cs)
);
}
);
width = 618;
}
);
unicode = 115;
userData = {
KernOnName = s;
};
}
{
glyphname = t;
kernLeft = t;
kernRight = t;
layers = (
{
anchors = (
{
name = bottom;
pos = (357,0);
},
{
name = center;
pos = (286,259);
},
{
name = top;
pos = (274,517);
},
{
name = topright;
pos = (305,785);
}
);
background = {
shapes = (
{
closed = 1;
nodes = (
(-60,0,l),
(-60,34,l),
(-140,34,ls),
(-181,34,o),
(-191,44,o),
(-191,85,cs),
(-191,485,l),
(-60,485,l),
(-60,517,l),
(-191,517,l),
(-191,690,l),
(-227,681,l),
(-227,517,l),
(-334,517,l),
(-334,485,l),
(-227,485,l),
(-227,79,ls),
(-227,23,o),
(-204,0,o),
(-148,0,cs)
);
},
{
closed = 1;
nodes = (
(941,0,l),
(941,36,l),
(872,36,ls),
(822,36,o),
(810,62,o),
(810,102,cs),
(810,485,l),
(940,485,l),
(940,517,l),
(809,517,l),
(809,690,l),
(773,681,l),
(773,517,l),
(666,517,l),
(666,485,l),
(773,485,l),
(773,91,ls),
(773,30,o),
(810,0,o),
(865,0,cs)
);
},
{
closed = 1;
nodes = (
(441,0,l),
(441,36,l),
(366,36,ls),
(329,36,o),
(310,49,o),
(310,95,cs),
(310,485,l),
(440,485,l),
(440,517,l),
(309,517,l),
(309,690,l),
(273,681,l),
(273,517,l),
(166,517,l),
(166,485,l),
(273,485,l),
(273,88,ls),
(273,26,o),
(307,0,o),
(361,0,cs)
);
}
);
};
layerId = m019;
shapes = (
{
closed = 1;
nodes = (
(538,0,l),
(538,36,l),
(367,36,ls),
(317,36,o),
(294,60,o),
(294,111,cs),
(294,485,l),
(536,485,l),
(536,517,l),
(292,517,l),
(292,690,l),
(257,681,l),
(257,517,l),
(78,517,l),
(78,485,l),
(257,485,l),
(257,107,ls),
(257,36,o),
(293,0,o),
(365,0,cs)
);
}
);
userData = {
com.schriftgestaltung.hints = (
{
horizontal = 1;
options = 0;
origin = (
0,
6
);
stem = -2;
target = (
0,
23
);
type = Stem;
},
{
horizontal = 1;
options = 0;
origin = (
0,
17
);
stem = -2;
target = (
0,
18
);
type = Stem;
},
{
horizontal = 1;
options = 0;
origin = (
0,
14
);
stem = -2;
target = (
d,
o,
w,
n
);
type = TopGhost;
},
{
horizontal = 0;
options = 0;
origin = (
0,
20
);
stem = -2;
target = (
0,
9
);
type = Stem;
}
);
};
width = 618;
},
{
anchors = (
{
name = bottom;
pos = (375,0);
},
{
name = center;
pos = (301,272);
},
{
name = top;
pos = (309,544);
},
{
name = topright;
pos = (404,739);
}
);
background = {
shapes = (
{
closed = 1;
nodes = (
(491,0,l),
(491,153,l),
(431,153,ls),
(408,153,o),
(392,160,o),
(392,188,cs),
(392,391,l),
(491,391,l),
(491,544,l),
(392,544,l),
(392,699,l),
(201,683,l),
(201,544,l),
(110,544,l),
(110,391,l),
(201,391,l),
(201,152,ls),
(201,61,o),
(232,0,o),
(362,0,cs)
);
}
);
};
layerId = m020;
shapes = (
{
closed = 1;
nodes = (
(566,0,l),
(566,153,l),
(436,153,ls),
(408,153,o),
(390,160,o),
(390,188,cs),
(390,401,l),
(566,401,l),
(566,544,l),
(390,544,l),
(390,699,l),
(200,683,l),
(200,544,l),
(45,544,l),
(45,401,l),
(200,401,l),
(200,152,ls),
(200,47,o),
(248,0,o),
(358,0,cs)
);
}
);
width = 618;
}
);
unicode = 116;
userData = {
KernOnName = t;
};
}
{
glyphname = u;
kernLeft = u;
kernRight = a;
layers = (
{
anchors = (
{
name = bottom;
pos = (305,0);
},
{
name = ogonek;
pos = (505,0);
},
{
name = top;
pos = (305,517);
},
{
name = topright;
pos = (468,517);
}
);
layerId = m019;
shapes = (
{
closed = 1;
nodes = (
(370,-8,o),
(435,44,o),
(461,121,c),
(471,121,l),
(471,0,l),
(505,0,l),
(505,517,l),
(468,517,l),
(468,249,ls),
(468,112,o),
(393,26,o),
(291,26,cs),
(186,26,o),
(141,94,o),
(141,211,cs),
(141,517,l),
(104,517,l),
(104,204,ls),
(104,61,o),
(176,-8,o),
(283,-8,cs)
);
}
);
userData = {
com.schriftgestaltung.hints = (
{
horizontal = 1;
options = 0;
place = (
0,
0
);
stem = -2;
type = Stem;
},
{
horizontal = 1;
options = 0;
place = (
0,
-20
);
stem = -2;
target = (
d,
o,
w,
n
);
type = TopGhost;
},
{
horizontal = 1;
options = 0;
place = (
0,
21
);
stem = -2;
target = (
u,
p
);
type = BottomGhost;
},
{
horizontal = 0;
options = 0;
place = (
0,
0
);
stem = -2;
type = Stem;
},
{
horizontal = 0;
options = 0;
place = (
0,
0
);
stem = -2;
type = Stem;
}
);
};
width = 618;
},
{
anchors = (
{
name = bottom;
pos = (305,0);
},
{
name = ogonek;
pos = (566,0);
},
{
name = top;
pos = (305,544);
},
{
name = topright;
pos = (404,544);
}
);
layerId = m020;
shapes = (
{
closed = 1;
nodes = (
(286,-10,o),
(340,21,o),
(364,89,c),
(378,89,l),
(382,0,l),
(566,0,l),
(566,544,l),
(375,544,l),
(375,236,ls),
(375,193,o),
(352,144,o),
(301,144,cs),
(253,144,o),
(235,183,o),
(235,253,cs),
(235,544,l),
(44,544,l),
(44,201,ls),
(44,66,o),
(102,-10,o),
(222,-10,cs)
);
}
);
width = 618;
}
);
unicode = 117;
userData = {
KernOnName = u;
};
}
{
glyphname = v;
kernLeft = v;
kernRight = v;
layers = (
{
anchors = (
{
name = bottom;
pos = (309,0);
},
{
name = top;
pos = (309,517);
}
);
background = {
shapes = (
{
closed = 1;
nodes = (
(330,0,l),
(526,518,l),
(486,518,l),
(344,134,l),
(310,39,l),
(308,39,l),
(273,134,l),
(130,518,l),
(89,518,l),
(288,0,l)
);
}
);
};
layerId = m019;
shapes = (
{
closed = 1;
nodes = (
(332,0,l),
(554,517,l),
(514,517,l),
(352,132,l),
(313,30,l),
(305,30,l),
(266,132,l),
(104,517,l),
(64,517,l),
(286,0,l)
);
}
);
userData = {
com.schriftgestaltung.hints = (
{
horizontal = 1;
options = 0;
origin = (
0,
4
);
stem = -2;
target = (
0,
7
);
type = Stem;
},
{
horizontal = 1;
options = 0;
origin = (
0,
6
);
stem = -2;
target = (
d,
o,
w,
n
);
type = TopGhost;
}
);
};
width = 618;
},
{
anchors = (
{
name = bottom;
pos = (311,0);
},
{
name = top;
pos = (311,544);
}
);
background = {
shapes = (
{
closed = 1;
nodes = (
(429,0,l),
(606,544,l),
(400,544,l),
(343,295,l),
(312,155,l),
(306,155,l),
(274,296,l),
(218,544,l),
(13,544,l),
(190,0,l)
);
}
);
};
layerId = m020;
shapes = (
{
closed = 1;
nodes = (
(438,0,l),
(610,544,l),
(395,544,l),
(325,244,l),
(316,135,l),
(303,135,l),
(294,244,l),
(224,544,l),
(8,544,l),
(180,0,l)
);
}
);
width = 618;
}
);
unicode = 118;
userData = {
KernOnName = v;
};
}
{
glyphname = w;
kernLeft = w;
kernRight = w;
layers = (
{
anchors = (
{
name = bottom;
pos = (309,0);
},
{
name = top;
pos = (309,517);
}
);
background = {
shapes = (
{
closed = 1;
nodes = (
(175,0,l),
(306,471,l),
(309,471,l),
(446,0,l),
(494,0,l),
(639,517,l),
(603,517,l),
(472,38,l),
(470,38,l),
(331,517,l),
(286,517,l),
(153,37,l),
(151,37,l),
(15,517,l),
(-21,517,l),
(125,0,l)
);
}
);
};
layerId = m019;
shapes = (
{
closed = 1;
nodes = (
(207,0,l),
(272,292,l),
(304,487,l),
(312,487,l),
(346,292,l),
(414,0,l),
(463,0,l),
(569,517,l),
(534,517,l),
(471,208,l),
(444,30,l),
(435,30,l),
(402,208,l),
(331,517,l),
(285,517,l),
(217,208,l),
(185,30,l),
(177,30,l),
(148,208,l),
(85,517,l),
(49,517,l),
(155,0,l)
);
}
);
userData = {
com.schriftgestaltung.hints = (
{
horizontal = 1;
options = 0;
origin = (
0,
12
);
stem = -2;
target = (
0,
15
);
type = Stem;
},
{
horizontal = 1;
options = 0;
origin = (
0,
14
);
stem = -2;
target = (
0,
1
);
type = Stem;
},
{
horizontal = 1;
options = 0;
origin = (
0,
8
);
stem = -2;
target = (
0,
15
);
type = Stem;
}
);
};
width = 618;
},
{
anchors = (
{
name = bottom;
pos = (310,0);
},
{
name = top;
pos = (310,544);
}
);
background = {
shapes = (
{
closed = 1;
nodes = (
(255,0,l),
(302,300,l),
(308,300,l),
(355,0,l),
(605,0,l),
(727,544,l),
(538,544,l),
(472,188,l),
(467,188,l),
(417,544,l),
(211,544,l),
(158,191,l),
(150,191,l),
(88,544,l),
(-110,544,l),
(10,0,l)
);
}
);
};
layerId = m020;
shapes = (
{
closed = 1;
nodes = (
(269,0,l),
(290,200,l),
(300,320,l),
(312,320,l),
(322,200,l),
(343,0,l),
(520,0,l),
(608,544,l),
(442,544,l),
(427,319,l),
(420,194,l),
(408,194,l),
(400,319,l),
(381,544,l),
(245,544,l),
(222,319,l),
(216,197,l),
(204,197,l),
(196,319,l),
(182,544,l),
(10,544,l),
(95,0,l)
);
}
);
width = 618;
}
);
unicode = 119;
}
{
glyphname = x;
kernLeft = x;
kernRight = x;
layers = (
{
anchors = (
{
name = bottom;
pos = (309,0);
},
{
name = top;
pos = (309,517);
}
);
background = {
shapes = (
{
closed = 1;
nodes = (
(117,0,l),
(308,244,l),
(312,244,l),
(498,0,l),
(541,0,l),
(334,271,l),
(519,517,l),
(477,517,l),
(313,298,l),
(309,298,l),
(142,517,l),
(99,517,l),
(287,270,l),
(76,0,l)
);
}
);
};
layerId = m019;
shapes = (
{
closed = 1;
nodes = (
(112,0,l),
(263,189,l),
(305,250,l),
(315,250,l),
(356,189,l),
(502,0,l),
(550,0,l),
(336,271,l),
(528,517,l),
(482,517,l),
(367,367,l),
(316,291,l),
(306,291,l),
(251,367,l),
(136,517,l),
(90,517,l),
(284,271,l),
(67,0,l)
);
}
);
userData = {
com.schriftgestaltung.hints = (
{
horizontal = 1;
options = 0;
origin = (
0,
13
);
stem = -2;
target = (
u,
p
);
type = BottomGhost;
},
{
horizontal = 1;
options = 0;
origin = (
0,
11
);
stem = -2;
target = (
d,
o,
w,
n
);
type = TopGhost;
}
);
};
width = 619;
},
{
anchors = (
{
name = bottom;
pos = (309,0);
},
{
name = top;
pos = (309,544);
}
);
background = {
shapes = (
{
closed = 1;
nodes = (
(198,0,l),
(265,102,l),
(303,170,l),
(309,170,l),
(346,102,l),
(409,0,l),
(634,0,l),
(442,282,l),
(617,544,l),
(400,544,l),
(350,459,l),
(316,395,l),
(310,395,l),
(276,459,l),
(227,544,l),
(0,544,l),
(181,277,l),
(-17,0,l)
);
}
);
};
layerId = m020;
shapes = (
{
closed = 1;
nodes = (
(216,0,l),
(280,118,l),
(300,190,l),
(313,190,l),
(333,118,l),
(392,0,l),
(598,0,l),
(443,282,l),
(583,544,l),
(385,544,l),
(337,440,l),
(320,375,l),
(307,375,l),
(290,440,l),
(243,544,l),
(35,544,l),
(181,277,l),
(20,0,l)
);
}
);
width = 618;
}
);
unicode = 120;
userData = {
KernOnName = x;
};
}
{
glyphname = y;
kernLeft = y;
kernRight = y;
layers = (
{
anchors = (
{
name = bottom;
pos = (411,0);
},
{
name = top;
pos = (309,517);
}
);
background = {
shapes = (
{
closed = 1;
nodes = (
(165,-167,ls),
(235,-167,o),
(267,-138,o),
(291,-77,cs),
(529,517,l),
(492,517,l),
(345,145,l),
(317,73,l),
(313,73,l),
(283,145,l),
(128,517,l),
(88,517,l),
(302,23,l),
(302,40,l),
(260,-65,ls),
(241,-113,o),
(215,-135,o),
(163,-135,cs),
(116,-135,l),
(116,-167,l)
);
}
);
};
layerId = m019;
shapes = (
{
closed = 1;
nodes = (
(152,-167,ls),
(227,-167,o),
(260,-138,o),
(287,-76,cs),
(546,517,l),
(508,517,l),
(379,223,l),
(321,70,l),
(311,70,l),
(247,223,l),
(110,517,l),
(70,517,l),
(302,23,l),
(302,39,l),
(256,-66,ls),
(234,-116,o),
(209,-135,o),
(151,-135,cs),
(100,-135,l),
(100,-167,l)
);
}
);
userData = {
com.schriftgestaltung.hints = (
{
horizontal = 1;
options = 0;
origin = (
0,
13
);
stem = -2;
target = (
0,
20
);
type = Stem;
},
{
horizontal = 1;
options = 0;
origin = (
0,
8
);
stem = -2;
target = (
d,
o,
w,
n
);
type = TopGhost;
},
{
horizontal = 1;
options = 0;
origin = (
0,
17
);
stem = -2;
target = (
d,
o,
w,
n
);
type = TopGhost;
}
);
};
width = 618;
},
{
anchors = (
{
name = bottom;
pos = (511,0);
},
{
name = top;
pos = (309,544);
}
);
background = {
shapes = (
{
closed = 1;
nodes = (
(178,-167,ls),
(279,-167,o),
(359,-137,o),
(406,-4,cs),
(603,544,l),
(398,544,l),
(353,376,ls),
(341,330,o),
(329,285,o),
(318,220,c),
(311,220,l),
(299,285,o),
(286,330,o),
(273,376,cs),
(225,544,l),
(15,544,l),
(228,25,l),
(228,70,l),
(216,38,ls),
(203,4,o),
(181,-11,o),
(140,-11,cs),
(71,-11,l),
(71,-167,l)
);
}
);
};
layerId = m020;
shapes = (
{
closed = 1;
nodes = (
(178,-167,ls),
(279,-167,o),
(358,-137,o),
(406,-4,cs),
(603,544,l),
(398,544,l),
(330,290,l),
(321,190,l),
(308,190,l),
(298,290,l),
(225,544,l),
(15,544,l),
(235,8,l),
(235,88,l),
(216,38,ls),
(203,4,o),
(181,-11,o),
(140,-11,cs),
(71,-11,l),
(71,-167,l)
);
}
);
width = 618;
}
);
unicode = 121;
}
{
glyphname = z;
kernLeft = z;
kernRight = z;
layers = (
{
anchors = (
{
name = bottom;
pos = (309,0);
},
{
name = center;
pos = (309,259);
},
{
name = top;
pos = (309,517);
}
);
layerId = m019;
shapes = (
{
closed = 1;
nodes = (
(521,0,l),
(521,32,l),
(139,32,l),
(139,42,l),
(227,137,l),
(510,484,l),
(510,517,l),
(108,517,l),
(108,485,l),
(469,485,l),
(469,475,l),
(384,384,l),
(97,33,l),
(97,0,l)
);
}
);
userData = {
com.schriftgestaltung.hints = (
{
horizontal = 1;
options = 0;
origin = (
0,
2
);
stem = -2;
target = (
0,
9
);
type = Stem;
},
{
horizontal = 1;
options = 0;
origin = (
0,
5
);
stem = -2;
target = (
0,
6
);
type = Stem;
}
);
};
width = 618;
},
{
anchors = (
{
name = bottom;
pos = (308,0);
},
{
name = center;
pos = (308,272);
},
{
name = top;
pos = (308,544);
}
);
layerId = m020;
shapes = (
{
closed = 1;
nodes = (
(559,0,l),
(559,153,l),
(302,153,l),
(302,166,l),
(376,231,l),
(548,411,l),
(548,544,l),
(75,544,l),
(75,391,l),
(303,391,l),
(303,378,l),
(236,321,l),
(57,136,l),
(57,0,l)
);
}
);
width = 619;
}
);
unicode = 122;
userData = {
KernOnName = z;
};
}
{
glyphname = braceleft;
layers = (
{
layerId = m019;
shapes = (
{
closed = 1;
nodes = (
(507,-167,l),
(507,-135,l),
(290,-135,l),
(290,208,ls),
(290,267,o),
(257,309,o),
(220,311,c),
(220,315,l),
(255,316,o),
(290,356,o),
(290,417,cs),
(290,761,l),
(507,761,l),
(507,793,l),
(295,793,ls),
(267,793,o),
(254,775,o),
(254,750,cs),
(254,417,ls),
(254,361,o),
(222,331,o),
(191,331,cs),
(90,331,l),
(90,294,l),
(191,294,ls),
(222,294,o),
(254,264,o),
(254,209,cs),
(254,-124,ls),
(254,-149,o),
(267,-167,o),
(295,-167,cs)
);
}
);
userData = {
com.schriftgestaltung.hints = (
{
horizontal = 1;
options = 0;
origin = (
0,
2
);
stem = -2;
target = (
0,
31
);
type = Stem;
},
{
horizontal = 1;
options = 0;
origin = (
0,
22
);
stem = -2;
target = (
0,
23
);
type = Stem;
},
{
horizontal = 1;
options = 0;
origin = (
0,
14
);
stem = -2;
target = (
0,
11
);
type = Stem;
},
{
horizontal = 0;
options = 0;
origin = (
0,
28
);
stem = -2;
target = (
0,
2
);
type = Stem;
},
{
horizontal = 0;
options = 0;
origin = (
0,
23
);
stem = -2;
target = (
0,
6
);
type = Stem;
}
);
};
width = 619;
},
{
layerId = m020;
shapes = (
{
closed = 1;
nodes = (
(527,-167,l),
(527,-24,l),
(377,-24,l),
(377,171,ls),
(377,234,o),
(356,284,o),
(288,309,c),
(288,312,l),
(341,324,o),
(377,359,o),
(377,445,cs),
(377,649,l),
(527,649,l),
(527,793,l),
(327,793,ls),
(240,793,o),
(199,738,o),
(199,667,cs),
(199,452,ls),
(199,405,o),
(176,374,o),
(136,374,cs),
(73,374,l),
(73,235,l),
(136,235,ls),
(174,235,o),
(199,207,o),
(199,159,cs),
(199,-41,ls),
(199,-112,o),
(240,-167,o),
(327,-167,cs)
);
}
);
width = 618;
}
);
unicode = 123;
userData = {
KernOnSpecialSpacing = {
R = parenthesis;
};
};
}
{
glyphname = bar;
layers = (
{
layerId = m019;
shapes = (
{
closed = 1;
nodes = (
(327,-67,l),
(327,729,l),
(291,729,l),
(291,-67,l)
);
}
);
userData = {
com.schriftgestaltung.hints = (
{
horizontal = 1;
options = 0;
origin = (
0,
2
);
stem = -2;
target = (
d,
o,
w,
n
);
type = TopGhost;
},
{
horizontal = 0;
options = 0;
origin = (
0,
3
);
stem = -2;
target = (
0,
0
);
type = Stem;
}
);
};
width = 618;
},
{
layerId = m020;
shapes = (
{
closed = 1;
nodes = (
(395,-67,l),
(395,729,l),
(224,729,l),
(224,-67,l)
);
}
);
width = 619;
}
);
unicode = 124;
userData = {
KernOnSpecialSpacing = {
L = NoKerning;
R = NoKerning;
};
};
}
{
glyphname = asciitilde;
kernRight = asciitilde;
layers = (
{
layerId = m019;
shapes = (
{
closed = 1;
nodes = (
(519,252,o),
(574,314,o),
(568,403,c),
(538,403,l),
(541,338,o),
(498,287,o),
(445,287,cs),
(349,287,o),
(268,397,o),
(174,397,cs),
(94,397,o),
(44,339,o),
(51,246,c),
(81,246,l),
(77,311,o),
(115,362,o),
(170,362,cs),
(252,362,o),
(344,252,o),
(441,252,cs)
);
}
);
userData = {
com.schriftgestaltung.hints = (
{
horizontal = 1;
options = 0;
origin = (
0,
16
);
stem = -2;
target = (
0,
3
);
type = Stem;
},
{
horizontal = 1;
options = 0;
origin = (
0,
13
);
stem = -2;
target = (
0,
6
);
type = Stem;
},
{
horizontal = 0;
options = 0;
origin = (
0,
19
);
stem = -2;
target = (
0,
0
);
type = Stem;
},
{
horizontal = 0;
options = 0;
origin = (
0,
10
);
stem = -2;
target = (
0,
9
);
type = Stem;
}
);
};
width = 618;
},
{
layerId = m020;
shapes = (
{
closed = 1;
nodes = (
(522,224,o),
(601,292,o),
(590,456,c),
(485,456,l),
(483,421,o),
(461,390,o),
(412,390,cs),
(333,390,o),
(286,460,o),
(185,460,cs),
(102,460,o),
(17,401,o),
(29,233,c),
(135,233,l),
(131,257,o),
(146,299,o),
(192,299,cs),
(257,299,o),
(309,224,o),
(427,224,cs)
);
}
);
width = 618;
}
);
metricWidth = zero.tf;
unicode = 126;
userData = {
KernOnSpecialSpacing = {
L = math;
R = math;
};
};
}
{
glyphname = cent;
layers = (
{
layerId = m019;
shapes = (
{
closed = 1;
nodes = (
(441,98,o),
(528,169,o),
(540,280,c),
(503,280,l),
(493,191,o),
(421,133,o),
(322,133,cs),
(199,133,o),
(118,221,o),
(118,363,cs),
(118,501,o),
(196,596,o),
(323,596,cs),
(413,596,o),
(485,547,o),
(501,460,c),
(537,460,l),
(524,562,o),
(439,631,o),
(325,631,cs),
(177,631,o),
(81,522,o),
(81,363,cs),
(81,204,o),
(177,98,o),
(322,98,cs)
);
},
{
closed = 1;
nodes = (
(329,0,l),
(329,113,l),
(296,113,l),
(296,0,l)
);
},
{
closed = 1;
nodes = (
(329,617,l),
(329,729,l),
(296,729,l),
(296,617,l)
);
}
);
userData = {
com.schriftgestaltung.Glyphs.glyph.leftMetricsKey = C;
com.schriftgestaltung.Glyphs.glyph.rightMetricsKey = C;
com.schriftgestaltung.hints = (
{
horizontal = 0;
options = 0;
origin = (
0,
0
);
stem = -2;
target = (
0,
1
);
type = Stem;
}
);
};
width = 618;
},
{
layerId = m020;
shapes = (
{
closed = 1;
nodes = (
(467,83,o),
(575,169,o),
(579,301,c),
(394,301,l),
(389,264,o),
(365,237,o),
(318,237,cs),
(268,237,o),
(235,275,o),
(235,365,cs),
(235,444,o),
(260,493,o),
(319,493,cs),
(357,493,o),
(385,473,o),
(392,429,c),
(578,429,l),
(576,558,o),
(471,647,o),
(323,647,cs),
(151,647,o),
(41,537,o),
(41,366,cs),
(41,195,o),
(150,83,o),
(318,83,cs)
);
},
{
closed = 1;
nodes = (
(372,0,l),
(372,167,l),
(249,167,l),
(249,0,l)
);
},
{
closed = 1;
nodes = (
(372,554,l),
(372,729,l),
(249,729,l),
(249,554,l)
);
}
);
userData = {
com.schriftgestaltung.Glyphs.glyph.leftMetricsKey = C;
com.schriftgestaltung.Glyphs.glyph.rightMetricsKey = C;
};
width = 618;
}
);
unicode = 162;
userData = {
KernOnSpecialSpacing = {
L = symbols;
R = symbols;
};
};
}
{
glyphname = sterling;
layers = (
{
layerId = m019;
shapes = (
{
closed = 1;
nodes = (
(138,11,l),
(200,84,o),
(220,155,o),
(220,240,cs),
(220,367,o),
(156,426,o),
(156,535,cs),
(156,641,o),
(223,702,o),
(333,702,cs),
(442,702,o),
(505,638,o),
(505,526,c),
(544,527,l),
(544,659,o),
(463,738,o),
(333,738,cs),
(201,738,o),
(118,661,o),
(118,535,cs),
(118,420,o),
(180,364,o),
(180,240,cs),
(180,154,o),
(163,99,o),
(109,29,c)
);
},
{
closed = 1;
nodes = (
(538,0,l),
(538,177,l),
(504,177,l),
(504,34,l),
(53,34,l),
(53,0,l)
);
},
{
closed = 1;
nodes = (
(428,346,l),
(428,379,l),
(73,379,l),
(73,346,l)
);
}
);
userData = {
com.schriftgestaltung.hints = (
{
horizontal = 1;
options = 0;
origin = (
0,
30
);
stem = -2;
target = (
0,
31
);
type = Stem;
},
{
horizontal = 1;
options = 0;
origin = (
0,
26
);
stem = -2;
target = (
0,
27
);
type = Stem;
},
{
horizontal = 1;
options = 0;
origin = (
0,
21
);
stem = -2;
target = (
0,
12
);
type = Stem;
},
{
horizontal = 0;
options = 0;
origin = (
0,
29
);
stem = -2;
target = (
0,
4
);
type = Stem;
},
{
horizontal = 0;
options = 0;
origin = (
0,
3
);
stem = -2;
target = (
0,
0
);
type = Stem;
}
);
};
width = 618;
},
{
background = {
shapes = (
{
closed = 1;
nodes = (
(225,150,l),
(295,202,o),
(305,248,o),
(305,310,cs),
(305,375,o),
(281,459,o),
(281,497,cs),
(281,540,o),
(307,569,o),
(350,569,cs),
(388,569,o),
(417,549,o),
(415,494,c),
(598,499,l),
(600,642,o),
(509,738,o),
(344,738,cs),
(189,738,o),
(86,644,o),
(86,504,cs),
(86,439,o),
(109,366,o),
(109,299,cs),
(109,238,o),
(93,204,o),
(61,150,c)
);
},
{
closed = 1;
nodes = (
(592,0,l),
(592,209,l),
(430,209,l),
(430,152,l),
(7,152,l),
(7,0,l)
);
},
{
closed = 1;
nodes = (
(437,294,l),
(437,435,l),
(17,435,l),
(17,294,l)
);
}
);
};
layerId = m020;
shapes = (
{
closed = 1;
nodes = (
(228,146,l),
(298,194,o),
(315,242,o),
(315,308,cs),
(315,375,o),
(281,458,o),
(281,498,cs),
(281,543,o),
(302,573,o),
(349,573,cs),
(384,573,o),
(413,553,o),
(414,500,c),
(592,500,l),
(595,643,o),
(506,738,o),
(343,738,cs),
(192,738,o),
(92,646,o),
(92,507,cs),
(92,439,o),
(123,365,o),
(123,297,cs),
(123,244,o),
(112,207,o),
(77,146,c)
);
},
{
closed = 1;
nodes = (
(585,0,l),
(585,228,l),
(427,228,l),
(427,149,l),
(24,149,l),
(24,0,l)
);
},
{
closed = 1;
nodes = (
(444,288,l),
(444,425,l),
(34,425,l),
(34,288,l)
);
}
);
width = 618;
}
);
unicode = 163;
userData = {
KernOnSpecialSpacing = {
L = symbols;
R = symbols;
};
};
}
{
glyphname = currency;
layers = (
{
layerId = m019;
shapes = (
{
closed = 1;
nodes = (
(191,207,l),
(223,182,o),
(265,167,o),
(309,167,cs),
(353,167,o),
(395,182,o),
(426,208,c),
(535,97,l),
(560,120,l),
(450,231,l),
(478,261,o),
(493,305,o),
(493,348,cs),
(493,395,o),
(477,437,o),
(451,468,c),
(560,577,l),
(535,602,l),
(426,491,l),
(395,516,o),
(353,529,o),
(309,529,cs),
(261,529,o),
(221,514,o),
(192,491,c),
(83,602,l),
(58,577,l),
(166,468,l),
(140,437,o),
(123,395,o),
(123,348,cs),
(123,302,o),
(140,260,o),
(165,231,c),
(58,120,l),
(83,97,l)
);
},
{
closed = 1;
nodes = (
(222,203,o),
(160,265,o),
(160,349,cs),
(160,435,o),
(223,496,o),
(309,496,cs),
(394,496,o),
(457,435,o),
(457,349,cs),
(457,265,o),
(395,203,o),
(309,203,cs)
);
}
);
userData = {
com.schriftgestaltung.hints = (
{
horizontal = 1;
options = 0;
origin = (
0,
3
);
stem = -2;
target = (
1,
11
);
type = Stem;
},
{
horizontal = 1;
options = 0;
origin = (
1,
5
);
stem = -2;
target = (
0,
21
);
type = Stem;
},
{
horizontal = 0;
options = 0;
origin = (
0,
30
);
stem = -2;
target = (
1,
2
);
type = Stem;
},
{
horizontal = 0;
options = 0;
origin = (
1,
8
);
stem = -2;
target = (
0,
12
);
type = Stem;
}
);
};
width = 618;
},
{
layerId = m020;
shapes = (
{
closed = 1;
nodes = (
(221,158,l),
(247,151,o),
(273,146,o),
(309,146,cs),
(337,146,o),
(370,150,o),
(397,158,c),
(496,60,l),
(601,166,l),
(509,257,l),
(523,286,o),
(529,318,o),
(529,348,cs),
(529,382,o),
(523,412,o),
(508,442,c),
(600,532,l),
(495,639,l),
(395,538,l),
(365,548,o),
(333,552,o),
(309,552,cs),
(283,552,o),
(249,547,o),
(223,538,c),
(123,639,l),
(18,532,l),
(110,442,l),
(97,416,o),
(90,384,o),
(90,348,cs),
(90,321,o),
(94,288,o),
(109,257,c),
(17,166,l),
(122,60,l)
);
},
{
closed = 1;
nodes = (
(275,290,o),
(247,312,o),
(247,348,cs),
(247,383,o),
(275,408,o),
(309,408,cs),
(344,408,o),
(372,383,o),
(372,348,cs),
(372,313,o),
(343,290,o),
(309,290,cs)
);
}
);
width = 618;
}
);
unicode = 164;
}
{
glyphname = yen;
layers = (
{
layerId = m019;
shapes = (
{
closed = 1;
nodes = (
(328,0,l),
(328,159,l),
(516,159,l),
(516,192,l),
(328,192,l),
(328,311,l),
(516,311,l),
(516,344,l),
(348,344,l),
(578,729,l),
(537,729,l),
(311,346,l),
(308,346,l),
(81,729,l),
(40,729,l),
(272,344,l),
(101,344,l),
(101,311,l),
(292,311,l),
(292,192,l),
(101,192,l),
(101,159,l),
(292,159,l),
(292,0,l)
);
}
);
userData = {
com.schriftgestaltung.Glyphs.glyph.leftMetricsKey = Y;
com.schriftgestaltung.Glyphs.glyph.rightMetricsKey = Y;
com.schriftgestaltung.hints = (
{
horizontal = 1;
options = 0;
origin = (
0,
23
);
stem = -2;
target = (
u,
p
);
type = BottomGhost;
},
{
horizontal = 1;
options = 0;
origin = (
0,
20
);
stem = -2;
target = (
0,
21
);
type = Stem;
},
{
horizontal = 1;
options = 0;
origin = (
0,
16
);
stem = -2;
target = (
0,
17
);
type = Stem;
},
{
horizontal = 1;
options = 0;
origin = (
0,
14
);
stem = -2;
target = (
d,
o,
w,
n
);
type = TopGhost;
},
{
horizontal = 0;
options = 0;
origin = (
0,
23
);
stem = -2;
target = (
0,
0
);
type = Stem;
}
);
};
width = 618;
},
{
layerId = m020;
shapes = (
{
closed = 1;
nodes = (
(407,0,l),
(407,83,l),
(580,83,l),
(580,214,l),
(407,214,l),
(407,276,l),
(580,276,l),
(580,408,l),
(488,408,l),
(654,729,l),
(447,729,l),
(312,435,l),
(303,435,l),
(173,729,l),
(-36,729,l),
(133,408,l),
(39,408,l),
(39,276,l),
(212,276,l),
(212,214,l),
(39,214,l),
(39,83,l),
(212,83,l),
(212,0,l)
);
}
);
userData = {
com.schriftgestaltung.Glyphs.glyph.leftMetricsKey = Y;
com.schriftgestaltung.Glyphs.glyph.rightMetricsKey = Y;
};
width = 618;
}
);
unicode = 165;
userData = {
KernOnSpecialSpacing = {
L = symbols;
R = symbols;
};
};
}
{
glyphname = brokenbar;
layers = (
{
layerId = m019;
shapes = (
{
closed = 1;
nodes = (
(327,417,l),
(327,729,l),
(291,729,l),
(291,417,l)
);
},
{
closed = 1;
nodes = (
(327,-67,l),
(327,245,l),
(291,245,l),
(291,-67,l)
);
}
);
userData = {
com.schriftgestaltung.hints = (
{
horizontal = 1;
options = 0;
origin = (
0,
2
);
stem = -2;
target = (
d,
o,
w,
n
);
type = TopGhost;
},
{
horizontal = 0;
options = 0;
origin = (
1,
3
);
stem = -2;
target = (
1,
0
);
type = Stem;
}
);
};
width = 618;
},
{
layerId = m020;
shapes = (
{
closed = 1;
nodes = (
(395,380,l),
(395,729,l),
(224,729,l),
(224,380,l)
);
},
{
closed = 1;
nodes = (
(395,-67,l),
(395,282,l),
(224,282,l),
(224,-67,l)
);
}
);
width = 619;
}
);
metricLeft = bar;
metricRight = bar;
unicode = 166;
}
{
glyphname = section;
layers = (
{
layerId = m019;
shapes = (
{
closed = 1;
nodes = (
(414,-10,o),
(491,42,o),
(491,135,cs),
(491,184,o),
(474,216,o),
(445,237,c),
(480,262,o),
(501,299,o),
(501,347,cs),
(501,451,o),
(428,478,o),
(326,493,cs),
(219,508,o),
(169,532,o),
(169,601,cs),
(169,664,o),
(222,706,o),
(316,706,cs),
(402,706,o),
(460,672,o),
(465,585,c),
(501,585,l),
(498,681,o),
(431,739,o),
(315,739,cs),
(205,739,o),
(132,682,o),
(132,597,cs),
(132,549,o),
(150,518,o),
(185,496,c),
(147,471,o),
(122,429,o),
(122,385,cs),
(122,293,o),
(183,263,o),
(300,246,cs),
(408,230,o),
(453,207,o),
(453,132,cs),
(453,62,o),
(398,23,o),
(299,23,cs),
(204,23,o),
(140,63,o),
(134,149,c),
(97,149,l),
(102,53,o),
(174,-10,o),
(298,-10,cs)
);
},
{
closed = 1;
nodes = (
(387,267,o),
(349,275,o),
(306,281,cs),
(206,295,o),
(159,320,o),
(159,389,cs),
(159,426,o),
(181,458,o),
(217,482,c),
(244,471,o),
(279,464,o),
(320,458,cs),
(421,443,o),
(463,419,o),
(463,344,cs),
(463,306,o),
(447,278,o),
(417,253,c)
);
}
);
width = 618;
},
{
background = {
shapes = (
{
closed = 1;
nodes = (
(468,-10,o),
(569,56,o),
(569,174,cs),
(569,279,o),
(514,326,o),
(372,344,cs),
(297,354,o),
(271,360,o),
(271,388,cs),
(271,403,o),
(279,413,o),
(292,418,c),
(180,524,l),
(117,493,o),
(80,439,o),
(80,371,cs),
(80,262,o),
(146,220,o),
(292,199,cs),
(354,190,o),
(375,186,o),
(375,157,cs),
(375,136,o),
(358,122,o),
(321,122,cs),
(284,122,o),
(258,136,o),
(255,171,c),
(67,171,l),
(68,63,o),
(165,-10,o),
(316,-10,cs)
);
},
{
closed = 1;
nodes = (
(527,228,o),
(569,283,o),
(569,359,cs),
(569,464,o),
(514,511,o),
(372,529,cs),
(297,539,o),
(271,545,o),
(271,573,cs),
(271,596,o),
(290,607,o),
(318,607,cs),
(350,607,o),
(369,594,o),
(370,568,c),
(558,568,l),
(552,670,o),
(459,739,o),
(324,739,cs),
(178,739,o),
(80,666,o),
(80,556,cs),
(80,447,o),
(146,405,o),
(292,384,cs),
(354,375,o),
(375,371,o),
(375,342,cs),
(375,329,o),
(369,319,o),
(356,313,c),
(456,199,l)
);
}
);
};
layerId = m020;
shapes = (
{
closed = 1;
nodes = (
(449,-10,o),
(550,56,o),
(550,165,cs),
(550,207,o),
(534,244,o),
(502,276,c),
(536,297,o),
(559,333,o),
(559,373,cs),
(559,465,o),
(503,503,o),
(372,529,cs),
(305,542,o),
(271,550,o),
(271,576,cs),
(271,599,o),
(290,607,o),
(318,607,cs),
(350,607,o),
(369,594,o),
(370,568,c),
(558,568,l),
(548,670,o),
(459,739,o),
(324,739,cs),
(178,739,o),
(80,670,o),
(80,565,cs),
(80,521,o),
(94,485,o),
(132,457,c),
(92,429,o),
(71,392,o),
(71,348,cs),
(71,254,o),
(147,225,o),
(252,202,cs),
(337,184,o),
(356,177,o),
(356,152,cs),
(356,131,o),
(339,122,o),
(302,122,cs),
(265,122,o),
(239,136,o),
(236,171,c),
(48,171,l),
(50,63,o),
(146,-10,o),
(297,-10,cs)
);
},
{
closed = 1;
nodes = (
(342,337,o),
(318,343,o),
(296,348,cs),
(261,357,o),
(249,367,o),
(249,385,cs),
(249,391,o),
(251,399,o),
(255,407,c),
(274,401,o),
(292,396,o),
(311,391,cs),
(348,382,o),
(367,373,o),
(367,350,cs),
(367,342,o),
(366,336,o),
(362,330,c)
);
}
);
width = 618;
}
);
unicode = 167;
userData = {
KernOnSpecialSpacing = {
R = symbols;
};
};
}
{
color = 6;
glyphname = copyright;
layers = (
{
background = {
anchors = (
{
name = center;
pos = (183,363);
}
);
shapes = (
{
closed = 1;
nodes = (
(288,160,o),
(354,217,o),
(362,300,c),
(327,300,l),
(319,231,o),
(263,192,o),
(192,192,cs),
(101,192,o),
(40,257,o),
(40,362,cs),
(40,464,o),
(98,535,o),
(193,535,cs),
(255,535,o),
(313,503,o),
(326,435,c),
(360,435,l),
(351,513,o),
(284,567,o),
(195,567,cs),
(80,567,o),
(5,484,o),
(5,362,cs),
(5,241,o),
(80,160,o),
(192,160,cs)
);
},
{
closed = 1;
nodes = (
(408,-10,o),
(559,140,o),
(559,363,cs),
(559,587,o),
(408,736,o),
(183,736,cs),
(-41,736,o),
(-192,587,o),
(-192,363,cs),
(-192,140,o),
(-41,-10,o),
(183,-10,cs)
);
},
{
closed = 1;
nodes = (
(-20,21,o),
(-158,159,o),
(-158,363,cs),
(-158,567,o),
(-20,706,o),
(183,706,cs),
(387,706,o),
(525,567,o),
(525,363,cs),
(525,159,o),
(387,21,o),
(183,21,cs)
);
}
);
};
layerId = m019;
shapes = (
{
alignment = 1;
ref = whiteCircle;
},
{
alignment = 1;
pos = (-1,0);
ref = _copyright.C;
}
);
userData = {
com.schriftgestaltung.hints = (
{
horizontal = 1;
options = 0;
place = (
0,
0
);
stem = -2;
type = Stem;
},
{
horizontal = 1;
options = 0;
origin = (
0,
6
);
stem = -2;
target = (
0,
25
);
type = Stem;
},
{
horizontal = 1;
options = 0;
origin = (
0,
19
);
stem = -2;
target = (
0,
12
);
type = Stem;
},
{
horizontal = 1;
options = 0;
place = (
0,
0
);
stem = -2;
type = Stem;
},
{
horizontal = 0;
options = 0;
place = (
0,
0
);
stem = -2;
type = Stem;
},
{
horizontal = 0;
options = 0;
origin = (
0,
22
);
stem = -2;
target = (
0,
9
);
type = Stem;
},
{
horizontal = 0;
options = 0;
place = (
0,
0
);
stem = -2;
type = Stem;
}
);
};
width = 618;
},
{
background = {
anchors = (
{
name = center;
pos = (192,365);
}
);
shapes = (
{
closed = 1;
nodes = (
(310,163,o),
(390,225,o),
(393,319,c),
(260,319,l),
(256,293,o),
(235,274,o),
(198,274,cs),
(157,274,o),
(130,301,o),
(130,365,cs),
(130,420,o),
(151,455,o),
(199,455,cs),
(229,455,o),
(253,441,o),
(259,410,c),
(393,410,l),
(391,499,o),
(316,567,o),
(202,567,cs),
(73,567,o),
(-10,488,o),
(-10,365,cs),
(-10,243,o),
(72,163,o),
(198,163,cs)
);
},
{
closed = 1;
nodes = (
(415,-9,o),
(579,141,o),
(579,365,cs),
(579,589,o),
(415,739,o),
(192,739,cs),
(-32,739,o),
(-196,589,o),
(-196,365,cs),
(-196,141,o),
(-32,-9,o),
(192,-9,cs)
);
},
{
closed = 1;
nodes = (
(10,68,o),
(-112,187,o),
(-112,365,cs),
(-112,544,o),
(11,663,o),
(192,663,cs),
(372,663,o),
(495,544,o),
(495,365,cs),
(495,187,o),
(373,68,o),
(192,68,cs)
);
}
);
};
layerId = m020;
shapes = (
{
alignment = 1;
ref = whiteCircle;
},
{
alignment = 1;
pos = (-1,0);
ref = _copyright.C;
}
);
width = 618;
}
);
metricLeft = whiteCircle;
metricRight = whiteCircle;
unicode = 169;
userData = {
KernOnSpecialSpacing = {
R = symbols;
};
};
}
{
glyphname = ordfeminine;
layers = (
{
layerId = m019;
shapes = (
{
closed = 1;
nodes = (
(342,386,o),
(389,415,o),
(407,467,c),
(409,467,l),
(409,391,l),
(444,391,l),
(444,729,l),
(411,729,l),
(409,654,l),
(407,654,l),
(390,702,o),
(348,735,o),
(287,735,cs),
(206,735,o),
(151,670,o),
(151,560,cs),
(151,451,o),
(206,386,o),
(287,386,cs)
);
},
{
closed = 1;
nodes = (
(231,416,o),
(187,469,o),
(187,560,cs),
(187,653,o),
(231,705,o),
(297,705,cs),
(368,705,o),
(408,645,o),
(408,583,cs),
(408,538,ls),
(408,476,o),
(368,416,o),
(297,416,cs)
);
}
);
width = 618;
},
{
layerId = m020;
shapes = (
{
closed = 1;
nodes = (
(300,370,o),
(337,396,o),
(352,430,c),
(358,430,l),
(358,377,l),
(486,377,l),
(486,731,l),
(363,731,l),
(358,678,l),
(352,678,l),
(336,714,o),
(298,738,o),
(248,738,cs),
(165,738,o),
(110,679,o),
(110,554,cs),
(110,429,o),
(165,370,o),
(248,370,cs)
);
},
{
closed = 1;
nodes = (
(263,472,o),
(240,496,o),
(240,554,cs),
(240,613,o),
(263,636,o),
(299,636,cs),
(341,636,o),
(357,602,o),
(357,568,cs),
(357,540,ls),
(357,506,o),
(341,472,o),
(299,472,cs)
);
}
);
width = 618;
}
);
unicode = 170;
userData = {
KernOnSpecialSpacing = {
L = superiors;
R = superiors;
};
};
}
{
glyphname = guillemetleft;
kernLeft = guillemetleft;
kernRight = guillemetleft;
layers = (
{
layerId = m019;
shapes = (
{
closed = 1;
nodes = (
(313,80,l),
(200,299,l),
(313,517,l),
(280,517,l),
(160,299,l),
(280,80,l)
);
},
{
closed = 1;
nodes = (
(458,80,l),
(345,299,l),
(458,517,l),
(425,517,l),
(305,299,l),
(425,80,l)
);
}
);
width = 618;
},
{
layerId = m020;
shapes = (
{
closed = 1;
nodes = (
(326,64,l),
(221,305,l),
(326,544,l),
(165,544,l),
(39,305,l),
(165,64,l)
);
},
{
closed = 1;
nodes = (
(579,64,l),
(474,305,l),
(579,544,l),
(419,544,l),
(292,305,l),
(419,64,l)
);
}
);
width = 618;
}
);
unicode = 171;
userData = {
KernOnSpecialSpacing = {
L = quotes;
R = quotes;
};
};
}
{
glyphname = logicalnot;
kernRight = logicalnot;
layers = (
{
layerId = m019;
shapes = (
{
closed = 1;
nodes = (
(521,153,l),
(521,397,l),
(46,397,l),
(46,365,l),
(489,365,l),
(489,153,l)
);
}
);
userData = {
com.schriftgestaltung.hints = (
{
horizontal = 1;
options = 0;
origin = (
0,
2
);
stem = -2;
target = (
0,
3
);
type = Stem;
},
{
horizontal = 0;
options = 0;
origin = (
0,
5
);
stem = -2;
target = (
0,
0
);
type = Stem;
}
);
};
width = 618;
},
{
layerId = m020;
shapes = (
{
closed = 1;
nodes = (
(536,139,l),
(536,428,l),
(61,428,l),
(61,281,l),
(392,281,l),
(392,139,l)
);
}
);
width = 618;
}
);
metricWidth = zero.tf;
unicode = 172;
}
{
glyphname = registered;
layers = (
{
layerId = m019;
shapes = (
{
closed = 1;
nodes = (
(453,231,o),
(564,337,o),
(564,485,cs),
(564,633,o),
(453,738,o),
(307,738,cs),
(164,738,o),
(54,633,o),
(54,485,cs),
(54,336,o),
(163,231,o),
(307,231,cs)
);
},
{
closed = 1;
nodes = (
(183,259,o),
(85,353,o),
(85,484,cs),
(85,615,o),
(182,711,o),
(309,711,cs),
(435,711,o),
(534,616,o),
(534,484,cs),
(534,353,o),
(436,259,o),
(309,259,cs)
);
},
{
closed = 1;
nodes = (
(241,349,l),
(241,594,l),
(329,594,ls),
(366,594,o),
(391,579,o),
(391,546,cs),
(391,514,o),
(369,493,o),
(329,493,cs),
(234,493,l),
(234,467,l),
(344,467,ls),
(378,467,o),
(386,451,o),
(386,429,cs),
(386,379,ls),
(386,358,o),
(386,355,o),
(391,349,c),
(416,349,l),
(413,358,o),
(413,371,o),
(413,375,cs),
(413,426,ls),
(413,456,o),
(400,475,o),
(371,482,c),
(371,483,l),
(399,491,o),
(419,514,o),
(419,548,cs),
(419,593,o),
(388,621,o),
(330,621,cs),
(214,621,l),
(214,349,l)
);
}
);
userData = {
com.schriftgestaltung.hints = (
{
horizontal = 1;
options = 0;
origin = (
1,
11
);
stem = -2;
target = (
0,
11
);
type = Stem;
},
{
horizontal = 1;
options = 0;
origin = (
3,
8
);
stem = -2;
target = (
2,
1
);
type = Stem;
},
{
horizontal = 1;
options = 0;
origin = (
2,
25
);
stem = -2;
target = (
3,
0
);
type = Stem;
},
{
horizontal = 1;
options = 0;
origin = (
0,
5
);
stem = -2;
target = (
1,
5
);
type = Stem;
},
{
horizontal = 0;
options = 0;
origin = (
0,
8
);
stem = -2;
target = (
1,
2
);
type = Stem;
},
{
horizontal = 0;
options = 0;
origin = (
2,
26
);
stem = -2;
target = (
2,
0
);
type = Stem;
},
{
horizontal = 0;
options = 0;
origin = (
2,
6
);
stem = -2;
target = (
2,
13
);
type = Stem;
},
{
horizontal = 0;
options = 0;
origin = (
1,
8
);
stem = -2;
target = (
0,
2
);
type = Stem;
},
{
horizontal = 0;
options = 0;
origin = (
2,
9
);
stem = -2;
target = (
2,
21
);
type = Stem;
}
);
};
width = 618;
},
{
layerId = m020;
shapes = (
{
closed = 1;
nodes = (
(459,207,o),
(578,315,o),
(578,473,cs),
(578,632,o),
(459,738,o),
(309,738,cs),
(159,738,o),
(41,632,o),
(41,473,cs),
(41,315,o),
(159,207,o),
(309,207,cs)
);
},
{
closed = 1;
nodes = (
(192,258,o),
(95,343,o),
(95,471,cs),
(95,600,o),
(192,687,o),
(310,687,cs),
(429,687,o),
(525,600,o),
(525,472,cs),
(525,344,o),
(429,258,o),
(309,258,cs)
);
},
{
closed = 1;
nodes = (
(282,343,l),
(282,541,l),
(321,541,ls),
(340,541,o),
(352,534,o),
(352,516,cs),
(352,502,o),
(343,492,o),
(321,492,cs),
(268,492,l),
(268,436,l),
(320,436,ls),
(343,436,o),
(350,425,o),
(350,407,cs),
(350,373,ls),
(350,358,o),
(351,349,o),
(354,343,c),
(443,343,l),
(439,352,o),
(439,363,o),
(439,374,cs),
(439,417,ls),
(439,446,o),
(430,461,o),
(400,468,c),
(400,469,l),
(426,478,o),
(444,502,o),
(444,533,cs),
(444,576,o),
(412,607,o),
(343,607,cs),
(194,607,l),
(194,343,l)
);
}
);
width = 618;
}
);
unicode = 174;
userData = {
KernOnSpecialSpacing = {
L = superiors;
};
};
}
{
glyphname = degree;
kernLeft = degree;
kernRight = degree;
layers = (
{
layerId = m019;
shapes = (
{
closed = 1;
nodes = (
(411,402,o),
(494,483,o),
(494,583,cs),
(494,684,o),
(411,764,o),
(308,764,cs),
(204,764,o),
(125,684,o),
(125,583,cs),
(125,482,o),
(204,402,o),
(308,402,cs)
);
},
{
closed = 1;
nodes = (
(225,436,o),
(159,500,o),
(159,583,cs),
(159,666,o),
(225,730,o),
(308,730,cs),
(392,730,o),
(457,666,o),
(457,583,cs),
(457,500,o),
(392,436,o),
(308,436,cs)
);
}
);
userData = {
com.schriftgestaltung.hints = (
{
horizontal = 1;
options = 0;
place = (
0,
0
);
stem = -2;
type = Stem;
},
{
horizontal = 1;
options = 0;
origin = (
0,
5
);
stem = -2;
target = (
1,
5
);
type = Stem;
},
{
horizontal = 0;
options = 0;
place = (
0,
0
);
stem = -2;
type = Stem;
},
{
horizontal = 0;
options = 0;
origin = (
1,
8
);
stem = -2;
target = (
0,
2
);
type = Stem;
}
);
};
width = 618;
},
{
layerId = m020;
shapes = (
{
closed = 1;
nodes = (
(434,341,o),
(521,425,o),
(521,545,cs),
(521,665,o),
(434,749,o),
(309,749,cs),
(184,749,o),
(97,665,o),
(97,545,cs),
(97,425,o),
(184,341,o),
(309,341,cs)
);
},
{
closed = 1;
nodes = (
(270,479,o),
(245,504,o),
(245,545,cs),
(245,585,o),
(270,610,o),
(309,610,cs),
(348,610,o),
(373,585,o),
(373,545,cs),
(373,504,o),
(348,479,o),
(309,479,cs)
);
}
);
width = 618;
}
);
unicode = 176;
userData = {
KernOnSpecialSpacing = {
L = superiors;
R = superiors;
};
};
}
{
glyphname = plusminus;
layers = (
{
layerId = m019;
shapes = (
{
closed = 1;
nodes = (
(326,162,l),
(326,365,l),
(548,365,l),
(548,397,l),
(326,397,l),
(326,600,l),
(292,600,l),
(292,397,l),
(70,397,l),
(70,365,l),
(292,365,l),
(292,162,l)
);
},
{
closed = 1;
nodes = (
(548,0,l),
(548,32,l),
(70,32,l),
(70,0,l)
);
}
);
userData = {
com.schriftgestaltung.hints = (
{
horizontal = 1;
options = 0;
origin = (
1,
2
);
stem = -2;
target = (
1,
3
);
type = Stem;
},
{
horizontal = 1;
options = 0;
origin = (
0,
8
);
stem = -2;
target = (
0,
9
);
type = Stem;
},
{
horizontal = 0;
options = 0;
origin = (
0,
11
);
stem = -2;
target = (
0,
0
);
type = Stem;
}
);
};
width = 618;
},
{
layerId = m020;
shapes = (
{
closed = 1;
nodes = (
(385,194,l),
(385,326,l),
(565,326,l),
(565,475,l),
(385,475,l),
(385,607,l),
(232,607,l),
(232,475,l),
(52,475,l),
(52,326,l),
(232,326,l),
(232,194,l)
);
},
{
closed = 1;
nodes = (
(565,0,l),
(565,132,l),
(52,132,l),
(52,0,l)
);
}
);
width = 618;
}
);
metricWidth = zero.tf;
unicode = 177;
userData = {
KernOnSpecialSpacing = {
L = math;
R = math;
};
};
}
{
color = 0;
glyphname = paragraph;
layers = (
{
layerId = m019;
shapes = (
{
closed = 1;
nodes = (
(289,0,l),
(289,693,l),
(414,693,l),
(414,0,l),
(452,0,l),
(452,693,l),
(562,693,l),
(562,729,l),
(251,729,ls),
(140,729,o),
(70,672,o),
(70,571,cs),
(70,471,o),
(135,405,o),
(251,406,c),
(251,0,l)
);
}
);
userData = {
com.schriftgestaltung.hints = (
{
horizontal = 1;
options = 0;
origin = (
0,
15
);
stem = -2;
target = (
0,
16
);
type = Stem;
},
{
horizontal = 1;
options = 0;
origin = (
0,
7
);
stem = -2;
target = (
1,
0
);
type = Stem;
},
{
horizontal = 0;
options = 0;
origin = (
0,
14
);
stem = -2;
target = (
1,
6
);
type = Stem;
},
{
horizontal = 0;
options = 0;
origin = (
1,
2
);
stem = -2;
target = (
0,
3
);
type = Stem;
}
);
};
width = 618;
},
{
layerId = m020;
shapes = (
{
closed = 1;
nodes = (
(327,0,l),
(327,569,l),
(402,569,l),
(402,0,l),
(553,0,l),
(553,569,l),
(619,569,l),
(619,729,l),
(202,729,ls),
(74,729,o),
(1,657,o),
(1,528,cs),
(1,409,o),
(75,332,o),
(202,337,c),
(202,0,l)
);
}
);
width = 618;
}
);
unicode = 182;
userData = {
KernOnSpecialSpacing = {
L = NoKerning;
R = NoKerning;
};
};
}
{
glyphname = periodcentered;
layers = (
{
background = {
shapes = (
{
closed = 1;
nodes = (
(355,206,o),
(382,236,o),
(382,277,cs),
(382,318,o),
(355,348,o),
(310,348,cs),
(267,348,o),
(237,318,o),
(237,277,cs),
(237,236,o),
(267,206,o),
(310,206,cs)
);
}
);
};
layerId = m019;
shapes = (
{
closed = 1;
nodes = (
(338,232,o),
(355,251,o),
(355,277,cs),
(355,303,o),
(338,322,o),
(310,322,cs),
(283,322,o),
(264,303,o),
(264,277,cs),
(264,251,o),
(283,232,o),
(310,232,cs)
);
}
);
width = 618;
},
{
background = {
shapes = (
{
closed = 1;
nodes = (
(367,181,o),
(406,222,o),
(406,277,cs),
(406,332,o),
(367,373,o),
(309,373,cs),
(253,373,o),
(212,332,o),
(212,277,cs),
(212,222,o),
(253,181,o),
(309,181,cs)
);
}
);
};
layerId = m020;
shapes = (
{
closed = 1;
nodes = (
(367,181,o),
(406,222,o),
(406,277,cs),
(406,332,o),
(367,373,o),
(309,373,cs),
(253,373,o),
(212,332,o),
(212,277,cs),
(212,222,o),
(253,181,o),
(309,181,cs)
);
}
);
width = 618;
}
);
unicode = 183;
userData = {
KernOnSpecialSpacing = {
L = NoKerning;
R = NoKerning;
};
};
}
{
glyphname = ordmasculine;
layers = (
{
anchors = (
{
name = bottom;
pos = (309,392);
},
{
name = center;
pos = (309,561);
},
{
name = ogonek;
pos = (460,399);
},
{
name = top;
pos = (309,730);
},
{
name = topright;
pos = (485,730);
}
);
layerId = m019;
shapes = (
{
closed = 1;
nodes = (
(403,386,o),
(464,457,o),
(464,560,cs),
(464,665,o),
(402,734,o),
(310,734,cs),
(216,734,o),
(154,662,o),
(154,559,cs),
(154,455,o),
(217,386,o),
(310,386,cs)
);
},
{
closed = 1;
nodes = (
(236,417,o),
(190,473,o),
(190,559,cs),
(190,648,o),
(238,703,o),
(310,703,cs),
(383,703,o),
(429,647,o),
(429,560,cs),
(429,472,o),
(381,417,o),
(310,417,cs)
);
}
);
width = 618;
},
{
anchors = (
{
name = bottom;
pos = (309,377);
},
{
name = center;
pos = (309,554);
},
{
name = ogonek;
pos = (467,384);
},
{
name = top;
pos = (309,731);
},
{
name = topright;
pos = (494,731);
}
);
layerId = m020;
shapes = (
{
closed = 1;
nodes = (
(426,370,o),
(491,444,o),
(491,554,cs),
(491,671,o),
(418,738,o),
(309,738,cs),
(192,738,o),
(127,664,o),
(127,554,cs),
(127,437,o),
(200,370,o),
(309,370,cs)
);
},
{
closed = 1;
nodes = (
(277,472,o),
(256,495,o),
(256,554,cs),
(256,613,o),
(277,636,o),
(309,636,cs),
(341,636,o),
(362,614,o),
(362,554,cs),
(362,494,o),
(341,472,o),
(309,472,cs)
);
}
);
width = 618;
}
);
unicode = 186;
userData = {
KernOnSpecialSpacing = {
L = superiors;
R = superiors;
};
};
}
{
glyphname = AE;
kernLeft = A;
kernRight = E;
layers = (
{
anchors = (
{
name = bottom;
pos = (309,0);
},
{
name = top;
pos = (309,729);
}
);
layerId = m019;
shapes = (
{
closed = 1;
nodes = (
(43,0,l),
(94,199,l),
(358,199,l),
(410,0,l),
(613,0,l),
(613,37,l),
(439,37,l),
(357,358,l),
(578,358,l),
(578,392,l),
(345,392,l),
(269,693,l),
(613,693,l),
(613,729,l),
(198,729,l),
(0,0,l)
);
},
{
closed = 1;
nodes = (
(201,605,l),
(224,696,l),
(229,696,l),
(253,605,l),
(347,235,l),
(107,235,l)
);
}
);
width = 618;
},
{
anchors = (
{
name = bottom;
pos = (309,0);
},
{
name = top;
pos = (309,729);
}
);
layerId = m020;
shapes = (
{
closed = 1;
nodes = (
(165,0,l),
(183,130,l),
(310,130,l),
(328,0,l),
(607,0,l),
(607,172,l),
(485,172,l),
(472,288,l),
(572,288,l),
(572,449,l),
(435,449,l),
(424,557,l),
(604,557,l),
(604,729,l),
(130,729,l),
(-11,0,l)
);
},
{
closed = 1;
nodes = (
(239,482,l),
(254,577,l),
(259,577,l),
(274,482,l),
(299,284,l),
(214,284,l)
);
}
);
width = 618;
}
);
metricLeft = A;
metricRight = E;
unicode = 198;
}
{
glyphname = multiply;
layers = (
{
layerId = m019;
shapes = (
{
closed = 1;
nodes = (
(309,337,l),
(480,166,l),
(504,190,l),
(333,361,l),
(504,532,l),
(480,556,l),
(309,385,l),
(138,556,l),
(114,532,l),
(285,361,l),
(114,190,l),
(138,166,l)
);
}
);
width = 618;
},
{
layerId = m020;
shapes = (
{
closed = 1;
nodes = (
(311,260,l),
(441,129,l),
(542,230,l),
(412,361,l),
(542,491,l),
(441,592,l),
(311,462,l),
(180,592,l),
(79,491,l),
(210,361,l),
(79,230,l),
(180,129,l)
);
}
);
width = 618;
}
);
metricWidth = zero.tf;
unicode = 215;
userData = {
KernOnSpecialSpacing = {
L = math;
R = math;
};
};
}
{
color = 7;
glyphname = Thorn;
kernLeft = H;
kernRight = Thorn;
layers = (
{
background = {
anchors = (
{
name = bottom;
pos = (97,0);
},
{
name = ogonek;
pos = (116,0);
},
{
name = top;
pos = (97,729);
},
{
name = topleft;
pos = (-5,729);
}
);
shapes = (
{
closed = 1;
nodes = (
(322,145,ls),
(472,144,o),
(568,231,o),
(568,365,cs),
(568,505,o),
(473,585,o),
(323,585,cs),
(98,585,l),
(98,548,l),
(320,548,ls),
(453,548,o),
(528,479,o),
(528,365,cs),
(528,254,o),
(454,180,o),
(320,181,cs),
(98,182,l),
(98,146,l)
);
},
{
closed = 1;
nodes = (
(116,0,l),
(116,729,l),
(78,729,l),
(78,0,l)
);
}
);
};
layerId = m019;
shapes = (
{
alignment = -1;
pos = (-25,0);
ref = I;
},
{
pos = (210,0);
ref = _Thorn.bowl;
}
);
width = 599;
},
{
background = {
anchors = (
{
name = bottom;
pos = (-4,0);
},
{
name = ogonek;
pos = (97,0);
},
{
name = top;
pos = (-4,729);
},
{
name = topleft;
pos = (-155,729);
}
);
shapes = (
{
closed = 1;
nodes = (
(206,111,ls),
(377,111,o),
(483,201,o),
(483,362,cs),
(483,523,o),
(377,613,o),
(206,613,cs),
(51,613,l),
(51,443,l),
(180,443,ls),
(238,443,o),
(277,420,o),
(277,362,cs),
(277,304,o),
(238,281,o),
(180,281,cs),
(51,281,l),
(51,111,l)
);
},
{
closed = 1;
nodes = (
(97,0,l),
(97,729,l),
(-106,729,l),
(-106,0,l)
);
}
);
};
layerId = m020;
shapes = (
{
alignment = -1;
pos = (-175,0);
ref = I;
},
{
pos = (97,0);
ref = _Thorn.bowl;
}
);
width = 469;
}
);
metricLeft = H;
metricRight = P;
unicode = 222;
}
{
glyphname = germandbls;
layers = (
{
layerId = m019;
shapes = (
{
closed = 1;
nodes = (
(138,0,l),
(138,516,ls),
(138,634,o),
(200,704,o),
(310,704,cs),
(414,704,o),
(478,648,o),
(478,555,cs),
(478,467,o),
(422,411,o),
(319,411,cs),
(272,411,l),
(272,378,l),
(351,378,ls),
(462,378,o),
(525,312,o),
(525,214,cs),
(525,94,o),
(451,34,o),
(321,34,cs),
(230,34,l),
(230,0,l),
(324,0,ls),
(478,0,o),
(562,83,o),
(562,213,cs),
(562,314,o),
(494,388,o),
(404,399,c),
(404,404,l),
(479,429,o),
(513,491,o),
(513,560,cs),
(513,667,o),
(437,739,o),
(310,739,cs),
(192,739,o),
(101,666,o),
(101,521,cs),
(101,0,l)
);
}
);
width = 618;
},
{
layerId = m020;
shapes = (
{
closed = 1;
nodes = (
(226,0,l),
(226,492,ls),
(226,543,o),
(258,570,o),
(308,570,cs),
(358,570,o),
(383,540,o),
(383,504,cs),
(383,465,o),
(350,435,o),
(298,435,cs),
(282,435,l),
(282,315,l),
(321,315,ls),
(380,315,o),
(413,294,o),
(413,238,cs),
(413,181,o),
(378,154,o),
(319,154,cs),
(281,154,l),
(281,0,l),
(340,0,ls),
(522,0,o),
(610,89,o),
(610,216,cs),
(610,315,o),
(547,380,o),
(468,391,c),
(468,399,l),
(524,416,o),
(559,474,o),
(559,541,cs),
(559,659,o),
(463,739,o),
(310,739,cs),
(158,739,o),
(33,666,o),
(33,466,cs),
(33,0,l)
);
}
);
width = 618;
}
);
unicode = 223;
}
{
glyphname = ae;
kernLeft = a.ss04;
kernRight = e;
layers = (
{
background = {
shapes = (
{
closed = 1;
nodes = (
(-99,94,o),
(-11,-8,o),
(118,-8,cs),
(216,-8,o),
(287,44,o),
(314,121,c),
(317,121,l),
(317,0,l),
(354,0,l),
(354,121,l),
(357,121,l),
(391,35,o),
(466,-8,o),
(554,-8,cs),
(666,-8,o),
(755,55,o),
(772,152,c),
(734,152,l),
(717,76,o),
(649,28,o),
(554,28,cs),
(435,28,o),
(358,111,o),
(354,256,c),
(773,256,l),
(787,407,o),
(710,525,o),
(552,525,cs),
(463,525,o),
(389,478,o),
(357,398,c),
(354,398,l),
(354,517,l),
(319,517,l),
(317,398,l),
(314,398,l),
(287,475,o),
(216,526,o),
(118,526,cs),
(-11,526,o),
(-99,425,o),
(-99,259,cs)
);
},
{
closed = 1;
nodes = (
(-61,408,o),
(14,493,o),
(126,493,cs),
(246,493,o),
(316,397,o),
(316,295,cs),
(316,224,ls),
(316,122,o),
(246,26,o),
(126,26,cs),
(14,26,o),
(-61,112,o),
(-61,259,cs)
);
},
{
closed = 1;
nodes = (
(364,414,o),
(438,489,o),
(551,489,cs),
(655,489,o),
(738,433,o),
(738,289,c),
(355,289,l)
);
}
);
};
layerId = m019;
shapes = (
{
closed = 1;
nodes = (
(215,-9,o),
(276,47,o),
(295,139,c),
(305,139,l),
(332,41,o),
(380,-8,o),
(450,-8,cs),
(528,-8,o),
(587,52,o),
(600,147,c),
(564,147,l),
(551,71,o),
(508,26,o),
(450,26,cs),
(369,26,o),
(315,114,o),
(315,267,cs),
(315,280,ls),
(315,411,o),
(370,491,o),
(448,491,cs),
(522,491,o),
(563,421,o),
(566,293,c),
(308,293,l),
(308,260,l),
(604,260,l),
(610,430,o),
(554,525,o),
(450,525,cs),
(385,525,o),
(337,482,o),
(310,405,c),
(301,405,l),
(282,489,o),
(240,527,o),
(171,527,cs),
(91,527,o),
(32,469,o),
(27,383,c),
(64,383,l),
(68,449,o),
(111,493,o),
(170,493,cs),
(241,493,o),
(278,439,o),
(278,340,cs),
(278,194,ls),
(278,68,o),
(206,23,o),
(145,23,cs),
(86,23,o),
(52,69,o),
(52,138,cs),
(52,229,o),
(106,261,o),
(183,261,cs),
(293,261,l),
(293,294,l),
(183,294,ls),
(92,294,o),
(14,254,o),
(14,137,cs),
(14,50,o),
(61,-9,o),
(139,-9,cs)
);
}
);
width = 618;
},
{
background = {
shapes = (
{
closed = 1;
nodes = (
(120,-10,o),
(200,10,o),
(250,67,c),
(297,18,o),
(367,-10,o),
(456,-10,cs),
(598,-10,o),
(702,64,o),
(715,175,c),
(535,175,l),
(526,149,o),
(495,132,o),
(456,132,cs),
(400,132,o),
(362,166,o),
(364,227,c),
(719,227,l),
(739,415,o),
(646,554,o),
(449,554,cs),
(392,554,o),
(341,541,o),
(300,516,c),
(261,541,o),
(208,554,o),
(141,554,cs),
(-19,554,o),
(-120,475,o),
(-120,357,c),
(66,357,l),
(66,388,o),
(89,408,o),
(129,408,cs),
(161,408,o),
(190,398,o),
(190,356,cs),
(190,324,l),
(116,324,ls),
(-43,324,o),
(-134,260,o),
(-134,142,cs),
(-134,51,o),
(-62,-10,o),
(49,-10,cs)
);
},
{
closed = 1;
nodes = (
(80,114,o),
(59,130,o),
(60,159,cs),
(61,193,o),
(85,214,o),
(147,214,cs),
(185,214,l),
(187,191,o),
(192,169,o),
(199,149,c),
(183,127,o),
(151,114,o),
(114,114,cs)
);
},
{
closed = 1;
nodes = (
(367,383,o),
(400,413,o),
(449,413,cs),
(496,413,o),
(529,386,o),
(531,338,c),
(365,338,l)
);
}
);
};
layerId = m020;
shapes = (
{
closed = 1;
nodes = (
(210,-10,o),
(268,39,o),
(281,96,c),
(291,96,l),
(311,35,o),
(356,-10,o),
(435,-10,cs),
(533,-10,o),
(604,64,o),
(612,172,c),
(462,172,l),
(457,147,o),
(444,132,o),
(422,132,cs),
(394,132,o),
(372,165,o),
(372,222,cs),
(372,332,l),
(376,381,o),
(394,410,o),
(420,410,cs),
(447,410,o),
(462,383,o),
(464,331,c),
(359,331,l),
(359,221,l),
(615,221,l),
(636,425,o),
(567,554,o),
(439,554,cs),
(381,554,o),
(329,524,o),
(309,485,c),
(299,485,l),
(282,526,o),
(239,554,o),
(186,554,cs),
(81,554,o),
(13,477,o),
(10,357,c),
(162,357,l),
(165,388,o),
(174,408,o),
(195,408,cs),
(213,408,o),
(222,388,o),
(222,346,cs),
(222,183,ls),
(222,146,o),
(208,120,o),
(184,120,cs),
(171,120,o),
(161,136,o),
(161,165,cs),
(161,199,o),
(173,221,o),
(210,221,cs),
(301,221,l),
(301,331,l),
(166,331,ls),
(59,331,o),
(0,267,o),
(0,150,cs),
(0,54,o),
(55,-10,o),
(136,-10,cs)
);
}
);
width = 618;
}
);
unicode = 230;
}
{
glyphname = eth;
kernLeft = o;
kernRight = o;
layers = (
{
background = {
shapes = (
{
closed = 1;
nodes = (
(442,-8,o),
(532,82,o),
(532,223,cs),
(532,389,o),
(413,582,o),
(291,729,c),
(245,729,l),
(338,619,o),
(430,482,o),
(476,359,c),
(473,359,l),
(438,421,o),
(378,451,o),
(302,451,cs),
(176,451,o),
(87,360,o),
(87,224,cs),
(87,81,o),
(179,-8,o),
(307,-8,cs)
);
},
{
closed = 1;
nodes = (
(199,26,o),
(125,105,o),
(125,224,cs),
(125,343,o),
(199,417,o),
(306,417,cs),
(424,417,o),
(494,328,o),
(494,217,cs),
(494,98,o),
(419,26,o),
(308,26,cs)
);
},
{
closed = 1;
nodes = (
(477,626,l),
(477,654,l),
(186,589,l),
(186,561,l)
);
}
);
};
layerId = m019;
shapes = (
{
closed = 1;
nodes = (
(442,-9,o),
(527,88,o),
(527,243,cs),
(527,423,o),
(417,596,o),
(312,729,c),
(268,729,l),
(343,640,o),
(424,521,o),
(470,402,c),
(468,402,l),
(434,472,o),
(376,506,o),
(302,506,cs),
(173,506,o),
(92,408,o),
(92,251,cs),
(92,91,o),
(175,-9,o),
(307,-9,cs)
);
},
{
closed = 1;
nodes = (
(196,25,o),
(130,109,o),
(130,251,cs),
(130,391,o),
(195,473,o),
(306,473,cs),
(421,473,o),
(489,388,o),
(489,243,cs),
(489,106,o),
(422,25,o),
(308,25,cs)
);
},
{
closed = 1;
nodes = (
(493,635,l),
(493,663,l),
(208,591,l),
(208,563,l)
);
}
);
width = 619;
},
{
background = {
shapes = (
{
closed = 1;
nodes = (
(464,-9,o),
(572,85,o),
(572,282,cs),
(572,418,o),
(519,587,o),
(392,729,c),
(170,729,l),
(270,631,o),
(354,517,o),
(394,407,c),
(389,407,l),
(369,447,o),
(321,470,o),
(259,470,cs),
(132,470,o),
(47,377,o),
(47,238,cs),
(47,88,o),
(150,-9,o),
(296,-9,cs)
);
},
{
closed = 1;
nodes = (
(266,148,o),
(236,178,o),
(236,242,cs),
(236,299,o),
(260,337,o),
(310,337,cs),
(355,337,o),
(385,307,o),
(385,243,cs),
(385,186,o),
(361,148,o),
(310,148,cs)
);
},
{
closed = 1;
nodes = (
(566,587,l),
(566,707,l),
(161,616,l),
(161,496,l)
);
}
);
};
layerId = m020;
shapes = (
{
closed = 1;
nodes = (
(472,-9,o),
(572,101,o),
(572,282,cs),
(572,433,o),
(503,605,o),
(392,729,c),
(170,729,l),
(262,639,o),
(341,534,o),
(382,432,c),
(372,429,l),
(351,454,o),
(308,470,o),
(264,470,cs),
(132,470,o),
(47,375,o),
(47,233,cs),
(47,82,o),
(145,-9,o),
(296,-9,cs)
);
},
{
closed = 1;
nodes = (
(266,148,o),
(236,178,o),
(236,242,cs),
(236,299,o),
(260,337,o),
(310,337,cs),
(355,337,o),
(385,307,o),
(385,243,cs),
(385,186,o),
(361,148,o),
(310,148,cs)
);
},
{
closed = 1;
nodes = (
(556,587,l),
(556,707,l),
(151,616,l),
(151,496,l)
);
}
);
width = 619;
}
);
metricLeft = o;
metricRight = o;
unicode = 240;
}
{
glyphname = divide;
layers = (
{
layerId = m019;
shapes = (
{
closed = 1;
nodes = (
(548,345,l),
(548,377,l),
(70,377,l),
(70,345,l)
);
},
{
closed = 1;
nodes = (
(332,184,l),
(332,245,l),
(287,245,l),
(287,184,l)
);
},
{
closed = 1;
nodes = (
(332,477,l),
(332,538,l),
(287,538,l),
(287,477,l)
);
}
);
userData = {
com.schriftgestaltung.hints = (
{
horizontal = 1;
options = 0;
origin = (
1,
2
);
stem = -2;
target = (
1,
3
);
type = Stem;
},
{
horizontal = 1;
options = 0;
origin = (
0,
2
);
stem = -2;
target = (
0,
3
);
type = Stem;
},
{
horizontal = 1;
options = 0;
origin = (
2,
2
);
stem = -2;
target = (
2,
3
);
type = Stem;
},
{
horizontal = 0;
options = 0;
origin = (
1,
3
);
stem = -2;
target = (
1,
0
);
type = Stem;
}
);
};
width = 618;
},
{
layerId = m020;
shapes = (
{
closed = 1;
nodes = (
(566,286,l),
(566,435,l),
(53,435,l),
(53,286,l)
);
},
{
closed = 1;
nodes = (
(392,99,l),
(392,231,l),
(227,231,l),
(227,99,l)
);
},
{
closed = 1;
nodes = (
(392,490,l),
(392,623,l),
(227,623,l),
(227,490,l)
);
}
);
width = 618;
}
);
metricWidth = zero.tf;
unicode = 247;
userData = {
KernOnSpecialSpacing = {
L = math;
R = math;
};
};
}
